%TF.GenerationSoftware,KiCad,Pcbnew,9.0.3*%
%TF.CreationDate,2025-09-14T19:53:38+05:30*%
%TF.ProjectId,ESP32 IOT,45535033-3220-4494-9f54-2e6b69636164,rev?*%
%TF.SameCoordinates,Original*%
%TF.FileFunction,Copper,L3,Inr*%
%TF.FilePolarity,Positive*%
%FSLAX46Y46*%
G04 Gerber Fmt 4.6, Leading zero omitted, Abs format (unit mm)*
G04 Created by KiCad (PCBNEW 9.0.3) date 2025-09-14 19:53:38*
%MOMM*%
%LPD*%
G01*
G04 APERTURE LIST*
%TA.AperFunction,HeatsinkPad*%
%ADD10C,0.600000*%
%TD*%
%TA.AperFunction,ComponentPad*%
%ADD11C,0.600000*%
%TD*%
%TA.AperFunction,ComponentPad*%
%ADD12C,2.400000*%
%TD*%
%TA.AperFunction,ComponentPad*%
%ADD13R,1.700000X1.700000*%
%TD*%
%TA.AperFunction,ComponentPad*%
%ADD14C,1.700000*%
%TD*%
%TA.AperFunction,ComponentPad*%
%ADD15C,0.650000*%
%TD*%
%TA.AperFunction,ComponentPad*%
%ADD16O,1.050000X2.100000*%
%TD*%
%TA.AperFunction,ComponentPad*%
%ADD17C,1.208000*%
%TD*%
%TA.AperFunction,ViaPad*%
%ADD18C,0.600000*%
%TD*%
%TA.AperFunction,ViaPad*%
%ADD19C,0.500000*%
%TD*%
%TA.AperFunction,ViaPad*%
%ADD20C,0.800000*%
%TD*%
G04 APERTURE END LIST*
D10*
%TO.N,GND*%
%TO.C,U3*%
X207154600Y-79341800D03*
X207154600Y-80441800D03*
X207704600Y-78791800D03*
X207704600Y-79891800D03*
X207704600Y-80991800D03*
X208254600Y-79341800D03*
X208254600Y-80441800D03*
X208804600Y-78791800D03*
X208804600Y-79891800D03*
X208804600Y-80991800D03*
X209354600Y-79341800D03*
X209354600Y-80441800D03*
%TD*%
D11*
%TO.N,GND*%
%TO.C,U8*%
X159816800Y-97877200D03*
X159366800Y-97427200D03*
X159816800Y-97427200D03*
X160266800Y-97427200D03*
X159816800Y-96977200D03*
%TD*%
D12*
%TO.N,/+5V_USB*%
%TO.C,F1*%
X147828000Y-97383600D03*
%TO.N,/VBUS*%
X147828000Y-92383600D03*
%TD*%
D13*
%TO.N,+3.3V*%
%TO.C,J5*%
X154584400Y-66598800D03*
D14*
%TO.N,/ESP32-C3-02/GPIO8*%
X152044400Y-66598800D03*
%TO.N,/ESP32-C3-02/GPIO18*%
X149504400Y-66598800D03*
%TO.N,/ESP32-C3-02/GPIO19*%
X146964400Y-66598800D03*
%TO.N,GND*%
X144424400Y-66598800D03*
%TD*%
D13*
%TO.N,+3.3V*%
%TO.C,J4*%
X167386000Y-66751200D03*
D14*
%TO.N,/ESP32-C3-02/SDA*%
X164846000Y-66751200D03*
%TO.N,/ESP32-C3-02/SCL*%
X162306000Y-66751200D03*
%TO.N,GND*%
X159766000Y-66751200D03*
%TD*%
D15*
%TO.N,GND*%
%TO.C,J1*%
X163179600Y-108539600D03*
%TO.N,unconnected-(J1-SSTXP2-PadB2)*%
X162779600Y-109249600D03*
%TO.N,unconnected-(J1-SSTXN2-PadB3)*%
X161979600Y-109249600D03*
%TO.N,/VBUS*%
X161579600Y-108539600D03*
%TO.N,Net-(J1-CC2)*%
X161179600Y-109249600D03*
%TO.N,/USB_DP*%
X160779600Y-108539600D03*
%TO.N,/USB_DN*%
X159979600Y-108539600D03*
%TO.N,unconnected-(J1-SBU2-PadB8)*%
X159579600Y-109249600D03*
%TO.N,/VBUS*%
X159179600Y-108539600D03*
%TO.N,unconnected-(J1-SSRXN1-PadB10)*%
X158779600Y-109249600D03*
%TO.N,unconnected-(J1-SSRXP1-PadB11)*%
X157979600Y-109249600D03*
%TO.N,GND*%
X157579600Y-108539600D03*
X162379600Y-108539600D03*
X158379600Y-108539600D03*
D16*
X156109600Y-109689600D03*
X164649600Y-109689600D03*
X156109600Y-114419600D03*
X164649600Y-114419600D03*
%TD*%
D17*
%TO.N,GND*%
%TO.C,MK1*%
X137820400Y-73660000D03*
%TO.N,Net-(U7-IN+)*%
X137820400Y-71760000D03*
%TD*%
D18*
%TO.N,/+5V_USB*%
X131876800Y-98145600D03*
%TO.N,/VBUS*%
X149098000Y-88392000D03*
X147472400Y-88290400D03*
X145897600Y-88341200D03*
D19*
%TO.N,*%
X148590000Y-101244400D03*
X147218400Y-101244400D03*
X145643600Y-101193600D03*
D18*
%TO.N,/VBUS*%
X158572200Y-105994200D03*
D19*
%TO.N,GND*%
X191160400Y-77114400D03*
X130810000Y-86612100D03*
D18*
X167894000Y-102514400D03*
D19*
X127508000Y-116025300D03*
D20*
X129204000Y-111117300D03*
D18*
X158343600Y-100330000D03*
D19*
X151434800Y-79095600D03*
X145796000Y-78892400D03*
X177495200Y-71272400D03*
X157988000Y-71120000D03*
D18*
X164287200Y-106680000D03*
X163804600Y-94869000D03*
D19*
X192557400Y-95173800D03*
X165354000Y-71577200D03*
D18*
X174548800Y-117500400D03*
D19*
X133400800Y-93520900D03*
X213360000Y-97637600D03*
X127508000Y-116685700D03*
X184607200Y-85496400D03*
X196723000Y-95021400D03*
X138482800Y-111199300D03*
X159816800Y-64363600D03*
X190474600Y-95275400D03*
D18*
X160985200Y-83108800D03*
X172897800Y-99034600D03*
X156819600Y-106476800D03*
D19*
X133400800Y-91031700D03*
D18*
X171958000Y-97180400D03*
X177546000Y-112826800D03*
D19*
X133400800Y-88796500D03*
D18*
X161721800Y-114630200D03*
D19*
X153416000Y-74117200D03*
X133400800Y-92403300D03*
D18*
X190601600Y-116941600D03*
D19*
X132638800Y-86459700D03*
X138074400Y-101803200D03*
X175941200Y-69921600D03*
X213918800Y-116992400D03*
X142394400Y-117142900D03*
X126644400Y-86612100D03*
X127508000Y-117447700D03*
X197365800Y-85691800D03*
D18*
X180035200Y-117246400D03*
D19*
X148285200Y-72847200D03*
X144170400Y-74930000D03*
D18*
X160375600Y-100584000D03*
D19*
X129032000Y-86510500D03*
X133400800Y-89914100D03*
X132029200Y-79705200D03*
D18*
X161493200Y-112115600D03*
D19*
X127711200Y-86713700D03*
D18*
X160566800Y-94589600D03*
D19*
X173278800Y-88544400D03*
X203606400Y-95148400D03*
D18*
%TO.N,+3.3V*%
X165252400Y-92100400D03*
D19*
X176631600Y-71170800D03*
D18*
X162915600Y-100330000D03*
D19*
X206248000Y-89255600D03*
X175361600Y-71272400D03*
X200914000Y-90932000D03*
D18*
X156667200Y-83616800D03*
D20*
X190449200Y-74930000D03*
D19*
X138036300Y-78738100D03*
X175361600Y-67360800D03*
X137363200Y-78738100D03*
X181356000Y-71831200D03*
X154635200Y-64058800D03*
X135343900Y-78738100D03*
X172466000Y-70713600D03*
X136017000Y-78738100D03*
D18*
X153873200Y-83972400D03*
D19*
X148742400Y-69494400D03*
X180949600Y-82753200D03*
X147269200Y-73253600D03*
X136690100Y-78738100D03*
D18*
X160832800Y-81381600D03*
X169926000Y-106476800D03*
D19*
%TO.N,/+5V_USB*%
X143205200Y-112469300D03*
X139649200Y-115923700D03*
X140870400Y-115923700D03*
X140159200Y-115872900D03*
X143154400Y-113028100D03*
%TO.N,/ESP32-C3-02/MIC_OUT*%
X188231025Y-75302625D03*
X196545200Y-77774800D03*
D18*
%TO.N,/ESP32-C3-02/BOOT*%
X206552800Y-87579200D03*
X183540400Y-103936800D03*
%TO.N,/ESP32-C3-02/EN*%
X200152000Y-75031600D03*
X178206400Y-103530400D03*
%TO.N,/USB_DP*%
X158089600Y-104089200D03*
D19*
X160324800Y-109575600D03*
D18*
%TO.N,/USB_DN*%
X162052000Y-104800400D03*
D19*
%TO.N,/ESP32-C3-02/CD_SD*%
X217576400Y-77266800D03*
X216712800Y-91389200D03*
%TO.N,/ESP32-C3-02/MOSI_DI*%
X181102000Y-90424000D03*
X185420000Y-97485200D03*
%TO.N,/ESP32-C3-02/SCL*%
X212191600Y-77114400D03*
X188569600Y-73050400D03*
%TO.N,/ESP32-C3-02/SDA*%
X188925200Y-74117200D03*
X203454000Y-75488800D03*
%TO.N,/ESP32-C3-02/GPIO18*%
X201955400Y-80645000D03*
%TO.N,/ESP32-C3-02/GPIO8*%
X195884800Y-82804000D03*
%TO.N,/ESP32-C3-02/GPIO19*%
X202641200Y-79451200D03*
X186385200Y-74523600D03*
D18*
%TO.N,/ESP32-C3-02/RTS*%
X178816000Y-101650800D03*
X177393600Y-104241600D03*
D19*
%TO.N,/CHARGING_POWER_GOOD*%
X141429200Y-109522900D03*
X131978400Y-107694100D03*
%TO.N,/CHARGED*%
X132689600Y-108405300D03*
X140149200Y-110193300D03*
%TO.N,/CHARGING*%
X141886400Y-110488100D03*
X133654800Y-107592500D03*
%TO.N,/ESP32-C3-02/CS*%
X185572400Y-82143600D03*
X211886800Y-84886800D03*
D18*
%TO.N,/ESP32-C3-02/TX_RX*%
X214604600Y-82727800D03*
X215036400Y-100177600D03*
%TO.N,/ESP32-C3-02/RX_TX*%
X214528400Y-84480400D03*
X212750400Y-100076000D03*
D19*
%TO.N,Net-(U7-IN-)*%
X147800379Y-79631221D03*
X154203942Y-79673600D03*
%TD*%
%TA.AperFunction,Conductor*%
%TO.N,GND*%
G36*
X183378267Y-62283779D02*
G01*
X183524664Y-62297190D01*
X183548807Y-62301850D01*
X183683724Y-62342107D01*
X183706465Y-62351436D01*
X183830784Y-62417524D01*
X183851243Y-62431161D01*
X183960084Y-62520485D01*
X183977452Y-62537893D01*
X184066518Y-62646928D01*
X184080109Y-62667420D01*
X184145911Y-62791891D01*
X184155191Y-62814662D01*
X184195137Y-62949666D01*
X184199742Y-62973820D01*
X184212828Y-63120376D01*
X184213312Y-63132678D01*
X184133034Y-70948610D01*
X184132289Y-70955062D01*
X184132495Y-70999840D01*
X184132495Y-70999956D01*
X184132498Y-71000798D01*
X184132174Y-71032384D01*
X184132617Y-71033487D01*
X184132664Y-71046106D01*
X184132663Y-71046107D01*
X184132664Y-71046114D01*
X184132867Y-71102745D01*
X184132868Y-71102758D01*
X184168397Y-71301218D01*
X184237478Y-71490639D01*
X184291342Y-71584220D01*
X184338057Y-71665382D01*
X184461377Y-71813339D01*
X184467148Y-71820262D01*
X184467151Y-71820265D01*
X184549971Y-71890506D01*
X184620912Y-71950673D01*
X184794787Y-72052746D01*
X184983606Y-72123448D01*
X185181761Y-72160679D01*
X185277358Y-72161841D01*
X185282611Y-72161906D01*
X185282614Y-72161906D01*
X185282656Y-72161918D01*
X185282711Y-72161907D01*
X185320313Y-72162403D01*
X185320313Y-72162402D01*
X185334268Y-72162587D01*
X185334636Y-72162549D01*
X193172133Y-72259433D01*
X193238924Y-72279945D01*
X193284022Y-72333311D01*
X193294600Y-72383424D01*
X193294600Y-72591800D01*
X217300078Y-72591800D01*
X217301589Y-72592031D01*
X217302359Y-72591821D01*
X217337196Y-72597486D01*
X217401883Y-72617779D01*
X217424036Y-72627177D01*
X217430329Y-72630602D01*
X217545084Y-72693055D01*
X217565009Y-72706558D01*
X217671050Y-72794581D01*
X217687990Y-72811679D01*
X217775026Y-72918526D01*
X217788344Y-72938574D01*
X217853098Y-73060221D01*
X217862292Y-73082465D01*
X217902328Y-73214339D01*
X217907052Y-73237940D01*
X217921509Y-73381539D01*
X217922132Y-73393574D01*
X217922273Y-73439162D01*
X217922276Y-73439181D01*
X217932695Y-76737148D01*
X217913223Y-76804250D01*
X217860564Y-76850171D01*
X217791437Y-76860333D01*
X217758292Y-76848923D01*
X217757800Y-76850113D01*
X217750290Y-76847002D01*
X217740894Y-76844484D01*
X217635709Y-76816300D01*
X217517091Y-76816300D01*
X217402514Y-76847001D01*
X217402512Y-76847001D01*
X217402512Y-76847002D01*
X217299787Y-76906311D01*
X217299784Y-76906313D01*
X217215913Y-76990184D01*
X217215911Y-76990187D01*
X217156601Y-77092914D01*
X217125900Y-77207491D01*
X217125900Y-77326109D01*
X217156601Y-77440686D01*
X217215911Y-77543413D01*
X217299787Y-77627289D01*
X217402514Y-77686599D01*
X217517091Y-77717300D01*
X217517094Y-77717300D01*
X217635706Y-77717300D01*
X217635709Y-77717300D01*
X217750286Y-77686599D01*
X217750288Y-77686597D01*
X217750290Y-77686597D01*
X217757800Y-77683487D01*
X217758317Y-77684737D01*
X217817919Y-77670271D01*
X217883949Y-77693115D01*
X217927146Y-77748031D01*
X217936033Y-77793739D01*
X218026444Y-106410908D01*
X218066345Y-119040858D01*
X218068062Y-119584106D01*
X218068064Y-119584890D01*
X218068163Y-119616084D01*
X218067591Y-119628384D01*
X218053476Y-119774715D01*
X218048699Y-119798840D01*
X218007782Y-119933581D01*
X217998337Y-119956289D01*
X217931632Y-120080303D01*
X217917891Y-120100700D01*
X217828026Y-120209107D01*
X217810531Y-120226391D01*
X217701035Y-120314934D01*
X217680473Y-120328424D01*
X217641869Y-120348586D01*
X217555655Y-120393614D01*
X217532835Y-120402781D01*
X217397604Y-120442056D01*
X217373422Y-120446539D01*
X217226950Y-120458869D01*
X217214649Y-120459291D01*
X217214647Y-120459290D01*
X217214647Y-120459291D01*
X217212476Y-120459257D01*
X217182069Y-120458792D01*
X217182065Y-120458792D01*
X124720013Y-119040858D01*
X124707994Y-119040089D01*
X124565292Y-119023968D01*
X124541793Y-119018971D01*
X124410632Y-118977456D01*
X124388539Y-118968022D01*
X124267849Y-118901997D01*
X124247997Y-118888486D01*
X124142296Y-118800422D01*
X124125417Y-118783330D01*
X124038687Y-118676544D01*
X124025419Y-118656517D01*
X124011540Y-118630378D01*
X123960903Y-118535003D01*
X123951751Y-118512806D01*
X123911878Y-118381133D01*
X123907176Y-118357577D01*
X123902447Y-118310440D01*
X123892756Y-118213853D01*
X123892139Y-118201844D01*
X123887396Y-116573437D01*
X167053100Y-116573437D01*
X167053100Y-116801762D01*
X167088815Y-117027260D01*
X167159370Y-117244403D01*
X167263021Y-117447828D01*
X167397221Y-117632537D01*
X167558663Y-117793979D01*
X167743372Y-117928179D01*
X167839484Y-117977150D01*
X167946796Y-118031829D01*
X167946798Y-118031829D01*
X167946801Y-118031831D01*
X168063192Y-118069649D01*
X168163939Y-118102384D01*
X168389438Y-118138100D01*
X168389443Y-118138100D01*
X168617762Y-118138100D01*
X168843260Y-118102384D01*
X169060399Y-118031831D01*
X169263828Y-117928179D01*
X169448537Y-117793979D01*
X169609979Y-117632537D01*
X169744179Y-117447828D01*
X169847831Y-117244399D01*
X169918384Y-117027260D01*
X169954100Y-116801762D01*
X169954100Y-116573437D01*
X169918384Y-116347939D01*
X169878523Y-116225261D01*
X169847831Y-116130801D01*
X169847829Y-116130798D01*
X169847829Y-116130796D01*
X169750589Y-115939953D01*
X169744179Y-115927372D01*
X169609979Y-115742663D01*
X169448537Y-115581221D01*
X169263828Y-115447021D01*
X169230644Y-115430113D01*
X169060403Y-115343370D01*
X168843260Y-115272815D01*
X168617762Y-115237100D01*
X168617757Y-115237100D01*
X168389443Y-115237100D01*
X168389438Y-115237100D01*
X168163939Y-115272815D01*
X167946796Y-115343370D01*
X167743371Y-115447021D01*
X167558661Y-115581222D01*
X167397222Y-115742661D01*
X167263021Y-115927371D01*
X167159370Y-116130796D01*
X167088815Y-116347939D01*
X167053100Y-116573437D01*
X123887396Y-116573437D01*
X123887383Y-116568932D01*
X123886578Y-116292697D01*
X123885331Y-115864391D01*
X139198700Y-115864391D01*
X139198700Y-115983009D01*
X139229401Y-116097586D01*
X139288711Y-116200313D01*
X139372587Y-116284189D01*
X139475314Y-116343499D01*
X139589891Y-116374200D01*
X139589894Y-116374200D01*
X139708506Y-116374200D01*
X139708509Y-116374200D01*
X139823086Y-116343499D01*
X139823088Y-116343497D01*
X139823090Y-116343497D01*
X139823091Y-116343496D01*
X139890125Y-116304794D01*
X139958025Y-116288320D01*
X139984220Y-116292405D01*
X139985311Y-116292697D01*
X139985314Y-116292699D01*
X140099891Y-116323400D01*
X140099894Y-116323400D01*
X140218506Y-116323400D01*
X140218509Y-116323400D01*
X140333086Y-116292699D01*
X140421359Y-116241733D01*
X140489255Y-116225261D01*
X140555282Y-116248112D01*
X140571038Y-116261440D01*
X140593787Y-116284189D01*
X140696514Y-116343499D01*
X140811091Y-116374200D01*
X140811094Y-116374200D01*
X140929706Y-116374200D01*
X140929709Y-116374200D01*
X141044286Y-116343499D01*
X141147013Y-116284189D01*
X141230889Y-116200313D01*
X141290199Y-116097586D01*
X141320900Y-115983009D01*
X141320900Y-115864391D01*
X141290199Y-115749814D01*
X141230889Y-115647087D01*
X141147013Y-115563211D01*
X141044286Y-115503901D01*
X140929709Y-115473200D01*
X140811091Y-115473200D01*
X140696514Y-115503901D01*
X140696512Y-115503901D01*
X140696512Y-115503902D01*
X140688931Y-115508279D01*
X140619292Y-115548486D01*
X140608243Y-115554865D01*
X140540343Y-115571338D01*
X140474316Y-115548486D01*
X140458561Y-115535159D01*
X140435815Y-115512413D01*
X140435813Y-115512411D01*
X140333086Y-115453101D01*
X140218509Y-115422400D01*
X140099891Y-115422400D01*
X140019351Y-115443980D01*
X139985309Y-115453102D01*
X139985306Y-115453103D01*
X139918272Y-115491806D01*
X139850372Y-115508279D01*
X139824180Y-115504194D01*
X139777947Y-115491806D01*
X139708509Y-115473200D01*
X139589891Y-115473200D01*
X139475314Y-115503901D01*
X139475312Y-115503901D01*
X139475312Y-115503902D01*
X139372587Y-115563211D01*
X139372584Y-115563213D01*
X139288713Y-115647084D01*
X139288711Y-115647087D01*
X139234623Y-115740770D01*
X139229401Y-115749814D01*
X139198700Y-115864391D01*
X123885331Y-115864391D01*
X123879300Y-113793641D01*
X155084600Y-113793641D01*
X155084600Y-114169600D01*
X155784600Y-114169600D01*
X155784600Y-114669600D01*
X155084600Y-114669600D01*
X155084600Y-115045558D01*
X155123987Y-115243574D01*
X155123990Y-115243583D01*
X155201252Y-115430113D01*
X155201259Y-115430126D01*
X155313429Y-115597999D01*
X155313432Y-115598003D01*
X155456196Y-115740767D01*
X155456200Y-115740770D01*
X155624073Y-115852940D01*
X155624086Y-115852947D01*
X155810616Y-115930209D01*
X155810625Y-115930212D01*
X155859600Y-115939953D01*
X155859600Y-114929218D01*
X155910046Y-114979664D01*
X155984155Y-115022451D01*
X156066813Y-115044600D01*
X156152387Y-115044600D01*
X156235045Y-115022451D01*
X156309154Y-114979664D01*
X156359600Y-114929218D01*
X156359600Y-115939952D01*
X156408574Y-115930212D01*
X156408583Y-115930209D01*
X156595113Y-115852947D01*
X156595126Y-115852940D01*
X156762999Y-115740770D01*
X156763003Y-115740767D01*
X156905767Y-115598003D01*
X156905770Y-115597999D01*
X157017940Y-115430126D01*
X157017947Y-115430113D01*
X157095209Y-115243583D01*
X157095212Y-115243574D01*
X157134599Y-115045558D01*
X157134600Y-115045555D01*
X157134600Y-114669600D01*
X156434600Y-114669600D01*
X156434600Y-114169600D01*
X157134600Y-114169600D01*
X157134600Y-113793645D01*
X157134599Y-113793641D01*
X163624600Y-113793641D01*
X163624600Y-114169600D01*
X164324600Y-114169600D01*
X164324600Y-114669600D01*
X163624600Y-114669600D01*
X163624600Y-115045558D01*
X163663987Y-115243574D01*
X163663990Y-115243583D01*
X163741252Y-115430113D01*
X163741259Y-115430126D01*
X163853429Y-115597999D01*
X163853432Y-115598003D01*
X163996196Y-115740767D01*
X163996200Y-115740770D01*
X164164073Y-115852940D01*
X164164086Y-115852947D01*
X164350616Y-115930209D01*
X164350625Y-115930212D01*
X164399600Y-115939953D01*
X164399600Y-114929218D01*
X164450046Y-114979664D01*
X164524155Y-115022451D01*
X164606813Y-115044600D01*
X164692387Y-115044600D01*
X164775045Y-115022451D01*
X164849154Y-114979664D01*
X164899600Y-114929218D01*
X164899600Y-115939952D01*
X164948574Y-115930212D01*
X164948583Y-115930209D01*
X165135113Y-115852947D01*
X165135126Y-115852940D01*
X165302999Y-115740770D01*
X165303003Y-115740767D01*
X165445767Y-115598003D01*
X165445770Y-115597999D01*
X165557940Y-115430126D01*
X165557947Y-115430113D01*
X165635209Y-115243583D01*
X165635212Y-115243574D01*
X165674599Y-115045558D01*
X165674600Y-115045555D01*
X165674600Y-114669600D01*
X164974600Y-114669600D01*
X164974600Y-114169600D01*
X165674600Y-114169600D01*
X165674600Y-113793645D01*
X165674599Y-113793641D01*
X165635212Y-113595625D01*
X165635209Y-113595616D01*
X165557947Y-113409086D01*
X165557940Y-113409073D01*
X165445770Y-113241200D01*
X165445767Y-113241196D01*
X165303003Y-113098432D01*
X165302999Y-113098429D01*
X165135126Y-112986259D01*
X165135113Y-112986252D01*
X164948584Y-112908990D01*
X164948577Y-112908988D01*
X164899600Y-112899245D01*
X164899600Y-113909982D01*
X164849154Y-113859536D01*
X164775045Y-113816749D01*
X164692387Y-113794600D01*
X164606813Y-113794600D01*
X164524155Y-113816749D01*
X164450046Y-113859536D01*
X164399600Y-113909982D01*
X164399600Y-112899246D01*
X164399599Y-112899245D01*
X164350622Y-112908988D01*
X164350615Y-112908990D01*
X164164086Y-112986252D01*
X164164073Y-112986259D01*
X163996200Y-113098429D01*
X163996196Y-113098432D01*
X163853432Y-113241196D01*
X163853429Y-113241200D01*
X163741259Y-113409073D01*
X163741252Y-113409086D01*
X163663990Y-113595616D01*
X163663987Y-113595625D01*
X163624600Y-113793641D01*
X157134599Y-113793641D01*
X157095212Y-113595625D01*
X157095209Y-113595616D01*
X157017947Y-113409086D01*
X157017940Y-113409073D01*
X156905770Y-113241200D01*
X156905767Y-113241196D01*
X156763003Y-113098432D01*
X156762999Y-113098429D01*
X156595126Y-112986259D01*
X156595113Y-112986252D01*
X156408584Y-112908990D01*
X156408577Y-112908988D01*
X156359600Y-112899245D01*
X156359600Y-113909982D01*
X156309154Y-113859536D01*
X156235045Y-113816749D01*
X156152387Y-113794600D01*
X156066813Y-113794600D01*
X155984155Y-113816749D01*
X155910046Y-113859536D01*
X155859600Y-113909982D01*
X155859600Y-112899246D01*
X155859599Y-112899245D01*
X155810622Y-112908988D01*
X155810615Y-112908990D01*
X155624086Y-112986252D01*
X155624073Y-112986259D01*
X155456200Y-113098429D01*
X155456196Y-113098432D01*
X155313432Y-113241196D01*
X155313429Y-113241200D01*
X155201259Y-113409073D01*
X155201252Y-113409086D01*
X155123990Y-113595616D01*
X155123987Y-113595625D01*
X155084600Y-113793641D01*
X123879300Y-113793641D01*
X123876897Y-112968791D01*
X142703900Y-112968791D01*
X142703900Y-113087409D01*
X142734601Y-113201986D01*
X142793911Y-113304713D01*
X142877787Y-113388589D01*
X142980514Y-113447899D01*
X143095091Y-113478600D01*
X143095094Y-113478600D01*
X143213706Y-113478600D01*
X143213709Y-113478600D01*
X143328286Y-113447899D01*
X143431013Y-113388589D01*
X143514889Y-113304713D01*
X143574199Y-113201986D01*
X143604900Y-113087409D01*
X143604900Y-112968791D01*
X143574199Y-112854214D01*
X143574198Y-112854212D01*
X143571089Y-112846706D01*
X143572405Y-112846160D01*
X143558004Y-112786789D01*
X143574477Y-112730692D01*
X143624996Y-112643191D01*
X143624997Y-112643190D01*
X143624998Y-112643187D01*
X143624999Y-112643186D01*
X143655700Y-112528609D01*
X143655700Y-112409991D01*
X143624999Y-112295414D01*
X143565689Y-112192687D01*
X143481813Y-112108811D01*
X143379086Y-112049501D01*
X143264509Y-112018800D01*
X143145891Y-112018800D01*
X143031314Y-112049501D01*
X143031312Y-112049501D01*
X143031312Y-112049502D01*
X142928587Y-112108811D01*
X142928584Y-112108813D01*
X142844713Y-112192684D01*
X142844711Y-112192687D01*
X142785401Y-112295414D01*
X142754700Y-112409991D01*
X142754700Y-112528609D01*
X142785401Y-112643186D01*
X142785402Y-112643187D01*
X142788511Y-112650693D01*
X142787194Y-112651238D01*
X142801596Y-112710610D01*
X142785124Y-112766705D01*
X142734601Y-112854214D01*
X142703900Y-112968791D01*
X123876897Y-112968791D01*
X123868986Y-110252606D01*
X123868641Y-110133991D01*
X139698700Y-110133991D01*
X139698700Y-110252609D01*
X139729401Y-110367186D01*
X139788711Y-110469913D01*
X139872587Y-110553789D01*
X139975314Y-110613099D01*
X140089891Y-110643800D01*
X140089894Y-110643800D01*
X140208506Y-110643800D01*
X140208509Y-110643800D01*
X140323086Y-110613099D01*
X140425813Y-110553789D01*
X140509689Y-110469913D01*
X140568999Y-110367186D01*
X140599700Y-110252609D01*
X140599700Y-110133991D01*
X140568999Y-110019414D01*
X140509689Y-109916687D01*
X140425813Y-109832811D01*
X140323086Y-109773501D01*
X140208509Y-109742800D01*
X140089891Y-109742800D01*
X139975314Y-109773501D01*
X139975312Y-109773501D01*
X139975312Y-109773502D01*
X139872587Y-109832811D01*
X139872584Y-109832813D01*
X139788713Y-109916684D01*
X139788711Y-109916687D01*
X139729401Y-110019414D01*
X139698700Y-110133991D01*
X123868641Y-110133991D01*
X123868618Y-110126225D01*
X123867911Y-109883386D01*
X123866688Y-109463591D01*
X140978700Y-109463591D01*
X140978700Y-109582209D01*
X141009401Y-109696786D01*
X141068711Y-109799513D01*
X141152587Y-109883389D01*
X141255314Y-109942699D01*
X141369891Y-109973400D01*
X141369894Y-109973400D01*
X141464636Y-109973400D01*
X141531675Y-109993085D01*
X141577430Y-110045889D01*
X141587374Y-110115047D01*
X141558349Y-110178603D01*
X141552317Y-110185081D01*
X141525913Y-110211484D01*
X141525911Y-110211487D01*
X141466601Y-110314214D01*
X141435900Y-110428791D01*
X141435900Y-110547409D01*
X141466601Y-110661986D01*
X141525911Y-110764713D01*
X141609787Y-110848589D01*
X141712514Y-110907899D01*
X141827091Y-110938600D01*
X141827094Y-110938600D01*
X141945706Y-110938600D01*
X141945709Y-110938600D01*
X142060286Y-110907899D01*
X142163013Y-110848589D01*
X142246889Y-110764713D01*
X142306199Y-110661986D01*
X142336900Y-110547409D01*
X142336900Y-110428791D01*
X142306199Y-110314214D01*
X142246889Y-110211487D01*
X142163013Y-110127611D01*
X142060286Y-110068301D01*
X141945709Y-110037600D01*
X141850964Y-110037600D01*
X141829718Y-110031361D01*
X141807630Y-110029782D01*
X141796846Y-110021709D01*
X141783925Y-110017915D01*
X141769425Y-110001181D01*
X141751697Y-109987910D01*
X141746989Y-109975289D01*
X141738170Y-109965111D01*
X141735018Y-109943193D01*
X141727280Y-109922446D01*
X141730142Y-109909285D01*
X141728226Y-109895953D01*
X141737425Y-109875809D01*
X141742132Y-109854173D01*
X141755400Y-109836447D01*
X141757251Y-109832397D01*
X141763283Y-109825919D01*
X141788645Y-109800557D01*
X141789689Y-109799513D01*
X141848999Y-109696786D01*
X141879700Y-109582209D01*
X141879700Y-109463591D01*
X141848999Y-109349014D01*
X141789689Y-109246287D01*
X141705813Y-109162411D01*
X141603086Y-109103101D01*
X141488509Y-109072400D01*
X141369891Y-109072400D01*
X141255314Y-109103101D01*
X141255312Y-109103101D01*
X141255312Y-109103102D01*
X141152587Y-109162411D01*
X141152584Y-109162413D01*
X141068713Y-109246284D01*
X141068711Y-109246287D01*
X141020478Y-109329829D01*
X141009401Y-109349014D01*
X140978700Y-109463591D01*
X123866688Y-109463591D01*
X123865523Y-109063641D01*
X155084600Y-109063641D01*
X155084600Y-109439600D01*
X155784600Y-109439600D01*
X155784600Y-109939600D01*
X155084600Y-109939600D01*
X155084600Y-110315558D01*
X155123987Y-110513574D01*
X155123990Y-110513583D01*
X155201252Y-110700113D01*
X155201259Y-110700126D01*
X155313429Y-110867999D01*
X155313432Y-110868003D01*
X155456196Y-111010767D01*
X155456200Y-111010770D01*
X155624073Y-111122940D01*
X155624086Y-111122947D01*
X155810616Y-111200209D01*
X155810625Y-111200212D01*
X155859600Y-111209953D01*
X155859600Y-110199218D01*
X155910046Y-110249664D01*
X155984155Y-110292451D01*
X156066813Y-110314600D01*
X156152387Y-110314600D01*
X156235045Y-110292451D01*
X156309154Y-110249664D01*
X156359600Y-110199218D01*
X156359600Y-111209952D01*
X156408574Y-111200212D01*
X156408583Y-111200209D01*
X156595113Y-111122947D01*
X156595126Y-111122940D01*
X156762999Y-111010770D01*
X156763003Y-111010767D01*
X156905767Y-110868003D01*
X156905770Y-110867999D01*
X157017940Y-110700126D01*
X157017947Y-110700113D01*
X157095209Y-110513583D01*
X157095212Y-110513574D01*
X157134599Y-110315558D01*
X157134600Y-110315555D01*
X157134600Y-109939600D01*
X156434600Y-109939600D01*
X156434600Y-109439600D01*
X157134600Y-109439600D01*
X157134600Y-109433828D01*
X157141966Y-109408741D01*
X157145565Y-109382848D01*
X157151652Y-109375755D01*
X157154285Y-109366789D01*
X157174039Y-109349671D01*
X157191070Y-109329829D01*
X157200027Y-109327153D01*
X157207089Y-109321034D01*
X157232963Y-109317313D01*
X157258017Y-109309829D01*
X157269426Y-109312070D01*
X157276247Y-109311090D01*
X157292975Y-109314688D01*
X157399133Y-109345317D01*
X157424365Y-109361365D01*
X157450859Y-109375224D01*
X157453679Y-109380010D01*
X157458088Y-109382814D01*
X157468121Y-109404514D01*
X157484532Y-109432359D01*
X157489912Y-109452435D01*
X157489913Y-109452438D01*
X157559092Y-109572261D01*
X157559094Y-109572264D01*
X157559095Y-109572265D01*
X157656935Y-109670105D01*
X157656936Y-109670106D01*
X157656938Y-109670107D01*
X157696060Y-109692694D01*
X157776764Y-109739288D01*
X157910417Y-109775100D01*
X157910419Y-109775100D01*
X158048781Y-109775100D01*
X158048783Y-109775100D01*
X158182436Y-109739288D01*
X158302265Y-109670105D01*
X158302270Y-109670099D01*
X158304110Y-109668689D01*
X158305951Y-109667977D01*
X158309303Y-109666042D01*
X158309604Y-109666564D01*
X158369278Y-109643492D01*
X158437724Y-109657528D01*
X158455090Y-109668689D01*
X158456932Y-109670102D01*
X158456935Y-109670105D01*
X158576764Y-109739288D01*
X158710417Y-109775100D01*
X158710419Y-109775100D01*
X158848781Y-109775100D01*
X158848783Y-109775100D01*
X158982436Y-109739288D01*
X159102265Y-109670105D01*
X159102270Y-109670099D01*
X159104110Y-109668689D01*
X159105951Y-109667977D01*
X159109303Y-109666042D01*
X159109604Y-109666564D01*
X159169278Y-109643492D01*
X159237724Y-109657528D01*
X159255090Y-109668689D01*
X159256932Y-109670102D01*
X159256935Y-109670105D01*
X159376764Y-109739288D01*
X159510417Y-109775100D01*
X159510419Y-109775100D01*
X159648781Y-109775100D01*
X159648783Y-109775100D01*
X159782436Y-109739288D01*
X159782437Y-109739287D01*
X159790287Y-109737184D01*
X159791120Y-109740295D01*
X159845552Y-109734423D01*
X159908043Y-109765674D01*
X159930966Y-109794459D01*
X159964311Y-109852213D01*
X160048187Y-109936089D01*
X160150914Y-109995399D01*
X160265491Y-110026100D01*
X160265494Y-110026100D01*
X160384106Y-110026100D01*
X160384109Y-110026100D01*
X160498686Y-109995399D01*
X160601413Y-109936089D01*
X160685289Y-109852213D01*
X160744599Y-109749486D01*
X160744599Y-109749485D01*
X160745056Y-109748694D01*
X160795623Y-109700478D01*
X160864230Y-109687256D01*
X160914442Y-109703306D01*
X160976764Y-109739288D01*
X161110417Y-109775100D01*
X161110419Y-109775100D01*
X161248780Y-109775100D01*
X161248783Y-109775100D01*
X161382436Y-109739288D01*
X161502265Y-109670105D01*
X161528494Y-109643875D01*
X161589813Y-109610392D01*
X161659505Y-109615376D01*
X161680148Y-109626808D01*
X161680597Y-109626031D01*
X161687635Y-109630094D01*
X161687636Y-109630095D01*
X161796064Y-109692695D01*
X161916999Y-109725100D01*
X161917001Y-109725100D01*
X162042199Y-109725100D01*
X162042201Y-109725100D01*
X162163136Y-109692695D01*
X162271564Y-109630095D01*
X162291919Y-109609740D01*
X162353242Y-109576255D01*
X162422934Y-109581239D01*
X162467281Y-109609740D01*
X162487636Y-109630095D01*
X162596064Y-109692695D01*
X162716999Y-109725100D01*
X162717001Y-109725100D01*
X162842199Y-109725100D01*
X162842201Y-109725100D01*
X162963136Y-109692695D01*
X163071564Y-109630095D01*
X163160095Y-109541564D01*
X163222695Y-109433136D01*
X163222697Y-109433126D01*
X163224837Y-109427961D01*
X163227605Y-109424524D01*
X163228378Y-109420181D01*
X163249329Y-109397562D01*
X163268674Y-109373555D01*
X163273704Y-109371249D01*
X163275860Y-109368923D01*
X163294044Y-109361928D01*
X163308433Y-109355335D01*
X163469631Y-109313758D01*
X163496190Y-109314639D01*
X163522617Y-109311798D01*
X163530572Y-109315780D01*
X163539462Y-109316075D01*
X163561330Y-109331176D01*
X163585096Y-109343073D01*
X163589634Y-109350722D01*
X163596955Y-109355778D01*
X163607188Y-109380307D01*
X163620748Y-109403162D01*
X163622482Y-109416969D01*
X163623856Y-109420262D01*
X163623293Y-109423425D01*
X163624600Y-109433828D01*
X163624600Y-109439600D01*
X164324600Y-109439600D01*
X164324600Y-109939600D01*
X163624600Y-109939600D01*
X163624600Y-110315558D01*
X163663987Y-110513574D01*
X163663990Y-110513583D01*
X163741252Y-110700113D01*
X163741259Y-110700126D01*
X163853429Y-110867999D01*
X163853432Y-110868003D01*
X163996196Y-111010767D01*
X163996200Y-111010770D01*
X164164073Y-111122940D01*
X164164086Y-111122947D01*
X164350616Y-111200209D01*
X164350625Y-111200212D01*
X164399600Y-111209953D01*
X164399600Y-110199218D01*
X164450046Y-110249664D01*
X164524155Y-110292451D01*
X164606813Y-110314600D01*
X164692387Y-110314600D01*
X164775045Y-110292451D01*
X164849154Y-110249664D01*
X164899600Y-110199218D01*
X164899600Y-111209952D01*
X164948574Y-111200212D01*
X164948583Y-111200209D01*
X165135113Y-111122947D01*
X165135126Y-111122940D01*
X165302999Y-111010770D01*
X165303003Y-111010767D01*
X165445767Y-110868003D01*
X165445770Y-110867999D01*
X165557940Y-110700126D01*
X165557947Y-110700113D01*
X165635209Y-110513583D01*
X165635212Y-110513574D01*
X165674599Y-110315558D01*
X165674600Y-110315555D01*
X165674600Y-109939600D01*
X164974600Y-109939600D01*
X164974600Y-109439600D01*
X165674600Y-109439600D01*
X165674600Y-109063645D01*
X165674599Y-109063641D01*
X165635212Y-108865625D01*
X165635209Y-108865616D01*
X165557947Y-108679086D01*
X165557940Y-108679073D01*
X165445770Y-108511200D01*
X165445767Y-108511196D01*
X165303003Y-108368432D01*
X165302999Y-108368429D01*
X165135126Y-108256259D01*
X165135113Y-108256252D01*
X164948584Y-108178990D01*
X164948577Y-108178988D01*
X164899600Y-108169245D01*
X164899600Y-109179982D01*
X164849154Y-109129536D01*
X164775045Y-109086749D01*
X164692387Y-109064600D01*
X164606813Y-109064600D01*
X164524155Y-109086749D01*
X164450046Y-109129536D01*
X164399600Y-109179982D01*
X164399600Y-108169246D01*
X164399599Y-108169245D01*
X164350622Y-108178988D01*
X164350615Y-108178990D01*
X164164086Y-108256252D01*
X164164075Y-108256258D01*
X164126116Y-108281622D01*
X164059438Y-108302499D01*
X163992058Y-108284014D01*
X163945369Y-108232035D01*
X163942665Y-108225972D01*
X163914580Y-108158171D01*
X163444057Y-108628695D01*
X163382734Y-108662180D01*
X163372662Y-108661459D01*
X163404600Y-108584355D01*
X163404600Y-108494845D01*
X163370346Y-108412148D01*
X163307052Y-108348854D01*
X163224355Y-108314600D01*
X163134845Y-108314600D01*
X163060139Y-108345543D01*
X163062003Y-108319489D01*
X163090504Y-108275142D01*
X163561027Y-107804618D01*
X163420244Y-107746304D01*
X163420236Y-107746302D01*
X163260859Y-107714600D01*
X163098340Y-107714600D01*
X162938963Y-107746302D01*
X162938951Y-107746305D01*
X162827052Y-107792655D01*
X162757583Y-107800124D01*
X162732148Y-107792655D01*
X162620248Y-107746305D01*
X162620236Y-107746302D01*
X162460859Y-107714600D01*
X162298340Y-107714600D01*
X162138963Y-107746301D01*
X162138954Y-107746304D01*
X161998171Y-107804618D01*
X162468695Y-108275142D01*
X162502180Y-108336465D01*
X162501459Y-108346537D01*
X162424355Y-108314600D01*
X162334845Y-108314600D01*
X162252148Y-108348854D01*
X162188854Y-108412148D01*
X162154600Y-108494845D01*
X162154600Y-108584355D01*
X162168548Y-108618030D01*
X162129833Y-108589049D01*
X162105416Y-108523584D01*
X162105100Y-108514738D01*
X162105100Y-108470419D01*
X162105100Y-108470417D01*
X162069288Y-108336764D01*
X162008529Y-108231525D01*
X162000107Y-108216938D01*
X162000103Y-108216933D01*
X161902266Y-108119096D01*
X161902261Y-108119092D01*
X161782438Y-108049913D01*
X161782437Y-108049912D01*
X161782436Y-108049912D01*
X161648783Y-108014100D01*
X161510417Y-108014100D01*
X161376764Y-108049912D01*
X161376761Y-108049913D01*
X161256937Y-108119093D01*
X161255083Y-108120516D01*
X161253237Y-108121229D01*
X161249897Y-108123158D01*
X161249596Y-108122636D01*
X161189912Y-108145707D01*
X161121468Y-108131666D01*
X161104117Y-108120516D01*
X161102262Y-108119093D01*
X160982438Y-108049913D01*
X160982437Y-108049912D01*
X160982436Y-108049912D01*
X160848783Y-108014100D01*
X160710417Y-108014100D01*
X160576764Y-108049912D01*
X160576761Y-108049913D01*
X160456937Y-108119093D01*
X160455083Y-108120516D01*
X160453237Y-108121229D01*
X160449897Y-108123158D01*
X160449596Y-108122636D01*
X160389912Y-108145707D01*
X160321468Y-108131666D01*
X160304117Y-108120516D01*
X160302262Y-108119093D01*
X160182438Y-108049913D01*
X160182437Y-108049912D01*
X160182436Y-108049912D01*
X160048783Y-108014100D01*
X159910417Y-108014100D01*
X159776764Y-108049912D01*
X159776761Y-108049913D01*
X159656937Y-108119093D01*
X159655083Y-108120516D01*
X159653237Y-108121229D01*
X159649897Y-108123158D01*
X159649596Y-108122636D01*
X159589912Y-108145707D01*
X159521468Y-108131666D01*
X159504117Y-108120516D01*
X159502262Y-108119093D01*
X159382438Y-108049913D01*
X159382437Y-108049912D01*
X159382436Y-108049912D01*
X159248783Y-108014100D01*
X159110417Y-108014100D01*
X158976764Y-108049912D01*
X158976761Y-108049913D01*
X158856938Y-108119092D01*
X158856933Y-108119096D01*
X158759096Y-108216933D01*
X158759092Y-108216938D01*
X158689913Y-108336761D01*
X158689912Y-108336764D01*
X158654100Y-108470417D01*
X158654100Y-108514738D01*
X158634415Y-108581777D01*
X158589573Y-108620632D01*
X158604600Y-108584355D01*
X158604600Y-108494845D01*
X158570346Y-108412148D01*
X158507052Y-108348854D01*
X158424355Y-108314600D01*
X158334845Y-108314600D01*
X158260139Y-108345543D01*
X158262003Y-108319489D01*
X158290504Y-108275142D01*
X158761027Y-107804618D01*
X158620244Y-107746304D01*
X158620236Y-107746302D01*
X158460859Y-107714600D01*
X158298340Y-107714600D01*
X158138963Y-107746302D01*
X158138951Y-107746305D01*
X158027052Y-107792655D01*
X157957583Y-107800124D01*
X157932148Y-107792655D01*
X157820248Y-107746305D01*
X157820236Y-107746302D01*
X157660859Y-107714600D01*
X157498340Y-107714600D01*
X157338963Y-107746301D01*
X157338954Y-107746304D01*
X157198171Y-107804618D01*
X157668695Y-108275142D01*
X157702180Y-108336465D01*
X157701459Y-108346537D01*
X157624355Y-108314600D01*
X157534845Y-108314600D01*
X157452148Y-108348854D01*
X157388854Y-108412148D01*
X157354600Y-108494845D01*
X157354600Y-108584355D01*
X157385543Y-108659059D01*
X157359489Y-108657196D01*
X157315142Y-108628695D01*
X156844618Y-108158171D01*
X156816534Y-108225972D01*
X156772693Y-108280375D01*
X156706399Y-108302440D01*
X156638699Y-108285161D01*
X156633082Y-108281621D01*
X156595126Y-108256259D01*
X156595113Y-108256252D01*
X156408584Y-108178990D01*
X156408577Y-108178988D01*
X156359600Y-108169245D01*
X156359600Y-109179982D01*
X156309154Y-109129536D01*
X156235045Y-109086749D01*
X156152387Y-109064600D01*
X156066813Y-109064600D01*
X155984155Y-109086749D01*
X155910046Y-109129536D01*
X155859600Y-109179982D01*
X155859600Y-108169246D01*
X155859599Y-108169245D01*
X155810622Y-108178988D01*
X155810615Y-108178990D01*
X155624086Y-108256252D01*
X155624073Y-108256259D01*
X155456200Y-108368429D01*
X155456196Y-108368432D01*
X155313432Y-108511196D01*
X155313429Y-108511200D01*
X155201259Y-108679073D01*
X155201252Y-108679086D01*
X155123990Y-108865616D01*
X155123987Y-108865625D01*
X155084600Y-109063641D01*
X123865523Y-109063641D01*
X123863236Y-108278340D01*
X123861362Y-107634791D01*
X131527900Y-107634791D01*
X131527900Y-107753409D01*
X131558601Y-107867986D01*
X131617911Y-107970713D01*
X131701787Y-108054589D01*
X131804514Y-108113899D01*
X131919091Y-108144600D01*
X131919094Y-108144600D01*
X132037707Y-108144600D01*
X132037709Y-108144600D01*
X132105359Y-108126473D01*
X132175207Y-108128135D01*
X132233070Y-108167296D01*
X132260575Y-108231525D01*
X132257227Y-108278340D01*
X132250754Y-108302499D01*
X132239100Y-108345991D01*
X132239100Y-108464609D01*
X132269801Y-108579186D01*
X132329111Y-108681913D01*
X132412987Y-108765789D01*
X132515714Y-108825099D01*
X132630291Y-108855800D01*
X132630294Y-108855800D01*
X132748906Y-108855800D01*
X132748909Y-108855800D01*
X132863486Y-108825099D01*
X132966213Y-108765789D01*
X133050089Y-108681913D01*
X133109399Y-108579186D01*
X133140100Y-108464609D01*
X133140100Y-108345991D01*
X133109399Y-108231414D01*
X133050089Y-108128687D01*
X132966213Y-108044811D01*
X132863486Y-107985501D01*
X132748909Y-107954800D01*
X132630291Y-107954800D01*
X132562640Y-107972927D01*
X132492790Y-107971264D01*
X132434928Y-107932101D01*
X132407424Y-107867873D01*
X132410772Y-107821060D01*
X132428900Y-107753409D01*
X132428900Y-107634791D01*
X132408098Y-107557157D01*
X132408098Y-107557155D01*
X132401676Y-107533191D01*
X133204300Y-107533191D01*
X133204300Y-107651809D01*
X133235001Y-107766386D01*
X133294311Y-107869113D01*
X133378187Y-107952989D01*
X133480914Y-108012299D01*
X133595491Y-108043000D01*
X133595494Y-108043000D01*
X133714106Y-108043000D01*
X133714109Y-108043000D01*
X133828686Y-108012299D01*
X133931413Y-107952989D01*
X134015289Y-107869113D01*
X134074599Y-107766386D01*
X134105300Y-107651809D01*
X134105300Y-107533191D01*
X134074599Y-107418614D01*
X134015289Y-107315887D01*
X133931413Y-107232011D01*
X133828686Y-107172701D01*
X133714109Y-107142000D01*
X133595491Y-107142000D01*
X133480914Y-107172701D01*
X133480912Y-107172701D01*
X133480912Y-107172702D01*
X133378187Y-107232011D01*
X133378184Y-107232013D01*
X133294313Y-107315884D01*
X133294311Y-107315887D01*
X133235001Y-107418614D01*
X133204300Y-107533191D01*
X132401676Y-107533191D01*
X132398199Y-107520215D01*
X132398199Y-107520214D01*
X132398198Y-107520212D01*
X132338889Y-107417487D01*
X132255013Y-107333611D01*
X132152286Y-107274301D01*
X132037709Y-107243600D01*
X131919091Y-107243600D01*
X131804514Y-107274301D01*
X131804512Y-107274301D01*
X131804512Y-107274302D01*
X131701787Y-107333611D01*
X131701784Y-107333613D01*
X131617913Y-107417484D01*
X131617911Y-107417487D01*
X131558601Y-107520214D01*
X131527900Y-107634791D01*
X123861362Y-107634791D01*
X123861339Y-107627025D01*
X123856392Y-105928308D01*
X158071700Y-105928308D01*
X158071700Y-106060092D01*
X158088754Y-106123739D01*
X158105808Y-106187387D01*
X158138754Y-106244450D01*
X158171700Y-106301514D01*
X158264886Y-106394700D01*
X158379014Y-106460592D01*
X158506308Y-106494700D01*
X158506310Y-106494700D01*
X158638090Y-106494700D01*
X158638092Y-106494700D01*
X158765386Y-106460592D01*
X158851441Y-106410908D01*
X169425500Y-106410908D01*
X169425500Y-106542691D01*
X169459608Y-106669987D01*
X169492554Y-106727050D01*
X169525500Y-106784114D01*
X169618686Y-106877300D01*
X169732814Y-106943192D01*
X169860108Y-106977300D01*
X169860110Y-106977300D01*
X169991890Y-106977300D01*
X169991892Y-106977300D01*
X170119186Y-106943192D01*
X170233314Y-106877300D01*
X170326500Y-106784114D01*
X170392392Y-106669986D01*
X170426500Y-106542692D01*
X170426500Y-106410908D01*
X170392392Y-106283614D01*
X170326500Y-106169486D01*
X170233314Y-106076300D01*
X170176250Y-106043354D01*
X170119187Y-106010408D01*
X170055539Y-105993354D01*
X169991892Y-105976300D01*
X169860108Y-105976300D01*
X169732812Y-106010408D01*
X169618686Y-106076300D01*
X169618683Y-106076302D01*
X169525502Y-106169483D01*
X169525500Y-106169486D01*
X169459608Y-106283612D01*
X169425500Y-106410908D01*
X158851441Y-106410908D01*
X158879514Y-106394700D01*
X158972700Y-106301514D01*
X159038592Y-106187386D01*
X159072700Y-106060092D01*
X159072700Y-105928308D01*
X159038592Y-105801014D01*
X158972700Y-105686886D01*
X158879514Y-105593700D01*
X158822450Y-105560754D01*
X158765387Y-105527808D01*
X158701739Y-105510754D01*
X158638092Y-105493700D01*
X158506308Y-105493700D01*
X158379012Y-105527808D01*
X158264886Y-105593700D01*
X158264883Y-105593702D01*
X158171702Y-105686883D01*
X158171700Y-105686886D01*
X158105808Y-105801012D01*
X158073781Y-105920542D01*
X158071700Y-105928308D01*
X123856392Y-105928308D01*
X123856369Y-105920542D01*
X123852915Y-104734508D01*
X161551500Y-104734508D01*
X161551500Y-104866291D01*
X161585608Y-104993587D01*
X161618554Y-105050650D01*
X161651500Y-105107714D01*
X161744686Y-105200900D01*
X161858814Y-105266792D01*
X161986108Y-105300900D01*
X161986110Y-105300900D01*
X162117890Y-105300900D01*
X162117892Y-105300900D01*
X162245186Y-105266792D01*
X162359314Y-105200900D01*
X162452500Y-105107714D01*
X162518392Y-104993586D01*
X162552500Y-104866292D01*
X162552500Y-104734508D01*
X162518392Y-104607214D01*
X162452500Y-104493086D01*
X162359314Y-104399900D01*
X162302250Y-104366954D01*
X162245187Y-104334008D01*
X162181539Y-104316954D01*
X162117892Y-104299900D01*
X161986108Y-104299900D01*
X161858812Y-104334008D01*
X161744686Y-104399900D01*
X161744683Y-104399902D01*
X161651502Y-104493083D01*
X161651500Y-104493086D01*
X161585608Y-104607212D01*
X161551500Y-104734508D01*
X123852915Y-104734508D01*
X123852892Y-104726742D01*
X123850843Y-104023308D01*
X157589100Y-104023308D01*
X157589100Y-104155092D01*
X157594624Y-104175708D01*
X157623208Y-104282387D01*
X157637702Y-104307490D01*
X157689100Y-104396514D01*
X157782286Y-104489700D01*
X157896414Y-104555592D01*
X158023708Y-104589700D01*
X158023710Y-104589700D01*
X158155490Y-104589700D01*
X158155492Y-104589700D01*
X158282786Y-104555592D01*
X158396914Y-104489700D01*
X158490100Y-104396514D01*
X158555992Y-104282386D01*
X158584576Y-104175708D01*
X176893100Y-104175708D01*
X176893100Y-104307491D01*
X176927208Y-104434787D01*
X176928659Y-104437300D01*
X176993100Y-104548914D01*
X177086286Y-104642100D01*
X177200414Y-104707992D01*
X177327708Y-104742100D01*
X177327710Y-104742100D01*
X177459490Y-104742100D01*
X177459492Y-104742100D01*
X177586786Y-104707992D01*
X177700914Y-104642100D01*
X177794100Y-104548914D01*
X177859992Y-104434786D01*
X177894100Y-104307492D01*
X177894100Y-104175708D01*
X177888825Y-104156021D01*
X177890486Y-104086176D01*
X177929647Y-104028312D01*
X177993875Y-104000806D01*
X178040688Y-104004153D01*
X178140508Y-104030900D01*
X178140510Y-104030900D01*
X178272290Y-104030900D01*
X178272292Y-104030900D01*
X178399586Y-103996792D01*
X178513714Y-103930900D01*
X178573706Y-103870908D01*
X183039900Y-103870908D01*
X183039900Y-104002691D01*
X183074008Y-104129987D01*
X183088502Y-104155090D01*
X183139900Y-104244114D01*
X183233086Y-104337300D01*
X183331921Y-104394363D01*
X183341515Y-104399902D01*
X183347214Y-104403192D01*
X183474508Y-104437300D01*
X183474510Y-104437300D01*
X183606290Y-104437300D01*
X183606292Y-104437300D01*
X183733586Y-104403192D01*
X183847714Y-104337300D01*
X183940900Y-104244114D01*
X184006792Y-104129986D01*
X184040900Y-104002692D01*
X184040900Y-103870908D01*
X184006792Y-103743614D01*
X183940900Y-103629486D01*
X183847714Y-103536300D01*
X183790650Y-103503354D01*
X183733587Y-103470408D01*
X183669939Y-103453354D01*
X183606292Y-103436300D01*
X183474508Y-103436300D01*
X183347212Y-103470408D01*
X183233086Y-103536300D01*
X183233083Y-103536302D01*
X183139902Y-103629483D01*
X183139900Y-103629486D01*
X183074008Y-103743612D01*
X183039900Y-103870908D01*
X178573706Y-103870908D01*
X178606900Y-103837714D01*
X178607684Y-103836354D01*
X178628225Y-103800780D01*
X178672790Y-103723589D01*
X178672792Y-103723586D01*
X178706900Y-103596292D01*
X178706900Y-103464508D01*
X178672792Y-103337214D01*
X178606900Y-103223086D01*
X178513714Y-103129900D01*
X178456650Y-103096954D01*
X178399587Y-103064008D01*
X178335939Y-103046954D01*
X178272292Y-103029900D01*
X178140508Y-103029900D01*
X178013212Y-103064008D01*
X177899086Y-103129900D01*
X177899083Y-103129902D01*
X177805902Y-103223083D01*
X177805900Y-103223086D01*
X177740008Y-103337212D01*
X177713458Y-103436300D01*
X177705900Y-103464508D01*
X177705900Y-103596292D01*
X177711174Y-103615978D01*
X177709512Y-103685826D01*
X177670350Y-103743689D01*
X177606121Y-103771193D01*
X177559307Y-103767845D01*
X177468874Y-103743614D01*
X177459492Y-103741100D01*
X177327708Y-103741100D01*
X177200412Y-103775208D01*
X177086286Y-103841100D01*
X177086283Y-103841102D01*
X176993102Y-103934283D01*
X176993100Y-103934286D01*
X176927208Y-104048412D01*
X176893100Y-104175708D01*
X158584576Y-104175708D01*
X158590100Y-104155092D01*
X158590100Y-104023308D01*
X158555992Y-103896014D01*
X158490100Y-103781886D01*
X158396914Y-103688700D01*
X158294353Y-103629486D01*
X158282787Y-103622808D01*
X158219139Y-103605754D01*
X158155492Y-103588700D01*
X158023708Y-103588700D01*
X157896412Y-103622808D01*
X157782286Y-103688700D01*
X157782283Y-103688702D01*
X157689102Y-103781883D01*
X157689100Y-103781886D01*
X157623208Y-103896012D01*
X157594624Y-104002691D01*
X157589100Y-104023308D01*
X123850843Y-104023308D01*
X123850820Y-104015542D01*
X123842429Y-101134291D01*
X145193100Y-101134291D01*
X145193100Y-101252909D01*
X145223801Y-101367486D01*
X145283111Y-101470213D01*
X145366987Y-101554089D01*
X145469714Y-101613399D01*
X145584291Y-101644100D01*
X145584294Y-101644100D01*
X145702906Y-101644100D01*
X145702909Y-101644100D01*
X145817486Y-101613399D01*
X145920213Y-101554089D01*
X146004089Y-101470213D01*
X146063399Y-101367486D01*
X146094100Y-101252909D01*
X146094100Y-101185091D01*
X146767900Y-101185091D01*
X146767900Y-101303709D01*
X146798601Y-101418286D01*
X146857911Y-101521013D01*
X146941787Y-101604889D01*
X147044514Y-101664199D01*
X147159091Y-101694900D01*
X147159094Y-101694900D01*
X147277706Y-101694900D01*
X147277709Y-101694900D01*
X147392286Y-101664199D01*
X147495013Y-101604889D01*
X147578889Y-101521013D01*
X147638199Y-101418286D01*
X147668900Y-101303709D01*
X147668900Y-101185091D01*
X148139500Y-101185091D01*
X148139500Y-101303709D01*
X148170201Y-101418286D01*
X148229511Y-101521013D01*
X148313387Y-101604889D01*
X148416114Y-101664199D01*
X148530691Y-101694900D01*
X148530694Y-101694900D01*
X148649306Y-101694900D01*
X148649309Y-101694900D01*
X148763886Y-101664199D01*
X148866613Y-101604889D01*
X148886594Y-101584908D01*
X178315500Y-101584908D01*
X178315500Y-101716691D01*
X178349608Y-101843987D01*
X178382554Y-101901050D01*
X178415500Y-101958114D01*
X178508686Y-102051300D01*
X178622814Y-102117192D01*
X178750108Y-102151300D01*
X178750110Y-102151300D01*
X178881890Y-102151300D01*
X178881892Y-102151300D01*
X179009186Y-102117192D01*
X179123314Y-102051300D01*
X179216500Y-101958114D01*
X179282392Y-101843986D01*
X179316500Y-101716692D01*
X179316500Y-101584908D01*
X179282392Y-101457614D01*
X179216500Y-101343486D01*
X179123314Y-101250300D01*
X179066250Y-101217354D01*
X179009187Y-101184408D01*
X178945539Y-101167354D01*
X178881892Y-101150300D01*
X178750108Y-101150300D01*
X178622812Y-101184408D01*
X178508686Y-101250300D01*
X178508683Y-101250302D01*
X178415502Y-101343483D01*
X178415500Y-101343486D01*
X178349608Y-101457612D01*
X178315500Y-101584908D01*
X148886594Y-101584908D01*
X148950489Y-101521013D01*
X149009799Y-101418286D01*
X149040500Y-101303709D01*
X149040500Y-101185091D01*
X149009799Y-101070514D01*
X148950489Y-100967787D01*
X148866613Y-100883911D01*
X148763886Y-100824601D01*
X148649309Y-100793900D01*
X148530691Y-100793900D01*
X148416114Y-100824601D01*
X148416112Y-100824601D01*
X148416112Y-100824602D01*
X148313387Y-100883911D01*
X148313384Y-100883913D01*
X148229513Y-100967784D01*
X148229511Y-100967787D01*
X148170201Y-101070514D01*
X148139500Y-101185091D01*
X147668900Y-101185091D01*
X147638199Y-101070514D01*
X147578889Y-100967787D01*
X147495013Y-100883911D01*
X147392286Y-100824601D01*
X147277709Y-100793900D01*
X147159091Y-100793900D01*
X147044514Y-100824601D01*
X147044512Y-100824601D01*
X147044512Y-100824602D01*
X146941787Y-100883911D01*
X146941784Y-100883913D01*
X146857913Y-100967784D01*
X146857911Y-100967787D01*
X146798601Y-101070514D01*
X146767900Y-101185091D01*
X146094100Y-101185091D01*
X146094100Y-101134291D01*
X146063399Y-101019714D01*
X146004089Y-100916987D01*
X145920213Y-100833111D01*
X145817486Y-100773801D01*
X145702909Y-100743100D01*
X145584291Y-100743100D01*
X145469714Y-100773801D01*
X145469712Y-100773801D01*
X145469712Y-100773802D01*
X145366987Y-100833111D01*
X145366984Y-100833113D01*
X145283113Y-100916984D01*
X145283111Y-100916987D01*
X145223801Y-101019714D01*
X145193100Y-101134291D01*
X123842429Y-101134291D01*
X123842406Y-101126525D01*
X123839894Y-100264108D01*
X162415100Y-100264108D01*
X162415100Y-100395891D01*
X162449208Y-100523187D01*
X162479988Y-100576499D01*
X162515100Y-100637314D01*
X162608286Y-100730500D01*
X162722414Y-100796392D01*
X162849708Y-100830500D01*
X162849710Y-100830500D01*
X162981490Y-100830500D01*
X162981492Y-100830500D01*
X163108786Y-100796392D01*
X163222914Y-100730500D01*
X163316100Y-100637314D01*
X163381992Y-100523186D01*
X163416100Y-100395892D01*
X163416100Y-100264108D01*
X163381992Y-100136814D01*
X163316100Y-100022686D01*
X163303522Y-100010108D01*
X212249900Y-100010108D01*
X212249900Y-100141891D01*
X212284008Y-100269187D01*
X212316954Y-100326250D01*
X212349900Y-100383314D01*
X212443086Y-100476500D01*
X212557214Y-100542392D01*
X212684508Y-100576500D01*
X212684510Y-100576500D01*
X212816290Y-100576500D01*
X212816292Y-100576500D01*
X212943586Y-100542392D01*
X213057714Y-100476500D01*
X213150900Y-100383314D01*
X213216792Y-100269186D01*
X213250900Y-100141892D01*
X213250900Y-100111708D01*
X214535900Y-100111708D01*
X214535900Y-100243491D01*
X214570008Y-100370787D01*
X214577240Y-100383313D01*
X214635900Y-100484914D01*
X214729086Y-100578100D01*
X214843214Y-100643992D01*
X214970508Y-100678100D01*
X214970510Y-100678100D01*
X215102290Y-100678100D01*
X215102292Y-100678100D01*
X215229586Y-100643992D01*
X215343714Y-100578100D01*
X215436900Y-100484914D01*
X215502792Y-100370786D01*
X215536900Y-100243492D01*
X215536900Y-100111708D01*
X215502792Y-99984414D01*
X215436900Y-99870286D01*
X215343714Y-99777100D01*
X215286650Y-99744154D01*
X215229587Y-99711208D01*
X215165939Y-99694154D01*
X215102292Y-99677100D01*
X214970508Y-99677100D01*
X214843212Y-99711208D01*
X214729086Y-99777100D01*
X214729083Y-99777102D01*
X214635902Y-99870283D01*
X214635900Y-99870286D01*
X214570008Y-99984412D01*
X214535900Y-100111708D01*
X213250900Y-100111708D01*
X213250900Y-100010108D01*
X213216792Y-99882814D01*
X213150900Y-99768686D01*
X213057714Y-99675500D01*
X213000650Y-99642554D01*
X212943587Y-99609608D01*
X212879939Y-99592554D01*
X212816292Y-99575500D01*
X212684508Y-99575500D01*
X212557212Y-99609608D01*
X212443086Y-99675500D01*
X212443083Y-99675502D01*
X212349902Y-99768683D01*
X212349900Y-99768686D01*
X212284008Y-99882812D01*
X212249900Y-100010108D01*
X163303522Y-100010108D01*
X163222914Y-99929500D01*
X163142052Y-99882814D01*
X163108787Y-99863608D01*
X163045139Y-99846554D01*
X162981492Y-99829500D01*
X162849708Y-99829500D01*
X162722412Y-99863608D01*
X162608286Y-99929500D01*
X162608283Y-99929502D01*
X162515102Y-100022683D01*
X162515100Y-100022686D01*
X162449208Y-100136812D01*
X162415100Y-100264108D01*
X123839894Y-100264108D01*
X123839871Y-100256342D01*
X123833532Y-98079708D01*
X131376300Y-98079708D01*
X131376300Y-98211492D01*
X131378244Y-98218746D01*
X131410408Y-98338787D01*
X131443354Y-98395850D01*
X131476300Y-98452914D01*
X131569486Y-98546100D01*
X131683614Y-98611992D01*
X131810908Y-98646100D01*
X131810910Y-98646100D01*
X131942690Y-98646100D01*
X131942692Y-98646100D01*
X132069986Y-98611992D01*
X132184114Y-98546100D01*
X132277300Y-98452914D01*
X132343192Y-98338786D01*
X132377300Y-98211492D01*
X132377300Y-98079708D01*
X132343192Y-97952414D01*
X132277300Y-97838286D01*
X132184114Y-97745100D01*
X132126006Y-97711551D01*
X132069987Y-97679208D01*
X132000356Y-97660551D01*
X131942692Y-97645100D01*
X131810908Y-97645100D01*
X131683612Y-97679208D01*
X131569486Y-97745100D01*
X131569483Y-97745102D01*
X131476302Y-97838283D01*
X131476300Y-97838286D01*
X131410408Y-97952412D01*
X131407794Y-97962168D01*
X131376300Y-98079708D01*
X123833532Y-98079708D01*
X123833509Y-98071942D01*
X123831183Y-97273378D01*
X146427500Y-97273378D01*
X146427500Y-97493822D01*
X146440706Y-97577200D01*
X146461985Y-97711552D01*
X146530103Y-97921203D01*
X146530104Y-97921206D01*
X146630187Y-98117625D01*
X146759752Y-98295958D01*
X146759756Y-98295963D01*
X146915636Y-98451843D01*
X146915641Y-98451847D01*
X147045367Y-98546097D01*
X147093978Y-98581415D01*
X147220926Y-98646099D01*
X147290393Y-98681495D01*
X147290396Y-98681496D01*
X147395221Y-98715555D01*
X147500049Y-98749615D01*
X147717778Y-98784100D01*
X147717779Y-98784100D01*
X147938221Y-98784100D01*
X147938222Y-98784100D01*
X148155951Y-98749615D01*
X148365606Y-98681495D01*
X148539197Y-98593045D01*
X159454506Y-98593045D01*
X159583452Y-98646457D01*
X159583456Y-98646458D01*
X159738002Y-98677199D01*
X159738006Y-98677200D01*
X159895594Y-98677200D01*
X159895597Y-98677199D01*
X160050143Y-98646458D01*
X160050147Y-98646457D01*
X160179093Y-98593045D01*
X159816801Y-98230753D01*
X159816800Y-98230753D01*
X159454506Y-98593045D01*
X148539197Y-98593045D01*
X148562022Y-98581415D01*
X148632574Y-98530156D01*
X148740269Y-98451913D01*
X148740269Y-98451912D01*
X148740356Y-98451849D01*
X148740359Y-98451845D01*
X148740365Y-98451842D01*
X148896242Y-98295965D01*
X149007344Y-98143045D01*
X159004505Y-98143045D01*
X159004505Y-98143046D01*
X159025252Y-98151640D01*
X159079655Y-98195481D01*
X159092358Y-98218745D01*
X159100952Y-98239493D01*
X159100953Y-98239493D01*
X159552342Y-97788104D01*
X159613665Y-97754619D01*
X159683356Y-97759603D01*
X159707042Y-97774825D01*
X159689636Y-97792232D01*
X159666800Y-97847363D01*
X159666800Y-97907037D01*
X159689636Y-97962168D01*
X159731832Y-98004364D01*
X159786963Y-98027200D01*
X159846637Y-98027200D01*
X159901768Y-98004364D01*
X159943964Y-97962168D01*
X159966800Y-97907037D01*
X159966800Y-97847363D01*
X159943964Y-97792232D01*
X159927848Y-97776116D01*
X159967217Y-97754619D01*
X160036909Y-97759603D01*
X160081257Y-97788104D01*
X160532645Y-98239493D01*
X160541239Y-98218746D01*
X160585081Y-98164343D01*
X160608346Y-98151639D01*
X160629093Y-98143045D01*
X160177704Y-97691657D01*
X160144219Y-97630334D01*
X160149203Y-97560643D01*
X160164424Y-97536956D01*
X160181832Y-97554364D01*
X160236963Y-97577200D01*
X160296637Y-97577200D01*
X160351768Y-97554364D01*
X160393964Y-97512168D01*
X160416800Y-97457037D01*
X160416800Y-97427199D01*
X160620353Y-97427199D01*
X160620353Y-97427201D01*
X160982645Y-97789493D01*
X161036057Y-97660547D01*
X161036058Y-97660543D01*
X161066799Y-97505997D01*
X161066800Y-97505994D01*
X161066800Y-97425891D01*
X184969500Y-97425891D01*
X184969500Y-97544509D01*
X185000201Y-97659086D01*
X185059511Y-97761813D01*
X185143387Y-97845689D01*
X185246114Y-97904999D01*
X185360691Y-97935700D01*
X185360694Y-97935700D01*
X185479306Y-97935700D01*
X185479309Y-97935700D01*
X185593886Y-97904999D01*
X185696613Y-97845689D01*
X185780489Y-97761813D01*
X185839799Y-97659086D01*
X185870500Y-97544509D01*
X185870500Y-97425891D01*
X185839799Y-97311314D01*
X185780489Y-97208587D01*
X185696613Y-97124711D01*
X185593886Y-97065401D01*
X185479309Y-97034700D01*
X185360691Y-97034700D01*
X185246114Y-97065401D01*
X185246112Y-97065401D01*
X185246112Y-97065402D01*
X185143387Y-97124711D01*
X185143384Y-97124713D01*
X185059513Y-97208584D01*
X185059511Y-97208587D01*
X185022104Y-97273378D01*
X185000201Y-97311314D01*
X184969500Y-97425891D01*
X161066800Y-97425891D01*
X161066800Y-97348406D01*
X161066799Y-97348402D01*
X161036058Y-97193856D01*
X161036057Y-97193852D01*
X160982645Y-97064906D01*
X160620353Y-97427199D01*
X160416800Y-97427199D01*
X160416800Y-97397363D01*
X160393964Y-97342232D01*
X160351768Y-97300036D01*
X160296637Y-97277200D01*
X160236963Y-97277200D01*
X160181832Y-97300036D01*
X160165716Y-97316151D01*
X160144219Y-97276781D01*
X160149203Y-97207089D01*
X160177704Y-97162742D01*
X160629093Y-96711353D01*
X160629093Y-96711352D01*
X160608345Y-96702758D01*
X160581002Y-96687098D01*
X160512363Y-96635187D01*
X160081257Y-97066295D01*
X160019934Y-97099780D01*
X159950243Y-97094796D01*
X159926557Y-97079574D01*
X159943964Y-97062168D01*
X159966800Y-97007037D01*
X159966800Y-96947363D01*
X159943964Y-96892232D01*
X159901768Y-96850036D01*
X159846637Y-96827200D01*
X159786963Y-96827200D01*
X159731832Y-96850036D01*
X159689636Y-96892232D01*
X159666800Y-96947363D01*
X159666800Y-97007037D01*
X159689636Y-97062168D01*
X159705751Y-97078283D01*
X159666381Y-97099781D01*
X159596689Y-97094797D01*
X159552342Y-97066296D01*
X159100951Y-96614905D01*
X159092359Y-96635650D01*
X159081399Y-96656336D01*
X159029064Y-96735910D01*
X159455896Y-97162742D01*
X159489381Y-97224065D01*
X159484397Y-97293757D01*
X159469174Y-97317442D01*
X159451768Y-97300036D01*
X159396637Y-97277200D01*
X159336963Y-97277200D01*
X159281832Y-97300036D01*
X159239636Y-97342232D01*
X159216800Y-97397363D01*
X159216800Y-97457037D01*
X159239636Y-97512168D01*
X159281832Y-97554364D01*
X159336963Y-97577200D01*
X159396637Y-97577200D01*
X159451768Y-97554364D01*
X159467882Y-97538249D01*
X159489380Y-97577618D01*
X159484396Y-97647310D01*
X159455895Y-97691657D01*
X159004505Y-98143045D01*
X149007344Y-98143045D01*
X149025815Y-98117622D01*
X149125895Y-97921206D01*
X149194015Y-97711551D01*
X149228500Y-97493822D01*
X149228500Y-97348402D01*
X158566800Y-97348402D01*
X158566800Y-97505997D01*
X158597541Y-97660543D01*
X158597543Y-97660551D01*
X158650953Y-97789493D01*
X159013246Y-97427200D01*
X159013246Y-97427199D01*
X158650953Y-97064905D01*
X158597543Y-97193848D01*
X158597541Y-97193856D01*
X158566800Y-97348402D01*
X149228500Y-97348402D01*
X149228500Y-97273378D01*
X149194015Y-97055649D01*
X149155118Y-96935934D01*
X149125896Y-96845996D01*
X149125895Y-96845993D01*
X149106771Y-96808461D01*
X149106770Y-96808457D01*
X149025816Y-96649579D01*
X149025815Y-96649578D01*
X148896247Y-96471241D01*
X148896243Y-96471236D01*
X148740363Y-96315356D01*
X148740358Y-96315352D01*
X148666034Y-96261353D01*
X159454505Y-96261353D01*
X159816800Y-96623646D01*
X159816801Y-96623646D01*
X159948232Y-96492215D01*
X189969500Y-96492215D01*
X189969500Y-96644984D01*
X189999300Y-96794797D01*
X189999302Y-96794805D01*
X190057759Y-96935934D01*
X190057764Y-96935943D01*
X190142629Y-97062951D01*
X190142632Y-97062955D01*
X190250644Y-97170967D01*
X190250648Y-97170970D01*
X190377656Y-97255835D01*
X190377662Y-97255838D01*
X190377663Y-97255839D01*
X190518795Y-97314298D01*
X190638476Y-97338104D01*
X190668615Y-97344099D01*
X190668619Y-97344100D01*
X190668620Y-97344100D01*
X190821381Y-97344100D01*
X190821382Y-97344099D01*
X190971205Y-97314298D01*
X191112337Y-97255839D01*
X191239352Y-97170970D01*
X191347370Y-97062952D01*
X191432239Y-96935937D01*
X191490698Y-96794805D01*
X191520500Y-96644980D01*
X191520500Y-96492220D01*
X191519202Y-96485694D01*
X191519202Y-96485691D01*
X191515602Y-96467592D01*
X210719500Y-96467592D01*
X210719500Y-96669607D01*
X210758907Y-96867719D01*
X210758909Y-96867727D01*
X210836212Y-97054352D01*
X210836217Y-97054362D01*
X210948441Y-97222318D01*
X211091281Y-97365158D01*
X211259237Y-97477382D01*
X211259241Y-97477384D01*
X211259244Y-97477386D01*
X211445873Y-97554691D01*
X211643992Y-97594099D01*
X211643996Y-97594100D01*
X211643997Y-97594100D01*
X211846004Y-97594100D01*
X211846005Y-97594099D01*
X212044127Y-97554691D01*
X212230756Y-97477386D01*
X212398718Y-97365158D01*
X212541558Y-97222318D01*
X212653786Y-97054356D01*
X212731091Y-96867727D01*
X212770500Y-96669603D01*
X212770500Y-96467597D01*
X212731091Y-96269473D01*
X212653786Y-96082844D01*
X212653784Y-96082841D01*
X212653782Y-96082837D01*
X212541558Y-95914881D01*
X212398718Y-95772041D01*
X212230762Y-95659817D01*
X212230752Y-95659812D01*
X212044127Y-95582509D01*
X212044119Y-95582507D01*
X211846007Y-95543100D01*
X211846003Y-95543100D01*
X211643997Y-95543100D01*
X211643992Y-95543100D01*
X211445880Y-95582507D01*
X211445872Y-95582509D01*
X211259247Y-95659812D01*
X211259237Y-95659817D01*
X211091281Y-95772041D01*
X210948441Y-95914881D01*
X210836217Y-96082837D01*
X210836212Y-96082847D01*
X210758909Y-96269472D01*
X210758907Y-96269480D01*
X210719500Y-96467592D01*
X191515602Y-96467592D01*
X191490699Y-96342402D01*
X191490698Y-96342395D01*
X191432239Y-96201263D01*
X191432238Y-96201262D01*
X191432235Y-96201256D01*
X191347370Y-96074248D01*
X191347367Y-96074244D01*
X191239355Y-95966232D01*
X191239351Y-95966229D01*
X191112343Y-95881364D01*
X191112334Y-95881359D01*
X190971205Y-95822902D01*
X190971197Y-95822900D01*
X190821384Y-95793100D01*
X190821380Y-95793100D01*
X190668620Y-95793100D01*
X190668615Y-95793100D01*
X190518802Y-95822900D01*
X190518794Y-95822902D01*
X190377665Y-95881359D01*
X190377656Y-95881364D01*
X190250648Y-95966229D01*
X190250644Y-95966232D01*
X190142632Y-96074244D01*
X190142629Y-96074248D01*
X190057764Y-96201256D01*
X190057759Y-96201265D01*
X189999302Y-96342394D01*
X189999300Y-96342402D01*
X189969500Y-96492215D01*
X159948232Y-96492215D01*
X160179093Y-96261353D01*
X160050151Y-96207943D01*
X160050143Y-96207941D01*
X159895597Y-96177200D01*
X159738002Y-96177200D01*
X159583456Y-96207941D01*
X159583448Y-96207943D01*
X159454505Y-96261353D01*
X148666034Y-96261353D01*
X148562025Y-96185787D01*
X148562024Y-96185786D01*
X148562022Y-96185785D01*
X148499096Y-96153722D01*
X148365606Y-96085704D01*
X148365603Y-96085703D01*
X148155952Y-96017585D01*
X148047086Y-96000342D01*
X147938222Y-95983100D01*
X147717778Y-95983100D01*
X147645201Y-95994595D01*
X147500047Y-96017585D01*
X147290396Y-96085703D01*
X147290393Y-96085704D01*
X147093974Y-96185787D01*
X146915641Y-96315352D01*
X146915636Y-96315356D01*
X146759756Y-96471236D01*
X146759752Y-96471241D01*
X146630187Y-96649574D01*
X146530104Y-96845993D01*
X146530103Y-96845996D01*
X146461985Y-97055647D01*
X146451046Y-97124713D01*
X146427500Y-97273378D01*
X123831183Y-97273378D01*
X123831170Y-97268867D01*
X123814446Y-91527137D01*
X125701900Y-91527137D01*
X125701900Y-91755462D01*
X125737615Y-91980960D01*
X125808170Y-92198103D01*
X125856824Y-92293591D01*
X125911821Y-92401528D01*
X126046021Y-92586237D01*
X126207463Y-92747679D01*
X126392172Y-92881879D01*
X126469350Y-92921203D01*
X126595596Y-92985529D01*
X126595598Y-92985529D01*
X126595601Y-92985531D01*
X126711992Y-93023349D01*
X126812739Y-93056084D01*
X127038238Y-93091800D01*
X127038243Y-93091800D01*
X127266562Y-93091800D01*
X127492060Y-93056084D01*
X127709199Y-92985531D01*
X127912628Y-92881879D01*
X128097337Y-92747679D01*
X128258779Y-92586237D01*
X128392979Y-92401528D01*
X128458275Y-92273378D01*
X146427500Y-92273378D01*
X146427500Y-92493821D01*
X146461985Y-92711552D01*
X146530103Y-92921203D01*
X146530104Y-92921206D01*
X146598122Y-93054696D01*
X146598829Y-93056084D01*
X146630187Y-93117625D01*
X146759752Y-93295958D01*
X146759756Y-93295963D01*
X146915636Y-93451843D01*
X146915641Y-93451847D01*
X147071192Y-93564860D01*
X147093978Y-93581415D01*
X147222375Y-93646837D01*
X147290393Y-93681495D01*
X147290396Y-93681496D01*
X147395221Y-93715555D01*
X147500049Y-93749615D01*
X147717778Y-93784100D01*
X147717779Y-93784100D01*
X147938221Y-93784100D01*
X147938222Y-93784100D01*
X148155951Y-93749615D01*
X148365606Y-93681495D01*
X148562022Y-93581415D01*
X148740365Y-93451842D01*
X148896242Y-93295965D01*
X149025815Y-93117622D01*
X149125895Y-92921206D01*
X149194015Y-92711551D01*
X149228500Y-92493822D01*
X149228500Y-92273378D01*
X149194015Y-92055649D01*
X149187146Y-92034508D01*
X164751900Y-92034508D01*
X164751900Y-92166292D01*
X164764203Y-92212209D01*
X164786008Y-92293587D01*
X164804589Y-92325770D01*
X164851900Y-92407714D01*
X164945086Y-92500900D01*
X165059214Y-92566792D01*
X165186508Y-92600900D01*
X165186510Y-92600900D01*
X165318290Y-92600900D01*
X165318292Y-92600900D01*
X165445586Y-92566792D01*
X165559714Y-92500900D01*
X165652900Y-92407714D01*
X165661605Y-92392637D01*
X182140700Y-92392637D01*
X182140700Y-92620962D01*
X182176415Y-92846460D01*
X182246970Y-93063603D01*
X182350621Y-93267028D01*
X182484821Y-93451737D01*
X182646263Y-93613179D01*
X182830972Y-93747379D01*
X182903041Y-93784100D01*
X183034396Y-93851029D01*
X183034398Y-93851029D01*
X183034401Y-93851031D01*
X183150792Y-93888849D01*
X183251539Y-93921584D01*
X183477038Y-93957300D01*
X183477043Y-93957300D01*
X183705362Y-93957300D01*
X183930860Y-93921584D01*
X184147999Y-93851031D01*
X184351428Y-93747379D01*
X184536137Y-93613179D01*
X184697579Y-93451737D01*
X184831779Y-93267028D01*
X184935431Y-93063599D01*
X185005984Y-92846460D01*
X185041700Y-92620962D01*
X185041700Y-92392637D01*
X185005984Y-92167139D01*
X184935429Y-91949996D01*
X184855477Y-91793083D01*
X184831779Y-91746572D01*
X184697579Y-91561863D01*
X184536137Y-91400421D01*
X184351428Y-91266221D01*
X184148003Y-91162570D01*
X183930860Y-91092015D01*
X183705362Y-91056300D01*
X183705357Y-91056300D01*
X183477043Y-91056300D01*
X183477038Y-91056300D01*
X183251539Y-91092015D01*
X183034396Y-91162570D01*
X182830971Y-91266221D01*
X182646261Y-91400422D01*
X182484822Y-91561861D01*
X182350621Y-91746571D01*
X182246970Y-91949996D01*
X182176415Y-92167139D01*
X182140700Y-92392637D01*
X165661605Y-92392637D01*
X165718792Y-92293586D01*
X165752900Y-92166292D01*
X165752900Y-92034508D01*
X165718792Y-91907214D01*
X165652900Y-91793086D01*
X165559714Y-91699900D01*
X165472554Y-91649578D01*
X165445587Y-91634008D01*
X165381939Y-91616954D01*
X165318292Y-91599900D01*
X165186508Y-91599900D01*
X165059212Y-91634008D01*
X164945086Y-91699900D01*
X164945083Y-91699902D01*
X164851902Y-91793083D01*
X164851900Y-91793086D01*
X164786008Y-91907212D01*
X164774543Y-91950001D01*
X164751900Y-92034508D01*
X149187146Y-92034508D01*
X149125895Y-91845994D01*
X149125895Y-91845993D01*
X149079766Y-91755462D01*
X149025815Y-91649578D01*
X148962976Y-91563087D01*
X148896247Y-91471241D01*
X148896243Y-91471236D01*
X148740363Y-91315356D01*
X148740358Y-91315352D01*
X148562025Y-91185787D01*
X148562024Y-91185786D01*
X148562022Y-91185785D01*
X148499096Y-91153722D01*
X148365606Y-91085704D01*
X148365603Y-91085703D01*
X148155952Y-91017585D01*
X147990032Y-90991306D01*
X147938222Y-90983100D01*
X147717778Y-90983100D01*
X147665968Y-90991306D01*
X147500047Y-91017585D01*
X147290396Y-91085703D01*
X147290393Y-91085704D01*
X147093974Y-91185787D01*
X146915641Y-91315352D01*
X146915636Y-91315356D01*
X146759756Y-91471236D01*
X146759752Y-91471241D01*
X146630187Y-91649574D01*
X146530104Y-91845993D01*
X146530103Y-91845996D01*
X146461985Y-92055647D01*
X146427500Y-92273378D01*
X128458275Y-92273378D01*
X128489442Y-92212209D01*
X128496628Y-92198106D01*
X128496628Y-92198102D01*
X128496631Y-92198099D01*
X128567184Y-91980960D01*
X128602900Y-91755462D01*
X128602900Y-91527137D01*
X128567184Y-91301639D01*
X128521997Y-91162569D01*
X128496631Y-91084501D01*
X128496629Y-91084498D01*
X128496629Y-91084496D01*
X128392978Y-90881071D01*
X128365897Y-90843797D01*
X128258779Y-90696363D01*
X128097337Y-90534921D01*
X127912628Y-90400721D01*
X127841916Y-90364691D01*
X180651500Y-90364691D01*
X180651500Y-90483309D01*
X180682201Y-90597886D01*
X180741511Y-90700613D01*
X180825387Y-90784489D01*
X180928114Y-90843799D01*
X181042691Y-90874500D01*
X181042694Y-90874500D01*
X181161306Y-90874500D01*
X181161309Y-90874500D01*
X181168060Y-90872691D01*
X200463500Y-90872691D01*
X200463500Y-90991309D01*
X200494201Y-91105886D01*
X200553511Y-91208613D01*
X200637387Y-91292489D01*
X200740114Y-91351799D01*
X200854691Y-91382500D01*
X200854694Y-91382500D01*
X200973306Y-91382500D01*
X200973309Y-91382500D01*
X201087886Y-91351799D01*
X201125831Y-91329891D01*
X216262300Y-91329891D01*
X216262300Y-91448509D01*
X216293001Y-91563086D01*
X216352311Y-91665813D01*
X216436187Y-91749689D01*
X216538914Y-91808999D01*
X216653491Y-91839700D01*
X216653494Y-91839700D01*
X216772106Y-91839700D01*
X216772109Y-91839700D01*
X216886686Y-91808999D01*
X216989413Y-91749689D01*
X217073289Y-91665813D01*
X217132599Y-91563086D01*
X217163300Y-91448509D01*
X217163300Y-91329891D01*
X217132599Y-91215314D01*
X217073289Y-91112587D01*
X216989413Y-91028711D01*
X216886686Y-90969401D01*
X216772109Y-90938700D01*
X216653491Y-90938700D01*
X216538914Y-90969401D01*
X216538912Y-90969401D01*
X216538912Y-90969402D01*
X216436187Y-91028711D01*
X216436184Y-91028713D01*
X216352313Y-91112584D01*
X216352311Y-91112587D01*
X216310049Y-91185787D01*
X216293001Y-91215314D01*
X216262300Y-91329891D01*
X201125831Y-91329891D01*
X201190613Y-91292489D01*
X201274489Y-91208613D01*
X201333799Y-91105886D01*
X201364500Y-90991309D01*
X201364500Y-90872691D01*
X201333799Y-90758114D01*
X201274489Y-90655387D01*
X201190613Y-90571511D01*
X201087886Y-90512201D01*
X200973309Y-90481500D01*
X200854691Y-90481500D01*
X200740114Y-90512201D01*
X200740112Y-90512201D01*
X200740112Y-90512202D01*
X200637387Y-90571511D01*
X200637384Y-90571513D01*
X200553513Y-90655384D01*
X200553511Y-90655387D01*
X200527400Y-90700613D01*
X200494201Y-90758114D01*
X200463500Y-90872691D01*
X181168060Y-90872691D01*
X181275886Y-90843799D01*
X181378613Y-90784489D01*
X181462489Y-90700613D01*
X181521799Y-90597886D01*
X181552500Y-90483309D01*
X181552500Y-90364691D01*
X181521799Y-90250114D01*
X181462489Y-90147387D01*
X181378613Y-90063511D01*
X181275886Y-90004201D01*
X181161309Y-89973500D01*
X181042691Y-89973500D01*
X180928114Y-90004201D01*
X180928112Y-90004201D01*
X180928112Y-90004202D01*
X180825387Y-90063511D01*
X180825384Y-90063513D01*
X180741513Y-90147384D01*
X180741511Y-90147387D01*
X180682201Y-90250114D01*
X180651500Y-90364691D01*
X127841916Y-90364691D01*
X127709203Y-90297070D01*
X127492060Y-90226515D01*
X127266562Y-90190800D01*
X127266557Y-90190800D01*
X127038243Y-90190800D01*
X127038238Y-90190800D01*
X126812739Y-90226515D01*
X126595596Y-90297070D01*
X126392171Y-90400721D01*
X126207461Y-90534922D01*
X126046022Y-90696361D01*
X125911821Y-90881071D01*
X125808170Y-91084496D01*
X125737615Y-91301639D01*
X125701900Y-91527137D01*
X123814446Y-91527137D01*
X123814433Y-91522632D01*
X123807658Y-89196291D01*
X205797500Y-89196291D01*
X205797500Y-89314909D01*
X205828201Y-89429486D01*
X205887511Y-89532213D01*
X205971387Y-89616089D01*
X206074114Y-89675399D01*
X206188691Y-89706100D01*
X206188694Y-89706100D01*
X206307306Y-89706100D01*
X206307309Y-89706100D01*
X206421886Y-89675399D01*
X206524613Y-89616089D01*
X206608489Y-89532213D01*
X206667799Y-89429486D01*
X206698500Y-89314909D01*
X206698500Y-89196291D01*
X206667799Y-89081714D01*
X206608489Y-88978987D01*
X206524613Y-88895111D01*
X206421886Y-88835801D01*
X206307309Y-88805100D01*
X206188691Y-88805100D01*
X206074114Y-88835801D01*
X206074112Y-88835801D01*
X206074112Y-88835802D01*
X205971387Y-88895111D01*
X205971384Y-88895113D01*
X205887513Y-88978984D01*
X205887511Y-88978987D01*
X205828201Y-89081714D01*
X205797500Y-89196291D01*
X123807658Y-89196291D01*
X123807635Y-89188525D01*
X123804975Y-88275308D01*
X145397100Y-88275308D01*
X145397100Y-88407091D01*
X145431208Y-88534387D01*
X145460537Y-88585186D01*
X145497100Y-88648514D01*
X145590286Y-88741700D01*
X145704414Y-88807592D01*
X145831708Y-88841700D01*
X145831710Y-88841700D01*
X145963490Y-88841700D01*
X145963492Y-88841700D01*
X146090786Y-88807592D01*
X146204914Y-88741700D01*
X146298100Y-88648514D01*
X146363992Y-88534386D01*
X146398100Y-88407092D01*
X146398100Y-88275308D01*
X146384488Y-88224508D01*
X146971900Y-88224508D01*
X146971900Y-88356291D01*
X147006008Y-88483587D01*
X147035337Y-88534386D01*
X147071900Y-88597714D01*
X147165086Y-88690900D01*
X147279214Y-88756792D01*
X147406508Y-88790900D01*
X147406510Y-88790900D01*
X147538290Y-88790900D01*
X147538292Y-88790900D01*
X147665586Y-88756792D01*
X147779714Y-88690900D01*
X147872900Y-88597714D01*
X147938792Y-88483586D01*
X147972900Y-88356292D01*
X147972900Y-88326108D01*
X148597500Y-88326108D01*
X148597500Y-88457891D01*
X148631608Y-88585187D01*
X148638840Y-88597713D01*
X148697500Y-88699314D01*
X148790686Y-88792500D01*
X148904814Y-88858392D01*
X149032108Y-88892500D01*
X149032110Y-88892500D01*
X149163890Y-88892500D01*
X149163892Y-88892500D01*
X149291186Y-88858392D01*
X149405314Y-88792500D01*
X149498500Y-88699314D01*
X149564392Y-88585186D01*
X149598500Y-88457892D01*
X149598500Y-88326108D01*
X149564392Y-88198814D01*
X149498500Y-88084686D01*
X149405314Y-87991500D01*
X149317330Y-87940702D01*
X149291187Y-87925608D01*
X149227539Y-87908554D01*
X149163892Y-87891500D01*
X149032108Y-87891500D01*
X148904812Y-87925608D01*
X148790686Y-87991500D01*
X148790683Y-87991502D01*
X148697502Y-88084683D01*
X148697500Y-88084686D01*
X148631608Y-88198812D01*
X148597500Y-88326108D01*
X147972900Y-88326108D01*
X147972900Y-88224508D01*
X147938792Y-88097214D01*
X147872900Y-87983086D01*
X147779714Y-87889900D01*
X147722650Y-87856954D01*
X147665587Y-87824008D01*
X147601939Y-87806954D01*
X147538292Y-87789900D01*
X147406508Y-87789900D01*
X147279212Y-87824008D01*
X147165086Y-87889900D01*
X147165083Y-87889902D01*
X147071902Y-87983083D01*
X147071900Y-87983086D01*
X147006008Y-88097212D01*
X146971900Y-88224508D01*
X146384488Y-88224508D01*
X146363992Y-88148014D01*
X146298100Y-88033886D01*
X146204914Y-87940700D01*
X146147850Y-87907754D01*
X146090787Y-87874808D01*
X146027139Y-87857754D01*
X145963492Y-87840700D01*
X145831708Y-87840700D01*
X145704412Y-87874808D01*
X145590286Y-87940700D01*
X145590283Y-87940702D01*
X145497102Y-88033883D01*
X145497100Y-88033886D01*
X145431208Y-88148012D01*
X145397100Y-88275308D01*
X123804975Y-88275308D01*
X123804952Y-88267542D01*
X123804896Y-88248480D01*
X123803139Y-87645090D01*
X123802756Y-87513308D01*
X206052300Y-87513308D01*
X206052300Y-87645091D01*
X206086408Y-87772387D01*
X206116212Y-87824008D01*
X206152300Y-87886514D01*
X206245486Y-87979700D01*
X206359614Y-88045592D01*
X206486908Y-88079700D01*
X206486910Y-88079700D01*
X206618690Y-88079700D01*
X206618692Y-88079700D01*
X206745986Y-88045592D01*
X206860114Y-87979700D01*
X206953300Y-87886514D01*
X207019192Y-87772386D01*
X207053300Y-87645092D01*
X207053300Y-87513308D01*
X207019192Y-87386014D01*
X206953300Y-87271886D01*
X206860114Y-87178700D01*
X206803050Y-87145754D01*
X206745987Y-87112808D01*
X206682339Y-87095754D01*
X206618692Y-87078700D01*
X206486908Y-87078700D01*
X206359612Y-87112808D01*
X206245486Y-87178700D01*
X206245483Y-87178702D01*
X206152302Y-87271883D01*
X206152300Y-87271886D01*
X206086408Y-87386012D01*
X206052300Y-87513308D01*
X123802756Y-87513308D01*
X123802733Y-87505542D01*
X123794933Y-84827491D01*
X211436300Y-84827491D01*
X211436300Y-84946109D01*
X211467001Y-85060686D01*
X211526311Y-85163413D01*
X211610187Y-85247289D01*
X211712914Y-85306599D01*
X211827491Y-85337300D01*
X211827494Y-85337300D01*
X211946106Y-85337300D01*
X211946109Y-85337300D01*
X212060686Y-85306599D01*
X212163413Y-85247289D01*
X212247289Y-85163413D01*
X212306599Y-85060686D01*
X212337300Y-84946109D01*
X212337300Y-84827491D01*
X212306599Y-84712914D01*
X212247289Y-84610187D01*
X212163413Y-84526311D01*
X212060686Y-84467001D01*
X211946109Y-84436300D01*
X211827491Y-84436300D01*
X211712914Y-84467001D01*
X211712912Y-84467001D01*
X211712912Y-84467002D01*
X211610187Y-84526311D01*
X211610184Y-84526313D01*
X211526313Y-84610184D01*
X211526311Y-84610187D01*
X211467001Y-84712914D01*
X211436300Y-84827491D01*
X123794933Y-84827491D01*
X123794910Y-84819725D01*
X123794300Y-84610184D01*
X123792250Y-83906508D01*
X153372700Y-83906508D01*
X153372700Y-84038291D01*
X153406808Y-84165587D01*
X153411136Y-84173083D01*
X153472700Y-84279714D01*
X153565886Y-84372900D01*
X153680014Y-84438792D01*
X153807308Y-84472900D01*
X153807310Y-84472900D01*
X153939090Y-84472900D01*
X153939092Y-84472900D01*
X154066386Y-84438792D01*
X154108447Y-84414508D01*
X214027900Y-84414508D01*
X214027900Y-84546291D01*
X214062008Y-84673587D01*
X214084713Y-84712912D01*
X214127900Y-84787714D01*
X214221086Y-84880900D01*
X214335214Y-84946792D01*
X214462508Y-84980900D01*
X214462510Y-84980900D01*
X214594290Y-84980900D01*
X214594292Y-84980900D01*
X214721586Y-84946792D01*
X214835714Y-84880900D01*
X214928900Y-84787714D01*
X214994792Y-84673586D01*
X215028900Y-84546292D01*
X215028900Y-84414508D01*
X214994792Y-84287214D01*
X214928900Y-84173086D01*
X214835714Y-84079900D01*
X214763647Y-84038292D01*
X214721587Y-84014008D01*
X214657939Y-83996954D01*
X214594292Y-83979900D01*
X214462508Y-83979900D01*
X214335212Y-84014008D01*
X214221086Y-84079900D01*
X214221083Y-84079902D01*
X214127902Y-84173083D01*
X214127900Y-84173086D01*
X214062008Y-84287212D01*
X214027900Y-84414508D01*
X154108447Y-84414508D01*
X154180514Y-84372900D01*
X154273700Y-84279714D01*
X154339592Y-84165586D01*
X154373700Y-84038292D01*
X154373700Y-83906508D01*
X154339592Y-83779214D01*
X154273700Y-83665086D01*
X154180514Y-83571900D01*
X154144155Y-83550908D01*
X156166700Y-83550908D01*
X156166700Y-83682691D01*
X156200808Y-83809987D01*
X156233754Y-83867050D01*
X156266700Y-83924114D01*
X156359886Y-84017300D01*
X156458721Y-84074363D01*
X156468315Y-84079902D01*
X156474014Y-84083192D01*
X156601308Y-84117300D01*
X156601310Y-84117300D01*
X156733090Y-84117300D01*
X156733092Y-84117300D01*
X156860386Y-84083192D01*
X156974514Y-84017300D01*
X157067700Y-83924114D01*
X157133592Y-83809986D01*
X157167700Y-83682692D01*
X157167700Y-83550908D01*
X157133592Y-83423614D01*
X157067700Y-83309486D01*
X156974514Y-83216300D01*
X156899515Y-83172999D01*
X156860387Y-83150408D01*
X156777866Y-83128297D01*
X156733092Y-83116300D01*
X156601308Y-83116300D01*
X156474012Y-83150408D01*
X156359886Y-83216300D01*
X156359883Y-83216302D01*
X156266702Y-83309483D01*
X156266700Y-83309486D01*
X156200808Y-83423612D01*
X156166700Y-83550908D01*
X154144155Y-83550908D01*
X154123450Y-83538954D01*
X154066387Y-83506008D01*
X154002739Y-83488954D01*
X153939092Y-83471900D01*
X153807308Y-83471900D01*
X153680012Y-83506008D01*
X153565886Y-83571900D01*
X153565883Y-83571902D01*
X153472702Y-83665083D01*
X153472700Y-83665086D01*
X153406808Y-83779212D01*
X153372700Y-83906508D01*
X123792250Y-83906508D01*
X123788718Y-82693891D01*
X180499100Y-82693891D01*
X180499100Y-82812509D01*
X180529801Y-82927086D01*
X180589111Y-83029813D01*
X180672987Y-83113689D01*
X180775714Y-83172999D01*
X180890291Y-83203700D01*
X180890294Y-83203700D01*
X181008906Y-83203700D01*
X181008909Y-83203700D01*
X181123486Y-83172999D01*
X181226213Y-83113689D01*
X181310089Y-83029813D01*
X181369399Y-82927086D01*
X181400100Y-82812509D01*
X181400100Y-82744691D01*
X195434300Y-82744691D01*
X195434300Y-82863309D01*
X195465001Y-82977886D01*
X195524311Y-83080613D01*
X195608187Y-83164489D01*
X195710914Y-83223799D01*
X195825491Y-83254500D01*
X195825494Y-83254500D01*
X195944106Y-83254500D01*
X195944109Y-83254500D01*
X196058686Y-83223799D01*
X196161413Y-83164489D01*
X196245289Y-83080613D01*
X196304599Y-82977886D01*
X196335300Y-82863309D01*
X196335300Y-82744691D01*
X196313118Y-82661908D01*
X214104100Y-82661908D01*
X214104100Y-82793691D01*
X214138208Y-82920987D01*
X214141730Y-82927087D01*
X214204100Y-83035114D01*
X214297286Y-83128300D01*
X214411414Y-83194192D01*
X214538708Y-83228300D01*
X214538710Y-83228300D01*
X214670490Y-83228300D01*
X214670492Y-83228300D01*
X214797786Y-83194192D01*
X214911914Y-83128300D01*
X215005100Y-83035114D01*
X215070992Y-82920986D01*
X215105100Y-82793692D01*
X215105100Y-82661908D01*
X215070992Y-82534614D01*
X215066819Y-82527387D01*
X215053368Y-82504088D01*
X215005100Y-82420486D01*
X214911914Y-82327300D01*
X214854850Y-82294354D01*
X214797787Y-82261408D01*
X214734139Y-82244354D01*
X214670492Y-82227300D01*
X214538708Y-82227300D01*
X214411412Y-82261408D01*
X214297286Y-82327300D01*
X214297283Y-82327302D01*
X214204102Y-82420483D01*
X214204100Y-82420486D01*
X214138208Y-82534612D01*
X214104100Y-82661908D01*
X196313118Y-82661908D01*
X196304599Y-82630114D01*
X196245289Y-82527387D01*
X196161413Y-82443511D01*
X196058686Y-82384201D01*
X195944109Y-82353500D01*
X195825491Y-82353500D01*
X195710914Y-82384201D01*
X195710912Y-82384201D01*
X195710912Y-82384202D01*
X195608187Y-82443511D01*
X195608184Y-82443513D01*
X195524313Y-82527384D01*
X195524311Y-82527387D01*
X195465001Y-82630114D01*
X195434300Y-82744691D01*
X181400100Y-82744691D01*
X181400100Y-82693891D01*
X181369399Y-82579314D01*
X181310089Y-82476587D01*
X181226213Y-82392711D01*
X181123486Y-82333401D01*
X181008909Y-82302700D01*
X180890291Y-82302700D01*
X180775714Y-82333401D01*
X180775712Y-82333401D01*
X180775712Y-82333402D01*
X180672987Y-82392711D01*
X180672984Y-82392713D01*
X180589113Y-82476584D01*
X180589111Y-82476587D01*
X180538990Y-82563399D01*
X180529801Y-82579314D01*
X180499100Y-82693891D01*
X123788718Y-82693891D01*
X123786943Y-82084291D01*
X185121900Y-82084291D01*
X185121900Y-82202909D01*
X185152601Y-82317486D01*
X185211911Y-82420213D01*
X185295787Y-82504089D01*
X185398514Y-82563399D01*
X185513091Y-82594100D01*
X185513094Y-82594100D01*
X185631706Y-82594100D01*
X185631709Y-82594100D01*
X185746286Y-82563399D01*
X185849013Y-82504089D01*
X185932889Y-82420213D01*
X185992199Y-82317486D01*
X186022900Y-82202909D01*
X186022900Y-82084291D01*
X185992199Y-81969714D01*
X185932889Y-81866987D01*
X185849013Y-81783111D01*
X185746286Y-81723801D01*
X185631709Y-81693100D01*
X185513091Y-81693100D01*
X185398514Y-81723801D01*
X185398512Y-81723801D01*
X185398512Y-81723802D01*
X185295787Y-81783111D01*
X185295784Y-81783113D01*
X185211913Y-81866984D01*
X185211911Y-81866987D01*
X185152601Y-81969714D01*
X185121900Y-82084291D01*
X123786943Y-82084291D01*
X123784704Y-81315708D01*
X160332300Y-81315708D01*
X160332300Y-81447491D01*
X160366408Y-81574787D01*
X160399354Y-81631850D01*
X160432300Y-81688914D01*
X160525486Y-81782100D01*
X160639614Y-81847992D01*
X160766908Y-81882100D01*
X160766910Y-81882100D01*
X160898690Y-81882100D01*
X160898692Y-81882100D01*
X161025986Y-81847992D01*
X161140114Y-81782100D01*
X161233300Y-81688914D01*
X161299192Y-81574786D01*
X161333300Y-81447492D01*
X161333300Y-81315708D01*
X161299192Y-81188414D01*
X161233300Y-81074286D01*
X161140114Y-80981100D01*
X161083050Y-80948154D01*
X161025987Y-80915208D01*
X160962339Y-80898154D01*
X160898692Y-80881100D01*
X160766908Y-80881100D01*
X160639612Y-80915208D01*
X160525486Y-80981100D01*
X160525483Y-80981102D01*
X160432302Y-81074283D01*
X160432300Y-81074286D01*
X160366408Y-81188412D01*
X160332300Y-81315708D01*
X123784704Y-81315708D01*
X123782578Y-80585691D01*
X201504900Y-80585691D01*
X201504900Y-80704309D01*
X201535601Y-80818886D01*
X201594911Y-80921613D01*
X201678787Y-81005489D01*
X201781514Y-81064799D01*
X201896091Y-81095500D01*
X201896094Y-81095500D01*
X202014706Y-81095500D01*
X202014709Y-81095500D01*
X202129286Y-81064799D01*
X202232013Y-81005489D01*
X202315889Y-80921613D01*
X202375199Y-80818886D01*
X202405900Y-80704309D01*
X202405900Y-80585691D01*
X202375199Y-80471114D01*
X202315889Y-80368387D01*
X202232013Y-80284511D01*
X202129286Y-80225201D01*
X202014709Y-80194500D01*
X201896091Y-80194500D01*
X201781514Y-80225201D01*
X201781512Y-80225201D01*
X201781512Y-80225202D01*
X201678787Y-80284511D01*
X201678784Y-80284513D01*
X201594913Y-80368384D01*
X201594911Y-80368387D01*
X201535601Y-80471114D01*
X201504900Y-80585691D01*
X123782578Y-80585691D01*
X123779625Y-79571912D01*
X147349879Y-79571912D01*
X147349879Y-79690530D01*
X147380580Y-79805107D01*
X147439890Y-79907834D01*
X147523766Y-79991710D01*
X147626493Y-80051020D01*
X147741070Y-80081721D01*
X147741073Y-80081721D01*
X147859685Y-80081721D01*
X147859688Y-80081721D01*
X147974265Y-80051020D01*
X148076992Y-79991710D01*
X148160868Y-79907834D01*
X148220178Y-79805107D01*
X148250879Y-79690530D01*
X148250879Y-79614291D01*
X153753442Y-79614291D01*
X153753442Y-79732909D01*
X153784143Y-79847486D01*
X153843453Y-79950213D01*
X153927329Y-80034089D01*
X154030056Y-80093399D01*
X154144633Y-80124100D01*
X154144636Y-80124100D01*
X154263248Y-80124100D01*
X154263251Y-80124100D01*
X154377828Y-80093399D01*
X154480555Y-80034089D01*
X154564431Y-79950213D01*
X154623741Y-79847486D01*
X154654442Y-79732909D01*
X154654442Y-79614291D01*
X154623741Y-79499714D01*
X154564431Y-79396987D01*
X154559335Y-79391891D01*
X202190700Y-79391891D01*
X202190700Y-79510509D01*
X202221401Y-79625086D01*
X202280711Y-79727813D01*
X202364587Y-79811689D01*
X202467314Y-79870999D01*
X202581891Y-79901700D01*
X202581894Y-79901700D01*
X202700506Y-79901700D01*
X202700509Y-79901700D01*
X202815086Y-79870999D01*
X202917813Y-79811689D01*
X203001689Y-79727813D01*
X203060999Y-79625086D01*
X203091700Y-79510509D01*
X203091700Y-79391891D01*
X203060999Y-79277314D01*
X203001689Y-79174587D01*
X202917813Y-79090711D01*
X202815086Y-79031401D01*
X202700509Y-79000700D01*
X202581891Y-79000700D01*
X202467314Y-79031401D01*
X202467312Y-79031401D01*
X202467312Y-79031402D01*
X202364587Y-79090711D01*
X202364584Y-79090713D01*
X202280713Y-79174584D01*
X202280711Y-79174587D01*
X202259444Y-79211423D01*
X202221401Y-79277314D01*
X202190700Y-79391891D01*
X154559335Y-79391891D01*
X154480555Y-79313111D01*
X154377828Y-79253801D01*
X154263251Y-79223100D01*
X154144633Y-79223100D01*
X154030056Y-79253801D01*
X154030054Y-79253801D01*
X154030054Y-79253802D01*
X153927329Y-79313111D01*
X153927326Y-79313113D01*
X153843455Y-79396984D01*
X153843453Y-79396987D01*
X153784143Y-79499714D01*
X153753442Y-79614291D01*
X148250879Y-79614291D01*
X148250879Y-79571912D01*
X148220178Y-79457335D01*
X148160868Y-79354608D01*
X148076992Y-79270732D01*
X147974265Y-79211422D01*
X147859688Y-79180721D01*
X147741070Y-79180721D01*
X147626493Y-79211422D01*
X147626491Y-79211422D01*
X147626491Y-79211423D01*
X147523766Y-79270732D01*
X147523763Y-79270734D01*
X147439892Y-79354605D01*
X147439890Y-79354608D01*
X147380580Y-79457335D01*
X147349879Y-79571912D01*
X123779625Y-79571912D01*
X123777024Y-78678791D01*
X134893400Y-78678791D01*
X134893400Y-78797409D01*
X134924101Y-78911986D01*
X134983411Y-79014713D01*
X135067287Y-79098589D01*
X135170014Y-79157899D01*
X135284591Y-79188600D01*
X135284594Y-79188600D01*
X135403206Y-79188600D01*
X135403209Y-79188600D01*
X135517786Y-79157899D01*
X135618450Y-79099779D01*
X135686349Y-79083307D01*
X135742448Y-79099779D01*
X135843114Y-79157899D01*
X135957691Y-79188600D01*
X135957694Y-79188600D01*
X136076306Y-79188600D01*
X136076309Y-79188600D01*
X136190886Y-79157899D01*
X136291550Y-79099779D01*
X136359449Y-79083307D01*
X136415548Y-79099779D01*
X136516214Y-79157899D01*
X136630791Y-79188600D01*
X136630794Y-79188600D01*
X136749406Y-79188600D01*
X136749409Y-79188600D01*
X136863986Y-79157899D01*
X136964650Y-79099779D01*
X137032549Y-79083307D01*
X137088648Y-79099779D01*
X137189314Y-79157899D01*
X137303891Y-79188600D01*
X137303894Y-79188600D01*
X137422506Y-79188600D01*
X137422509Y-79188600D01*
X137537086Y-79157899D01*
X137637750Y-79099779D01*
X137705649Y-79083307D01*
X137761748Y-79099779D01*
X137862414Y-79157899D01*
X137976991Y-79188600D01*
X137976994Y-79188600D01*
X138095606Y-79188600D01*
X138095609Y-79188600D01*
X138210186Y-79157899D01*
X138312913Y-79098589D01*
X138396789Y-79014713D01*
X138456099Y-78911986D01*
X138486800Y-78797409D01*
X138486800Y-78678791D01*
X138456099Y-78564214D01*
X138396789Y-78461487D01*
X138312913Y-78377611D01*
X138210186Y-78318301D01*
X138095609Y-78287600D01*
X137976991Y-78287600D01*
X137871805Y-78315784D01*
X137862410Y-78318302D01*
X137761750Y-78376419D01*
X137693850Y-78392892D01*
X137637750Y-78376419D01*
X137537089Y-78318302D01*
X137537090Y-78318302D01*
X137527694Y-78315784D01*
X137422509Y-78287600D01*
X137303891Y-78287600D01*
X137198705Y-78315784D01*
X137189310Y-78318302D01*
X137088650Y-78376419D01*
X137020750Y-78392892D01*
X136964650Y-78376419D01*
X136863989Y-78318302D01*
X136863990Y-78318302D01*
X136854594Y-78315784D01*
X136749409Y-78287600D01*
X136630791Y-78287600D01*
X136525605Y-78315784D01*
X136516210Y-78318302D01*
X136415550Y-78376419D01*
X136347650Y-78392892D01*
X136291550Y-78376419D01*
X136190889Y-78318302D01*
X136190890Y-78318302D01*
X136181494Y-78315784D01*
X136076309Y-78287600D01*
X135957691Y-78287600D01*
X135852505Y-78315784D01*
X135843110Y-78318302D01*
X135742450Y-78376419D01*
X135674550Y-78392892D01*
X135618450Y-78376419D01*
X135517789Y-78318302D01*
X135517790Y-78318302D01*
X135508394Y-78315784D01*
X135403209Y-78287600D01*
X135284591Y-78287600D01*
X135170014Y-78318301D01*
X135170012Y-78318301D01*
X135170012Y-78318302D01*
X135067287Y-78377611D01*
X135067284Y-78377613D01*
X134983413Y-78461484D01*
X134983411Y-78461487D01*
X134924101Y-78564214D01*
X134893400Y-78678791D01*
X123777024Y-78678791D01*
X123774218Y-77715491D01*
X196094700Y-77715491D01*
X196094700Y-77834109D01*
X196125401Y-77948686D01*
X196184711Y-78051413D01*
X196268587Y-78135289D01*
X196371314Y-78194599D01*
X196485891Y-78225300D01*
X196485894Y-78225300D01*
X196604506Y-78225300D01*
X196604509Y-78225300D01*
X196719086Y-78194599D01*
X196821813Y-78135289D01*
X196905689Y-78051413D01*
X196964999Y-77948686D01*
X196995700Y-77834109D01*
X196995700Y-77715491D01*
X196964999Y-77600914D01*
X196905689Y-77498187D01*
X196821813Y-77414311D01*
X196719086Y-77355001D01*
X196604509Y-77324300D01*
X196485891Y-77324300D01*
X196371314Y-77355001D01*
X196371312Y-77355001D01*
X196371312Y-77355002D01*
X196268587Y-77414311D01*
X196268584Y-77414313D01*
X196184713Y-77498184D01*
X196184711Y-77498187D01*
X196158600Y-77543413D01*
X196125401Y-77600914D01*
X196094700Y-77715491D01*
X123774218Y-77715491D01*
X123772294Y-77055091D01*
X211741100Y-77055091D01*
X211741100Y-77173709D01*
X211771801Y-77288286D01*
X211831111Y-77391013D01*
X211914987Y-77474889D01*
X212017714Y-77534199D01*
X212132291Y-77564900D01*
X212132294Y-77564900D01*
X212250906Y-77564900D01*
X212250909Y-77564900D01*
X212365486Y-77534199D01*
X212468213Y-77474889D01*
X212552089Y-77391013D01*
X212611399Y-77288286D01*
X212642100Y-77173709D01*
X212642100Y-77055091D01*
X212611399Y-76940514D01*
X212552089Y-76837787D01*
X212468213Y-76753911D01*
X212365486Y-76694601D01*
X212250909Y-76663900D01*
X212132291Y-76663900D01*
X212017714Y-76694601D01*
X212017712Y-76694601D01*
X212017712Y-76694602D01*
X211914987Y-76753911D01*
X211914984Y-76753913D01*
X211831113Y-76837784D01*
X211831111Y-76837787D01*
X211823995Y-76850113D01*
X211771801Y-76940514D01*
X211741100Y-77055091D01*
X123772294Y-77055091D01*
X123767017Y-75243316D01*
X187780525Y-75243316D01*
X187780525Y-75361934D01*
X187811226Y-75476511D01*
X187870536Y-75579238D01*
X187954412Y-75663114D01*
X188057139Y-75722424D01*
X188171716Y-75753125D01*
X188171719Y-75753125D01*
X188290331Y-75753125D01*
X188290334Y-75753125D01*
X188404911Y-75722424D01*
X188507638Y-75663114D01*
X188591514Y-75579238D01*
X188650824Y-75476511D01*
X188681525Y-75361934D01*
X188681525Y-75243316D01*
X188650824Y-75128739D01*
X188591514Y-75026012D01*
X188507638Y-74942136D01*
X188404911Y-74882826D01*
X188290334Y-74852125D01*
X188171716Y-74852125D01*
X188057139Y-74882826D01*
X188057137Y-74882826D01*
X188057137Y-74882827D01*
X187954412Y-74942136D01*
X187954409Y-74942138D01*
X187870538Y-75026009D01*
X187870536Y-75026012D01*
X187811226Y-75128739D01*
X187780525Y-75243316D01*
X123767017Y-75243316D01*
X123765141Y-74599153D01*
X137234798Y-74599153D01*
X137241782Y-74604228D01*
X137396606Y-74683115D01*
X137561878Y-74736816D01*
X137733508Y-74764000D01*
X137907292Y-74764000D01*
X138078921Y-74736816D01*
X138244193Y-74683115D01*
X138399024Y-74604224D01*
X138406000Y-74599153D01*
X138350692Y-74543845D01*
X138271138Y-74464291D01*
X185934700Y-74464291D01*
X185934700Y-74582909D01*
X185965401Y-74697486D01*
X186024711Y-74800213D01*
X186108587Y-74884089D01*
X186211314Y-74943399D01*
X186325891Y-74974100D01*
X186325894Y-74974100D01*
X186444506Y-74974100D01*
X186444509Y-74974100D01*
X186559086Y-74943399D01*
X186661813Y-74884089D01*
X186694959Y-74850943D01*
X189848700Y-74850943D01*
X189848700Y-75009057D01*
X189880655Y-75128313D01*
X189889623Y-75161783D01*
X189889626Y-75161790D01*
X189968675Y-75298709D01*
X189968679Y-75298714D01*
X189968680Y-75298716D01*
X190080484Y-75410520D01*
X190080486Y-75410521D01*
X190080490Y-75410524D01*
X190217409Y-75489573D01*
X190217416Y-75489577D01*
X190370143Y-75530500D01*
X190370145Y-75530500D01*
X190528255Y-75530500D01*
X190528257Y-75530500D01*
X190680984Y-75489577D01*
X190817916Y-75410520D01*
X190929720Y-75298716D01*
X191008777Y-75161784D01*
X191049700Y-75009057D01*
X191049700Y-74965708D01*
X199651500Y-74965708D01*
X199651500Y-75097492D01*
X199659872Y-75128737D01*
X199685608Y-75224787D01*
X199696306Y-75243316D01*
X199751500Y-75338914D01*
X199844686Y-75432100D01*
X199958814Y-75497992D01*
X200086108Y-75532100D01*
X200086110Y-75532100D01*
X200217890Y-75532100D01*
X200217892Y-75532100D01*
X200345186Y-75497992D01*
X200459314Y-75432100D01*
X200461923Y-75429491D01*
X203003500Y-75429491D01*
X203003500Y-75548109D01*
X203034201Y-75662686D01*
X203093511Y-75765413D01*
X203177387Y-75849289D01*
X203280114Y-75908599D01*
X203394691Y-75939300D01*
X203394694Y-75939300D01*
X203513306Y-75939300D01*
X203513309Y-75939300D01*
X203627886Y-75908599D01*
X203730613Y-75849289D01*
X203814489Y-75765413D01*
X203873799Y-75662686D01*
X203904500Y-75548109D01*
X203904500Y-75429491D01*
X203873799Y-75314914D01*
X203814489Y-75212187D01*
X203730613Y-75128311D01*
X203627886Y-75069001D01*
X203513309Y-75038300D01*
X203394691Y-75038300D01*
X203280114Y-75069001D01*
X203280112Y-75069001D01*
X203280112Y-75069002D01*
X203177387Y-75128311D01*
X203177384Y-75128313D01*
X203093513Y-75212184D01*
X203093511Y-75212187D01*
X203075539Y-75243316D01*
X203034201Y-75314914D01*
X203003500Y-75429491D01*
X200461923Y-75429491D01*
X200552500Y-75338914D01*
X200618392Y-75224786D01*
X200652500Y-75097492D01*
X200652500Y-74965708D01*
X200618392Y-74838414D01*
X200552500Y-74724286D01*
X200459314Y-74631100D01*
X200375840Y-74582906D01*
X200345187Y-74565208D01*
X200265457Y-74543845D01*
X200217892Y-74531100D01*
X200086108Y-74531100D01*
X199958812Y-74565208D01*
X199844686Y-74631100D01*
X199844683Y-74631102D01*
X199751502Y-74724283D01*
X199751500Y-74724286D01*
X199685608Y-74838412D01*
X199657478Y-74943397D01*
X199651500Y-74965708D01*
X191049700Y-74965708D01*
X191049700Y-74850943D01*
X191008777Y-74698216D01*
X190954514Y-74604228D01*
X190929724Y-74561290D01*
X190929718Y-74561282D01*
X190817917Y-74449481D01*
X190817909Y-74449475D01*
X190680990Y-74370426D01*
X190680986Y-74370424D01*
X190680984Y-74370423D01*
X190528257Y-74329500D01*
X190370143Y-74329500D01*
X190217416Y-74370423D01*
X190217409Y-74370426D01*
X190080490Y-74449475D01*
X190080482Y-74449481D01*
X189968681Y-74561282D01*
X189968675Y-74561290D01*
X189889626Y-74698209D01*
X189889623Y-74698216D01*
X189848700Y-74850943D01*
X186694959Y-74850943D01*
X186745689Y-74800213D01*
X186804999Y-74697486D01*
X186835700Y-74582909D01*
X186835700Y-74464291D01*
X186804999Y-74349714D01*
X186745689Y-74246987D01*
X186661813Y-74163111D01*
X186559086Y-74103801D01*
X186444509Y-74073100D01*
X186325891Y-74073100D01*
X186211314Y-74103801D01*
X186211312Y-74103801D01*
X186211312Y-74103802D01*
X186108587Y-74163111D01*
X186108584Y-74163113D01*
X186024713Y-74246984D01*
X186024711Y-74246987D01*
X185965401Y-74349714D01*
X185934700Y-74464291D01*
X138271138Y-74464291D01*
X137820401Y-74013553D01*
X137820400Y-74013553D01*
X137234798Y-74599153D01*
X123765141Y-74599153D01*
X123762153Y-73573107D01*
X136716400Y-73573107D01*
X136716400Y-73746892D01*
X136743583Y-73918521D01*
X136797284Y-74083793D01*
X136876176Y-74238624D01*
X136876177Y-74238626D01*
X136881244Y-74245600D01*
X136881246Y-74245601D01*
X137466846Y-73660001D01*
X137466846Y-73659999D01*
X137420769Y-73613922D01*
X137470400Y-73613922D01*
X137470400Y-73706078D01*
X137494252Y-73795095D01*
X137540330Y-73874905D01*
X137605495Y-73940070D01*
X137685305Y-73986148D01*
X137774322Y-74010000D01*
X137866478Y-74010000D01*
X137955495Y-73986148D01*
X138035305Y-73940070D01*
X138100470Y-73874905D01*
X138146548Y-73795095D01*
X138170400Y-73706078D01*
X138170400Y-73659999D01*
X138173953Y-73659999D01*
X138173953Y-73660000D01*
X138759553Y-74245600D01*
X138764624Y-74238624D01*
X138843515Y-74083793D01*
X138897216Y-73918521D01*
X138924400Y-73746892D01*
X138924400Y-73573107D01*
X138897216Y-73401478D01*
X138843515Y-73236206D01*
X138822158Y-73194291D01*
X146818700Y-73194291D01*
X146818700Y-73312909D01*
X146849401Y-73427486D01*
X146908711Y-73530213D01*
X146992587Y-73614089D01*
X147095314Y-73673399D01*
X147209891Y-73704100D01*
X147209894Y-73704100D01*
X147328506Y-73704100D01*
X147328509Y-73704100D01*
X147443086Y-73673399D01*
X147545813Y-73614089D01*
X147629689Y-73530213D01*
X147688999Y-73427486D01*
X147719700Y-73312909D01*
X147719700Y-73194291D01*
X147688999Y-73079714D01*
X147688997Y-73079711D01*
X147688997Y-73079709D01*
X147688996Y-73079708D01*
X147668938Y-73044967D01*
X147668936Y-73044965D01*
X147637832Y-72991091D01*
X188119100Y-72991091D01*
X188119100Y-73109709D01*
X188149801Y-73224286D01*
X188209111Y-73327013D01*
X188292987Y-73410889D01*
X188395714Y-73470199D01*
X188510291Y-73500900D01*
X188510294Y-73500900D01*
X188628890Y-73500900D01*
X188695929Y-73520585D01*
X188741684Y-73573389D01*
X188751628Y-73642547D01*
X188722603Y-73706103D01*
X188690892Y-73732285D01*
X188665594Y-73746892D01*
X188648587Y-73756711D01*
X188648584Y-73756713D01*
X188564713Y-73840584D01*
X188564711Y-73840587D01*
X188505401Y-73943314D01*
X188474700Y-74057891D01*
X188474700Y-74176509D01*
X188505401Y-74291086D01*
X188564711Y-74393813D01*
X188648587Y-74477689D01*
X188751314Y-74536999D01*
X188865891Y-74567700D01*
X188865894Y-74567700D01*
X188984506Y-74567700D01*
X188984509Y-74567700D01*
X189099086Y-74536999D01*
X189201813Y-74477689D01*
X189285689Y-74393813D01*
X189344999Y-74291086D01*
X189375700Y-74176509D01*
X189375700Y-74057891D01*
X189344999Y-73943314D01*
X189285689Y-73840587D01*
X189201813Y-73756711D01*
X189099086Y-73697401D01*
X188984509Y-73666700D01*
X188865910Y-73666700D01*
X188798871Y-73647015D01*
X188753116Y-73594211D01*
X188743172Y-73525053D01*
X188772197Y-73461497D01*
X188803907Y-73435314D01*
X188846213Y-73410889D01*
X188930089Y-73327013D01*
X188989399Y-73224286D01*
X189020100Y-73109709D01*
X189020100Y-72991091D01*
X188989399Y-72876514D01*
X188930089Y-72773787D01*
X188846213Y-72689911D01*
X188743486Y-72630601D01*
X188628909Y-72599900D01*
X188510291Y-72599900D01*
X188395714Y-72630601D01*
X188395712Y-72630601D01*
X188395712Y-72630602D01*
X188292987Y-72689911D01*
X188292984Y-72689913D01*
X188209113Y-72773784D01*
X188209111Y-72773787D01*
X188174462Y-72833801D01*
X188149801Y-72876514D01*
X188119100Y-72991091D01*
X147637832Y-72991091D01*
X147629689Y-72976987D01*
X147545813Y-72893111D01*
X147443086Y-72833801D01*
X147328509Y-72803100D01*
X147209891Y-72803100D01*
X147095314Y-72833801D01*
X147095312Y-72833801D01*
X147095312Y-72833802D01*
X146992587Y-72893111D01*
X146992584Y-72893113D01*
X146908713Y-72976984D01*
X146908711Y-72976987D01*
X146869464Y-73044965D01*
X146849401Y-73079714D01*
X146818700Y-73194291D01*
X138822158Y-73194291D01*
X138764628Y-73081382D01*
X138759553Y-73074398D01*
X138173953Y-73659999D01*
X138170400Y-73659999D01*
X138170400Y-73613922D01*
X138146548Y-73524905D01*
X138100470Y-73445095D01*
X138035305Y-73379930D01*
X137955495Y-73333852D01*
X137866478Y-73310000D01*
X137774322Y-73310000D01*
X137685305Y-73333852D01*
X137605495Y-73379930D01*
X137540330Y-73445095D01*
X137494252Y-73524905D01*
X137470400Y-73613922D01*
X137420769Y-73613922D01*
X136881245Y-73074398D01*
X136881244Y-73074398D01*
X136876175Y-73081375D01*
X136797284Y-73236206D01*
X136743583Y-73401478D01*
X136716400Y-73573107D01*
X123762153Y-73573107D01*
X123756641Y-71680759D01*
X137015900Y-71680759D01*
X137015900Y-71839240D01*
X137046814Y-71994656D01*
X137046816Y-71994664D01*
X137107459Y-72141071D01*
X137107464Y-72141080D01*
X137195503Y-72272838D01*
X137195506Y-72272842D01*
X137307560Y-72384896D01*
X137379307Y-72432835D01*
X137384140Y-72436065D01*
X137384142Y-72436066D01*
X137428947Y-72489678D01*
X137437654Y-72559003D01*
X137407500Y-72622030D01*
X137371547Y-72649652D01*
X137241778Y-72715774D01*
X137234798Y-72720844D01*
X137234798Y-72720845D01*
X137820400Y-73306446D01*
X137820401Y-73306446D01*
X138406001Y-72720846D01*
X138406000Y-72720844D01*
X138399026Y-72715777D01*
X138399015Y-72715770D01*
X138269253Y-72649652D01*
X138218457Y-72601678D01*
X138201662Y-72533857D01*
X138224200Y-72467722D01*
X138256654Y-72436068D01*
X138333239Y-72384896D01*
X138445296Y-72272839D01*
X138533339Y-72141074D01*
X138593984Y-71994664D01*
X138624900Y-71839236D01*
X138624900Y-71771891D01*
X180905500Y-71771891D01*
X180905500Y-71890509D01*
X180936201Y-72005086D01*
X180995511Y-72107813D01*
X181079387Y-72191689D01*
X181182114Y-72250999D01*
X181296691Y-72281700D01*
X181296694Y-72281700D01*
X181415306Y-72281700D01*
X181415309Y-72281700D01*
X181529886Y-72250999D01*
X181632613Y-72191689D01*
X181716489Y-72107813D01*
X181775799Y-72005086D01*
X181806500Y-71890509D01*
X181806500Y-71771891D01*
X181775799Y-71657314D01*
X181716489Y-71554587D01*
X181632613Y-71470711D01*
X181529886Y-71411401D01*
X181415309Y-71380700D01*
X181296691Y-71380700D01*
X181182114Y-71411401D01*
X181182112Y-71411401D01*
X181182112Y-71411402D01*
X181079387Y-71470711D01*
X181079384Y-71470713D01*
X180995513Y-71554584D01*
X180995511Y-71554587D01*
X180936743Y-71656376D01*
X180936201Y-71657314D01*
X180905500Y-71771891D01*
X138624900Y-71771891D01*
X138624900Y-71680764D01*
X138593984Y-71525336D01*
X138533339Y-71378926D01*
X138533338Y-71378925D01*
X138533335Y-71378919D01*
X138445296Y-71247161D01*
X138445293Y-71247157D01*
X138411227Y-71213091D01*
X174911100Y-71213091D01*
X174911100Y-71331709D01*
X174941801Y-71446286D01*
X175001111Y-71549013D01*
X175084987Y-71632889D01*
X175187714Y-71692199D01*
X175302291Y-71722900D01*
X175302294Y-71722900D01*
X175420906Y-71722900D01*
X175420909Y-71722900D01*
X175535486Y-71692199D01*
X175638213Y-71632889D01*
X175722089Y-71549013D01*
X175781399Y-71446286D01*
X175812100Y-71331709D01*
X175812100Y-71213091D01*
X175791298Y-71135457D01*
X175791298Y-71135455D01*
X175784876Y-71111491D01*
X176181100Y-71111491D01*
X176181100Y-71230109D01*
X176211801Y-71344686D01*
X176271111Y-71447413D01*
X176354987Y-71531289D01*
X176457714Y-71590599D01*
X176572291Y-71621300D01*
X176572294Y-71621300D01*
X176690906Y-71621300D01*
X176690909Y-71621300D01*
X176805486Y-71590599D01*
X176908213Y-71531289D01*
X176992089Y-71447413D01*
X177051399Y-71344686D01*
X177082100Y-71230109D01*
X177082100Y-71111491D01*
X177051399Y-70996914D01*
X176992089Y-70894187D01*
X176908213Y-70810311D01*
X176805486Y-70751001D01*
X176690909Y-70720300D01*
X176572291Y-70720300D01*
X176457714Y-70751001D01*
X176457712Y-70751001D01*
X176457712Y-70751002D01*
X176354987Y-70810311D01*
X176354984Y-70810313D01*
X176271113Y-70894184D01*
X176271111Y-70894187D01*
X176231368Y-70963024D01*
X176211801Y-70996914D01*
X176181100Y-71111491D01*
X175784876Y-71111491D01*
X175781399Y-71098515D01*
X175781399Y-71098514D01*
X175767297Y-71074089D01*
X175722089Y-70995787D01*
X175638213Y-70911911D01*
X175535486Y-70852601D01*
X175420909Y-70821900D01*
X175302291Y-70821900D01*
X175187714Y-70852601D01*
X175187712Y-70852601D01*
X175187712Y-70852602D01*
X175084987Y-70911911D01*
X175084984Y-70911913D01*
X175001113Y-70995784D01*
X175001111Y-70995787D01*
X174942343Y-71097576D01*
X174941801Y-71098514D01*
X174911100Y-71213091D01*
X138411227Y-71213091D01*
X138333242Y-71135106D01*
X138333238Y-71135103D01*
X138201480Y-71047064D01*
X138201471Y-71047059D01*
X138055064Y-70986416D01*
X138055056Y-70986414D01*
X137899640Y-70955500D01*
X137899636Y-70955500D01*
X137741164Y-70955500D01*
X137741159Y-70955500D01*
X137585743Y-70986414D01*
X137585735Y-70986416D01*
X137439328Y-71047059D01*
X137439319Y-71047064D01*
X137307561Y-71135103D01*
X137307557Y-71135106D01*
X137195506Y-71247157D01*
X137195503Y-71247161D01*
X137107464Y-71378919D01*
X137107459Y-71378928D01*
X137046816Y-71525335D01*
X137046814Y-71525343D01*
X137015900Y-71680759D01*
X123756641Y-71680759D01*
X123753651Y-70654291D01*
X172015500Y-70654291D01*
X172015500Y-70772909D01*
X172046201Y-70887486D01*
X172105511Y-70990213D01*
X172189387Y-71074089D01*
X172292114Y-71133399D01*
X172406691Y-71164100D01*
X172406694Y-71164100D01*
X172525306Y-71164100D01*
X172525309Y-71164100D01*
X172639886Y-71133399D01*
X172742613Y-71074089D01*
X172826489Y-70990213D01*
X172885799Y-70887486D01*
X172916500Y-70772909D01*
X172916500Y-70654291D01*
X172885799Y-70539714D01*
X172826489Y-70436987D01*
X172742613Y-70353111D01*
X172639886Y-70293801D01*
X172525309Y-70263100D01*
X172406691Y-70263100D01*
X172292114Y-70293801D01*
X172292112Y-70293801D01*
X172292112Y-70293802D01*
X172189387Y-70353111D01*
X172189384Y-70353113D01*
X172105513Y-70436984D01*
X172105511Y-70436987D01*
X172046201Y-70539714D01*
X172015500Y-70654291D01*
X123753651Y-70654291D01*
X123750100Y-69435091D01*
X148291900Y-69435091D01*
X148291900Y-69553709D01*
X148322601Y-69668286D01*
X148381911Y-69771013D01*
X148465787Y-69854889D01*
X148568514Y-69914199D01*
X148683091Y-69944900D01*
X148683094Y-69944900D01*
X148801706Y-69944900D01*
X148801709Y-69944900D01*
X148916286Y-69914199D01*
X149019013Y-69854889D01*
X149102889Y-69771013D01*
X149162199Y-69668286D01*
X149192900Y-69553709D01*
X149192900Y-69435091D01*
X149162199Y-69320514D01*
X149102889Y-69217787D01*
X149019013Y-69133911D01*
X148916286Y-69074601D01*
X148801709Y-69043900D01*
X148683091Y-69043900D01*
X148568514Y-69074601D01*
X148568512Y-69074601D01*
X148568512Y-69074602D01*
X148465787Y-69133911D01*
X148465784Y-69133913D01*
X148381913Y-69217784D01*
X148381911Y-69217787D01*
X148322601Y-69320514D01*
X148291900Y-69435091D01*
X123750100Y-69435091D01*
X123741530Y-66492553D01*
X143074400Y-66492553D01*
X143074400Y-66705046D01*
X143107642Y-66914927D01*
X143107642Y-66914930D01*
X143173304Y-67117017D01*
X143269775Y-67306350D01*
X143309128Y-67360516D01*
X143941437Y-66728208D01*
X143958475Y-66791793D01*
X144024301Y-66905807D01*
X144117393Y-66998899D01*
X144231407Y-67064725D01*
X144294990Y-67081762D01*
X143662682Y-67714069D01*
X143662682Y-67714070D01*
X143716849Y-67753424D01*
X143906182Y-67849895D01*
X144108270Y-67915557D01*
X144318154Y-67948800D01*
X144530646Y-67948800D01*
X144740527Y-67915557D01*
X144740530Y-67915557D01*
X144942617Y-67849895D01*
X145131954Y-67753422D01*
X145179480Y-67718893D01*
X145186116Y-67714070D01*
X145186117Y-67714070D01*
X144553808Y-67081762D01*
X144617393Y-67064725D01*
X144731407Y-66998899D01*
X144824499Y-66905807D01*
X144890325Y-66791793D01*
X144907362Y-66728208D01*
X145539670Y-67360517D01*
X145539670Y-67360516D01*
X145579022Y-67306354D01*
X145675495Y-67117017D01*
X145732743Y-66940826D01*
X145772180Y-66883151D01*
X145836539Y-66855952D01*
X145905385Y-66867866D01*
X145956861Y-66915110D01*
X145965233Y-66931687D01*
X145970413Y-66944193D01*
X146021418Y-67067330D01*
X146033459Y-67096398D01*
X146090941Y-67182426D01*
X146148424Y-67268457D01*
X146294742Y-67414775D01*
X146294745Y-67414777D01*
X146466802Y-67529741D01*
X146657980Y-67608930D01*
X146801170Y-67637412D01*
X146860930Y-67649299D01*
X146860934Y-67649300D01*
X146860935Y-67649300D01*
X147067866Y-67649300D01*
X147067867Y-67649299D01*
X147270820Y-67608930D01*
X147461998Y-67529741D01*
X147634055Y-67414777D01*
X147780377Y-67268455D01*
X147895341Y-67096398D01*
X147974530Y-66905220D01*
X148014900Y-66702265D01*
X148014900Y-66495335D01*
X148014899Y-66495330D01*
X148453900Y-66495330D01*
X148453900Y-66702269D01*
X148494268Y-66905212D01*
X148494270Y-66905220D01*
X148561418Y-67067330D01*
X148573459Y-67096398D01*
X148630941Y-67182426D01*
X148688424Y-67268457D01*
X148834742Y-67414775D01*
X148834745Y-67414777D01*
X149006802Y-67529741D01*
X149197980Y-67608930D01*
X149341170Y-67637412D01*
X149400930Y-67649299D01*
X149400934Y-67649300D01*
X149400935Y-67649300D01*
X149607866Y-67649300D01*
X149607867Y-67649299D01*
X149810820Y-67608930D01*
X150001998Y-67529741D01*
X150174055Y-67414777D01*
X150320377Y-67268455D01*
X150435341Y-67096398D01*
X150514530Y-66905220D01*
X150554900Y-66702265D01*
X150554900Y-66495335D01*
X150554899Y-66495330D01*
X150993900Y-66495330D01*
X150993900Y-66702269D01*
X151034268Y-66905212D01*
X151034270Y-66905220D01*
X151101418Y-67067330D01*
X151113459Y-67096398D01*
X151170941Y-67182426D01*
X151228424Y-67268457D01*
X151374742Y-67414775D01*
X151374745Y-67414777D01*
X151546802Y-67529741D01*
X151737980Y-67608930D01*
X151881170Y-67637412D01*
X151940930Y-67649299D01*
X151940934Y-67649300D01*
X151940935Y-67649300D01*
X152147866Y-67649300D01*
X152147867Y-67649299D01*
X152350820Y-67608930D01*
X152541998Y-67529741D01*
X152714055Y-67414777D01*
X152860377Y-67268455D01*
X152975341Y-67096398D01*
X153054530Y-66905220D01*
X153094900Y-66702265D01*
X153094900Y-66495335D01*
X153054530Y-66292380D01*
X152975341Y-66101202D01*
X152860377Y-65929145D01*
X152860375Y-65929142D01*
X152714057Y-65782824D01*
X152633573Y-65729047D01*
X153533900Y-65729047D01*
X153533900Y-67468552D01*
X153545531Y-67527029D01*
X153545532Y-67527030D01*
X153589847Y-67593352D01*
X153656169Y-67637667D01*
X153656170Y-67637668D01*
X153714647Y-67649299D01*
X153714650Y-67649300D01*
X153714652Y-67649300D01*
X155454150Y-67649300D01*
X155454151Y-67649299D01*
X155468968Y-67646352D01*
X155512629Y-67637668D01*
X155512629Y-67637667D01*
X155512631Y-67637667D01*
X155578952Y-67593352D01*
X155623267Y-67527031D01*
X155623267Y-67527029D01*
X155623268Y-67527029D01*
X155634899Y-67468552D01*
X155634900Y-67468550D01*
X155634900Y-66644953D01*
X158416000Y-66644953D01*
X158416000Y-66857446D01*
X158449242Y-67067327D01*
X158449242Y-67067330D01*
X158514904Y-67269417D01*
X158611375Y-67458750D01*
X158650728Y-67512916D01*
X159283037Y-66880608D01*
X159300075Y-66944193D01*
X159365901Y-67058207D01*
X159458993Y-67151299D01*
X159573007Y-67217125D01*
X159636590Y-67234162D01*
X159004282Y-67866469D01*
X159004282Y-67866470D01*
X159058449Y-67905824D01*
X159247782Y-68002295D01*
X159449870Y-68067957D01*
X159659754Y-68101200D01*
X159872246Y-68101200D01*
X160082127Y-68067957D01*
X160082130Y-68067957D01*
X160284217Y-68002295D01*
X160473554Y-67905822D01*
X160527716Y-67866470D01*
X160527717Y-67866470D01*
X159895408Y-67234162D01*
X159958993Y-67217125D01*
X160073007Y-67151299D01*
X160166099Y-67058207D01*
X160231925Y-66944193D01*
X160248962Y-66880608D01*
X160881270Y-67512917D01*
X160881270Y-67512916D01*
X160920622Y-67458754D01*
X161017095Y-67269417D01*
X161074343Y-67093226D01*
X161113780Y-67035551D01*
X161178139Y-67008352D01*
X161246985Y-67020266D01*
X161298461Y-67067510D01*
X161306833Y-67084087D01*
X161315394Y-67104754D01*
X161361939Y-67217125D01*
X161375059Y-67248798D01*
X161432541Y-67334826D01*
X161490024Y-67420857D01*
X161636342Y-67567175D01*
X161636345Y-67567177D01*
X161808402Y-67682141D01*
X161999580Y-67761330D01*
X162144052Y-67790067D01*
X162202530Y-67801699D01*
X162202534Y-67801700D01*
X162202535Y-67801700D01*
X162409466Y-67801700D01*
X162409467Y-67801699D01*
X162612420Y-67761330D01*
X162803598Y-67682141D01*
X162975655Y-67567177D01*
X163121977Y-67420855D01*
X163236941Y-67248798D01*
X163316130Y-67057620D01*
X163356500Y-66854665D01*
X163356500Y-66647735D01*
X163356499Y-66647730D01*
X163795500Y-66647730D01*
X163795500Y-66854669D01*
X163835868Y-67057612D01*
X163835870Y-67057620D01*
X163901939Y-67217125D01*
X163915059Y-67248798D01*
X163972541Y-67334826D01*
X164030024Y-67420857D01*
X164176342Y-67567175D01*
X164176345Y-67567177D01*
X164348402Y-67682141D01*
X164539580Y-67761330D01*
X164684052Y-67790067D01*
X164742530Y-67801699D01*
X164742534Y-67801700D01*
X164742535Y-67801700D01*
X164949466Y-67801700D01*
X164949467Y-67801699D01*
X165152420Y-67761330D01*
X165343598Y-67682141D01*
X165515655Y-67567177D01*
X165661977Y-67420855D01*
X165776941Y-67248798D01*
X165856130Y-67057620D01*
X165896500Y-66854665D01*
X165896500Y-66647735D01*
X165856130Y-66444780D01*
X165776941Y-66253602D01*
X165661977Y-66081545D01*
X165661975Y-66081542D01*
X165515657Y-65935224D01*
X165435173Y-65881447D01*
X166335500Y-65881447D01*
X166335500Y-67620952D01*
X166347131Y-67679429D01*
X166347132Y-67679430D01*
X166391447Y-67745752D01*
X166457769Y-67790067D01*
X166457770Y-67790068D01*
X166516247Y-67801699D01*
X166516250Y-67801700D01*
X166516252Y-67801700D01*
X168255750Y-67801700D01*
X168255751Y-67801699D01*
X168270568Y-67798752D01*
X168314229Y-67790068D01*
X168314229Y-67790067D01*
X168314231Y-67790067D01*
X168380552Y-67745752D01*
X168424867Y-67679431D01*
X168424867Y-67679429D01*
X168424868Y-67679429D01*
X168436499Y-67620952D01*
X168436500Y-67620950D01*
X168436500Y-67301491D01*
X174911100Y-67301491D01*
X174911100Y-67420109D01*
X174941801Y-67534686D01*
X175001111Y-67637413D01*
X175084987Y-67721289D01*
X175187714Y-67780599D01*
X175302291Y-67811300D01*
X175302294Y-67811300D01*
X175420906Y-67811300D01*
X175420909Y-67811300D01*
X175535486Y-67780599D01*
X175638213Y-67721289D01*
X175722089Y-67637413D01*
X175781399Y-67534686D01*
X175812100Y-67420109D01*
X175812100Y-67301491D01*
X175781399Y-67186914D01*
X175722089Y-67084187D01*
X175638213Y-67000311D01*
X175535486Y-66941001D01*
X175420909Y-66910300D01*
X175302291Y-66910300D01*
X175187714Y-66941001D01*
X175187712Y-66941001D01*
X175187712Y-66941002D01*
X175084987Y-67000311D01*
X175084984Y-67000313D01*
X175001113Y-67084184D01*
X175001111Y-67084187D01*
X174962364Y-67151299D01*
X174941801Y-67186914D01*
X174911100Y-67301491D01*
X168436500Y-67301491D01*
X168436500Y-65881449D01*
X168436499Y-65881447D01*
X168424868Y-65822970D01*
X168424867Y-65822969D01*
X168380552Y-65756647D01*
X168314230Y-65712332D01*
X168314229Y-65712331D01*
X168255752Y-65700700D01*
X168255748Y-65700700D01*
X166516252Y-65700700D01*
X166516247Y-65700700D01*
X166457770Y-65712331D01*
X166457769Y-65712332D01*
X166391447Y-65756647D01*
X166347132Y-65822969D01*
X166347131Y-65822970D01*
X166335500Y-65881447D01*
X165435173Y-65881447D01*
X165429626Y-65877741D01*
X165343598Y-65820259D01*
X165253222Y-65782824D01*
X165152420Y-65741070D01*
X165152412Y-65741068D01*
X164949469Y-65700700D01*
X164949465Y-65700700D01*
X164742535Y-65700700D01*
X164742530Y-65700700D01*
X164539587Y-65741068D01*
X164539579Y-65741070D01*
X164348403Y-65820258D01*
X164176342Y-65935224D01*
X164030024Y-66081542D01*
X163915058Y-66253603D01*
X163835870Y-66444779D01*
X163835868Y-66444787D01*
X163795500Y-66647730D01*
X163356499Y-66647730D01*
X163316130Y-66444780D01*
X163236941Y-66253602D01*
X163121977Y-66081545D01*
X163121975Y-66081542D01*
X162975657Y-65935224D01*
X162889626Y-65877741D01*
X162803598Y-65820259D01*
X162713222Y-65782824D01*
X162612420Y-65741070D01*
X162612412Y-65741068D01*
X162409469Y-65700700D01*
X162409465Y-65700700D01*
X162202535Y-65700700D01*
X162202530Y-65700700D01*
X161999587Y-65741068D01*
X161999579Y-65741070D01*
X161808403Y-65820258D01*
X161636342Y-65935224D01*
X161490024Y-66081542D01*
X161375057Y-66253603D01*
X161306835Y-66418308D01*
X161262994Y-66472711D01*
X161196700Y-66494776D01*
X161129000Y-66477497D01*
X161081390Y-66426359D01*
X161074343Y-66409173D01*
X161017095Y-66232982D01*
X160920624Y-66043649D01*
X160881270Y-65989482D01*
X160881269Y-65989482D01*
X160248962Y-66621790D01*
X160231925Y-66558207D01*
X160166099Y-66444193D01*
X160073007Y-66351101D01*
X159958993Y-66285275D01*
X159895409Y-66268237D01*
X160527716Y-65635928D01*
X160473550Y-65596575D01*
X160284217Y-65500104D01*
X160082129Y-65434442D01*
X159872246Y-65401200D01*
X159659754Y-65401200D01*
X159449872Y-65434442D01*
X159449869Y-65434442D01*
X159247782Y-65500104D01*
X159058439Y-65596580D01*
X159004282Y-65635927D01*
X159004282Y-65635928D01*
X159636591Y-66268237D01*
X159573007Y-66285275D01*
X159458993Y-66351101D01*
X159365901Y-66444193D01*
X159300075Y-66558207D01*
X159283037Y-66621791D01*
X158650728Y-65989482D01*
X158650727Y-65989482D01*
X158611380Y-66043639D01*
X158514904Y-66232982D01*
X158449242Y-66435069D01*
X158449242Y-66435072D01*
X158416000Y-66644953D01*
X155634900Y-66644953D01*
X155634900Y-65729051D01*
X155630589Y-65707380D01*
X155623267Y-65670569D01*
X155600120Y-65635927D01*
X155578952Y-65604247D01*
X155512630Y-65559932D01*
X155512629Y-65559931D01*
X155454152Y-65548300D01*
X155454148Y-65548300D01*
X153714652Y-65548300D01*
X153714647Y-65548300D01*
X153656170Y-65559931D01*
X153656169Y-65559932D01*
X153589847Y-65604247D01*
X153545532Y-65670569D01*
X153545531Y-65670570D01*
X153533900Y-65729047D01*
X152633573Y-65729047D01*
X152628026Y-65725341D01*
X152541998Y-65667859D01*
X152350820Y-65588670D01*
X152350812Y-65588668D01*
X152147869Y-65548300D01*
X152147865Y-65548300D01*
X151940935Y-65548300D01*
X151940930Y-65548300D01*
X151737987Y-65588668D01*
X151737979Y-65588670D01*
X151546803Y-65667858D01*
X151374742Y-65782824D01*
X151228424Y-65929142D01*
X151113458Y-66101203D01*
X151034270Y-66292379D01*
X151034268Y-66292387D01*
X150993900Y-66495330D01*
X150554899Y-66495330D01*
X150514530Y-66292380D01*
X150435341Y-66101202D01*
X150320377Y-65929145D01*
X150320375Y-65929142D01*
X150174057Y-65782824D01*
X150088026Y-65725341D01*
X150001998Y-65667859D01*
X149810820Y-65588670D01*
X149810812Y-65588668D01*
X149607869Y-65548300D01*
X149607865Y-65548300D01*
X149400935Y-65548300D01*
X149400930Y-65548300D01*
X149197987Y-65588668D01*
X149197979Y-65588670D01*
X149006803Y-65667858D01*
X148834742Y-65782824D01*
X148688424Y-65929142D01*
X148573458Y-66101203D01*
X148494270Y-66292379D01*
X148494268Y-66292387D01*
X148453900Y-66495330D01*
X148014899Y-66495330D01*
X147974530Y-66292380D01*
X147895341Y-66101202D01*
X147780377Y-65929145D01*
X147780375Y-65929142D01*
X147634057Y-65782824D01*
X147548026Y-65725341D01*
X147461998Y-65667859D01*
X147270820Y-65588670D01*
X147270812Y-65588668D01*
X147067869Y-65548300D01*
X147067865Y-65548300D01*
X146860935Y-65548300D01*
X146860930Y-65548300D01*
X146657987Y-65588668D01*
X146657979Y-65588670D01*
X146466803Y-65667858D01*
X146294742Y-65782824D01*
X146148424Y-65929142D01*
X146033457Y-66101203D01*
X145965235Y-66265908D01*
X145921394Y-66320311D01*
X145855100Y-66342376D01*
X145787400Y-66325097D01*
X145739790Y-66273959D01*
X145732743Y-66256773D01*
X145675495Y-66080582D01*
X145579024Y-65891249D01*
X145539670Y-65837082D01*
X145539669Y-65837082D01*
X144907362Y-66469390D01*
X144890325Y-66405807D01*
X144824499Y-66291793D01*
X144731407Y-66198701D01*
X144617393Y-66132875D01*
X144553809Y-66115837D01*
X145186116Y-65483528D01*
X145131950Y-65444175D01*
X144942617Y-65347704D01*
X144740529Y-65282042D01*
X144530646Y-65248800D01*
X144318154Y-65248800D01*
X144108272Y-65282042D01*
X144108269Y-65282042D01*
X143906182Y-65347704D01*
X143716839Y-65444180D01*
X143662682Y-65483527D01*
X143662682Y-65483528D01*
X144294991Y-66115837D01*
X144231407Y-66132875D01*
X144117393Y-66198701D01*
X144024301Y-66291793D01*
X143958475Y-66405807D01*
X143941437Y-66469391D01*
X143309128Y-65837082D01*
X143309127Y-65837082D01*
X143269780Y-65891239D01*
X143173304Y-66080582D01*
X143107642Y-66282669D01*
X143107642Y-66282672D01*
X143074400Y-66492553D01*
X123741530Y-66492553D01*
X123734269Y-63999491D01*
X154184700Y-63999491D01*
X154184700Y-64118109D01*
X154215401Y-64232686D01*
X154274711Y-64335413D01*
X154358587Y-64419289D01*
X154461314Y-64478599D01*
X154575891Y-64509300D01*
X154575894Y-64509300D01*
X154694506Y-64509300D01*
X154694509Y-64509300D01*
X154809086Y-64478599D01*
X154911813Y-64419289D01*
X154995689Y-64335413D01*
X155054999Y-64232686D01*
X155085700Y-64118109D01*
X155085700Y-63999491D01*
X155054999Y-63884914D01*
X154995689Y-63782187D01*
X154911813Y-63698311D01*
X154809086Y-63639001D01*
X154694509Y-63608300D01*
X154575891Y-63608300D01*
X154461314Y-63639001D01*
X154461312Y-63639001D01*
X154461312Y-63639002D01*
X154358587Y-63698311D01*
X154358584Y-63698313D01*
X154274713Y-63782184D01*
X154274711Y-63782187D01*
X154215401Y-63884914D01*
X154184700Y-63999491D01*
X123734269Y-63999491D01*
X123733186Y-63627713D01*
X123733189Y-63627709D01*
X123733095Y-63596034D01*
X123733652Y-63583930D01*
X123747380Y-63439729D01*
X123752023Y-63415946D01*
X123791780Y-63283029D01*
X123800954Y-63260617D01*
X123865808Y-63137961D01*
X123879166Y-63117758D01*
X123966636Y-63010055D01*
X123983665Y-62992841D01*
X124090414Y-62904205D01*
X124110466Y-62890631D01*
X124232409Y-62824449D01*
X124254725Y-62815031D01*
X124387210Y-62773830D01*
X124410921Y-62768934D01*
X124555404Y-62753593D01*
X124567461Y-62752906D01*
X124598746Y-62752660D01*
X124598754Y-62752655D01*
X183357514Y-62283335D01*
X183366008Y-62283267D01*
X183378267Y-62283779D01*
G37*
%TD.AperFunction*%
%TD*%
M02*
