%TF.GenerationSoftware,KiCad,Pcbnew,9.0.3*%
%TF.CreationDate,2025-09-14T19:53:38+05:30*%
%TF.ProjectId,ESP32 IOT,45535033-3220-4494-9f54-2e6b69636164,rev?*%
%TF.SameCoordinates,Original*%
%TF.FileFunction,Copper,L1,Top*%
%TF.FilePolarity,Positive*%
%FSLAX46Y46*%
G04 Gerber Fmt 4.6, Leading zero omitted, Abs format (unit mm)*
G04 Created by KiCad (PCBNEW 9.0.3) date 2025-09-14 19:53:38*
%MOMM*%
%LPD*%
G01*
G04 APERTURE LIST*
G04 Aperture macros list*
%AMRoundRect*
0 Rectangle with rounded corners*
0 $1 Rounding radius*
0 $2 $3 $4 $5 $6 $7 $8 $9 X,Y pos of 4 corners*
0 Add a 4 corners polygon primitive as box body*
4,1,4,$2,$3,$4,$5,$6,$7,$8,$9,$2,$3,0*
0 Add four circle primitives for the rounded corners*
1,1,$1+$1,$2,$3*
1,1,$1+$1,$4,$5*
1,1,$1+$1,$6,$7*
1,1,$1+$1,$8,$9*
0 Add four rect primitives between the rounded corners*
20,1,$1+$1,$2,$3,$4,$5,0*
20,1,$1+$1,$4,$5,$6,$7,0*
20,1,$1+$1,$6,$7,$8,$9,0*
20,1,$1+$1,$8,$9,$2,$3,0*%
G04 Aperture macros list end*
%TA.AperFunction,SMDPad,CuDef*%
%ADD10RoundRect,0.250000X-0.450000X0.262500X-0.450000X-0.262500X0.450000X-0.262500X0.450000X0.262500X0*%
%TD*%
%TA.AperFunction,SMDPad,CuDef*%
%ADD11RoundRect,0.250000X0.475000X-0.250000X0.475000X0.250000X-0.475000X0.250000X-0.475000X-0.250000X0*%
%TD*%
%TA.AperFunction,SMDPad,CuDef*%
%ADD12R,0.350000X0.500000*%
%TD*%
%TA.AperFunction,SMDPad,CuDef*%
%ADD13RoundRect,0.250000X0.420000X0.945000X-0.420000X0.945000X-0.420000X-0.945000X0.420000X-0.945000X0*%
%TD*%
%TA.AperFunction,SMDPad,CuDef*%
%ADD14R,1.500000X0.900000*%
%TD*%
%TA.AperFunction,HeatsinkPad*%
%ADD15C,0.600000*%
%TD*%
%TA.AperFunction,HeatsinkPad*%
%ADD16R,2.900000X2.900000*%
%TD*%
%TA.AperFunction,SMDPad,CuDef*%
%ADD17R,0.550000X0.570000*%
%TD*%
%TA.AperFunction,SMDPad,CuDef*%
%ADD18R,0.950000X2.150000*%
%TD*%
%TA.AperFunction,SMDPad,CuDef*%
%ADD19R,3.250000X2.150000*%
%TD*%
%TA.AperFunction,SMDPad,CuDef*%
%ADD20RoundRect,0.250000X-0.262500X-0.450000X0.262500X-0.450000X0.262500X0.450000X-0.262500X0.450000X0*%
%TD*%
%TA.AperFunction,SMDPad,CuDef*%
%ADD21R,1.000000X1.500000*%
%TD*%
%TA.AperFunction,SMDPad,CuDef*%
%ADD22R,0.700000X1.500000*%
%TD*%
%TA.AperFunction,SMDPad,CuDef*%
%ADD23R,1.500000X2.800000*%
%TD*%
%TA.AperFunction,SMDPad,CuDef*%
%ADD24RoundRect,0.100000X-0.495000X-0.100000X0.495000X-0.100000X0.495000X0.100000X-0.495000X0.100000X0*%
%TD*%
%TA.AperFunction,SMDPad,CuDef*%
%ADD25RoundRect,0.250000X0.250000X0.475000X-0.250000X0.475000X-0.250000X-0.475000X0.250000X-0.475000X0*%
%TD*%
%TA.AperFunction,SMDPad,CuDef*%
%ADD26C,1.000000*%
%TD*%
%TA.AperFunction,SMDPad,CuDef*%
%ADD27RoundRect,0.250000X0.262500X0.450000X-0.262500X0.450000X-0.262500X-0.450000X0.262500X-0.450000X0*%
%TD*%
%TA.AperFunction,SMDPad,CuDef*%
%ADD28R,1.200000X1.200000*%
%TD*%
%TA.AperFunction,SMDPad,CuDef*%
%ADD29RoundRect,0.250000X0.450000X-0.262500X0.450000X0.262500X-0.450000X0.262500X-0.450000X-0.262500X0*%
%TD*%
%TA.AperFunction,SMDPad,CuDef*%
%ADD30RoundRect,0.162500X-0.650000X-0.162500X0.650000X-0.162500X0.650000X0.162500X-0.650000X0.162500X0*%
%TD*%
%TA.AperFunction,SMDPad,CuDef*%
%ADD31R,1.100000X0.800000*%
%TD*%
%TA.AperFunction,SMDPad,CuDef*%
%ADD32R,1.100000X1.000000*%
%TD*%
%TA.AperFunction,SMDPad,CuDef*%
%ADD33RoundRect,0.250000X-0.475000X0.250000X-0.475000X-0.250000X0.475000X-0.250000X0.475000X0.250000X0*%
%TD*%
%TA.AperFunction,SMDPad,CuDef*%
%ADD34RoundRect,0.150000X0.150000X-0.587500X0.150000X0.587500X-0.150000X0.587500X-0.150000X-0.587500X0*%
%TD*%
%TA.AperFunction,SMDPad,CuDef*%
%ADD35RoundRect,0.062500X0.350000X0.062500X-0.350000X0.062500X-0.350000X-0.062500X0.350000X-0.062500X0*%
%TD*%
%TA.AperFunction,SMDPad,CuDef*%
%ADD36RoundRect,0.062500X0.062500X0.350000X-0.062500X0.350000X-0.062500X-0.350000X0.062500X-0.350000X0*%
%TD*%
%TA.AperFunction,HeatsinkPad*%
%ADD37R,2.500000X2.500000*%
%TD*%
%TA.AperFunction,SMDPad,CuDef*%
%ADD38RoundRect,0.250000X-0.945000X0.420000X-0.945000X-0.420000X0.945000X-0.420000X0.945000X0.420000X0*%
%TD*%
%TA.AperFunction,SMDPad,CuDef*%
%ADD39RoundRect,0.250000X-0.250000X-0.475000X0.250000X-0.475000X0.250000X0.475000X-0.250000X0.475000X0*%
%TD*%
%TA.AperFunction,SMDPad,CuDef*%
%ADD40R,1.000000X5.500000*%
%TD*%
%TA.AperFunction,SMDPad,CuDef*%
%ADD41R,1.600000X3.000000*%
%TD*%
%TA.AperFunction,SMDPad,CuDef*%
%ADD42R,0.300000X0.300000*%
%TD*%
%TA.AperFunction,SMDPad,CuDef*%
%ADD43R,0.300000X0.900000*%
%TD*%
%TA.AperFunction,SMDPad,CuDef*%
%ADD44R,0.900000X0.300000*%
%TD*%
%TA.AperFunction,ComponentPad*%
%ADD45C,0.600000*%
%TD*%
%TA.AperFunction,SMDPad,CuDef*%
%ADD46R,1.800000X1.800000*%
%TD*%
%TA.AperFunction,ComponentPad*%
%ADD47C,2.400000*%
%TD*%
%TA.AperFunction,ComponentPad*%
%ADD48R,1.700000X1.700000*%
%TD*%
%TA.AperFunction,ComponentPad*%
%ADD49C,1.700000*%
%TD*%
%TA.AperFunction,SMDPad,CuDef*%
%ADD50RoundRect,0.150000X-0.150000X0.512500X-0.150000X-0.512500X0.150000X-0.512500X0.150000X0.512500X0*%
%TD*%
%TA.AperFunction,SMDPad,CuDef*%
%ADD51R,0.300000X1.200000*%
%TD*%
%TA.AperFunction,ComponentPad*%
%ADD52C,0.650000*%
%TD*%
%TA.AperFunction,SMDPad,CuDef*%
%ADD53R,0.200000X1.000000*%
%TD*%
%TA.AperFunction,ComponentPad*%
%ADD54O,1.050000X2.100000*%
%TD*%
%TA.AperFunction,ComponentPad*%
%ADD55C,1.208000*%
%TD*%
%TA.AperFunction,ViaPad*%
%ADD56C,0.600000*%
%TD*%
%TA.AperFunction,ViaPad*%
%ADD57C,0.500000*%
%TD*%
%TA.AperFunction,ViaPad*%
%ADD58C,0.800000*%
%TD*%
%TA.AperFunction,Conductor*%
%ADD59C,0.200000*%
%TD*%
%TA.AperFunction,Conductor*%
%ADD60C,0.254000*%
%TD*%
%TA.AperFunction,Conductor*%
%ADD61C,0.600000*%
%TD*%
%TA.AperFunction,Conductor*%
%ADD62C,0.400000*%
%TD*%
%TA.AperFunction,Conductor*%
%ADD63C,0.300000*%
%TD*%
%TA.AperFunction,Conductor*%
%ADD64C,0.800000*%
%TD*%
%TA.AperFunction,Conductor*%
%ADD65C,1.000000*%
%TD*%
G04 APERTURE END LIST*
D10*
%TO.P,R4,1*%
%TO.N,Net-(J1-CC1)*%
X153974800Y-108153200D03*
%TO.P,R4,2*%
%TO.N,GND*%
X153974800Y-109978200D03*
%TD*%
D11*
%TO.P,C15,1*%
%TO.N,+3.3V*%
X173634400Y-70530800D03*
%TO.P,C15,2*%
%TO.N,Net-(C15-Pad2)*%
X173634400Y-68630800D03*
%TD*%
D12*
%TO.P,U2,1,GND*%
%TO.N,Net-(C15-Pad2)*%
X175291200Y-68511200D03*
%TO.P,U2,2,CSB*%
%TO.N,+3.3V*%
X175941200Y-68511200D03*
%TO.P,U2,3,SDI*%
%TO.N,/ESP32-C3-02/SDA*%
X176591200Y-68511200D03*
%TO.P,U2,4,SCK*%
%TO.N,/ESP32-C3-02/SCL*%
X177241200Y-68511200D03*
%TO.P,U2,5,SDO*%
%TO.N,GND*%
X177241200Y-70561200D03*
%TO.P,U2,6,VDDIO*%
%TO.N,+3.3V*%
X176591200Y-70561200D03*
%TO.P,U2,7,GND*%
%TO.N,GND*%
X175941200Y-70561200D03*
%TO.P,U2,8,VDD*%
%TO.N,+3.3V*%
X175291200Y-70561200D03*
%TD*%
D13*
%TO.P,C12,1*%
%TO.N,+3.3V*%
X199472800Y-90932000D03*
%TO.P,C12,2*%
%TO.N,GND*%
X196392800Y-90932000D03*
%TD*%
D10*
%TO.P,R14,1*%
%TO.N,Net-(D5-Pad-)*%
X153822400Y-89665800D03*
%TO.P,R14,2*%
%TO.N,Net-(U8-~{TXT}{slash}GPIO.2)*%
X153822400Y-91490800D03*
%TD*%
%TO.P,R32,1*%
%TO.N,+3.3V*%
X171070900Y-108051600D03*
%TO.P,R32,2*%
%TO.N,/ESP32-C3-02/EN*%
X171070900Y-109876600D03*
%TD*%
%TO.P,R7,1*%
%TO.N,Net-(D3-Pad-)*%
X127863600Y-104290500D03*
%TO.P,R7,2*%
%TO.N,/CHARGING_POWER_GOOD*%
X127863600Y-106115500D03*
%TD*%
D14*
%TO.P,U3,1,3V3*%
%TO.N,+3.3V*%
X198544600Y-73691800D03*
%TO.P,U3,2,EN*%
%TO.N,/ESP32-C3-02/EN*%
X198544600Y-75191800D03*
%TO.P,U3,3,IO4*%
%TO.N,/ESP32-C3-02/SDA*%
X198544600Y-76691800D03*
%TO.P,U3,4,IO5*%
%TO.N,/ESP32-C3-02/MIC_OUT*%
X198544600Y-78191800D03*
%TO.P,U3,5,IO6*%
%TO.N,Net-(U3-IO6)*%
X198544600Y-79691800D03*
%TO.P,U3,6,IO7*%
%TO.N,Net-(U3-IO7)*%
X198544600Y-81191800D03*
%TO.P,U3,7,IO8*%
%TO.N,/ESP32-C3-02/GPIO8*%
X198544600Y-82691800D03*
%TO.P,U3,8,IO9*%
%TO.N,/ESP32-C3-02/BOOT*%
X198544600Y-84191800D03*
%TO.P,U3,9,GND*%
%TO.N,GND*%
X198544600Y-85691800D03*
%TO.P,U3,10,IO10*%
%TO.N,/ESP32-C3-02/CS*%
X216044600Y-85691800D03*
%TO.P,U3,11,IO20/RXD*%
%TO.N,/ESP32-C3-02/RX_TX*%
X216044600Y-84191800D03*
%TO.P,U3,12,IO21/TXD*%
%TO.N,/ESP32-C3-02/TX_RX*%
X216044600Y-82691800D03*
%TO.P,U3,13,IO18*%
%TO.N,/ESP32-C3-02/GPIO18*%
X216044600Y-81191800D03*
%TO.P,U3,14,IO19*%
%TO.N,/ESP32-C3-02/GPIO19*%
X216044600Y-79691800D03*
%TO.P,U3,15,IO3*%
%TO.N,/ESP32-C3-02/SCL*%
X216044600Y-78191800D03*
%TO.P,U3,16,IO2*%
%TO.N,/ESP32-C3-02/MISO_DO*%
X216044600Y-76691800D03*
%TO.P,U3,17,IO1*%
%TO.N,/ESP32-C3-02/PHOTO_C*%
X216044600Y-75191800D03*
%TO.P,U3,18,IO0*%
%TO.N,/ESP32-C3-02/CD_SD*%
X216044600Y-73691800D03*
D15*
%TO.P,U3,19,GND*%
%TO.N,GND*%
X207154600Y-79341800D03*
X207154600Y-80441800D03*
X207704600Y-78791800D03*
X207704600Y-79891800D03*
X207704600Y-80991800D03*
X208254600Y-79341800D03*
D16*
X208254600Y-79891800D03*
D15*
X208254600Y-80441800D03*
X208804600Y-78791800D03*
X208804600Y-79891800D03*
X208804600Y-80991800D03*
X209354600Y-79341800D03*
X209354600Y-80441800D03*
%TD*%
D17*
%TO.P,S2,1*%
%TO.N,GND*%
X175716000Y-115917200D03*
%TO.P,S2,2*%
X173166000Y-115917200D03*
%TO.P,S2,3*%
%TO.N,/ESP32-C3-02/EN*%
X175716000Y-114757200D03*
%TO.P,S2,4*%
X173166000Y-114757200D03*
%TD*%
D18*
%TO.P,VR1,1,GND*%
%TO.N,GND*%
X134402800Y-86641900D03*
%TO.P,VR1,2,VOUT_2*%
%TO.N,+3.3V*%
X136702800Y-86641900D03*
%TO.P,VR1,3,VIN*%
%TO.N,/+5V*%
X139002800Y-86641900D03*
D19*
%TO.P,VR1,4,VOUT_4*%
%TO.N,+3.3V*%
X136702800Y-80841900D03*
%TD*%
D10*
%TO.P,R22,1*%
%TO.N,Net-(U6-DO{slash}IO_{1})*%
X171135000Y-85119200D03*
%TO.P,R22,2*%
%TO.N,/ESP32-C3-02/MISO_DO*%
X171135000Y-86944200D03*
%TD*%
D20*
%TO.P,R17,1*%
%TO.N,/ESP32-C3-02/MOSI_DI*%
X192485000Y-82550000D03*
%TO.P,R17,2*%
%TO.N,Net-(U3-IO7)*%
X194310000Y-82550000D03*
%TD*%
D21*
%TO.P,J3,1,CD/DAT3*%
%TO.N,/ESP32-C3-02/CD_SD*%
X209120000Y-93768600D03*
%TO.P,J3,2,CMD*%
%TO.N,/ESP32-C3-02/MOSI_DI*%
X206620000Y-93768600D03*
%TO.P,J3,3,VSS1*%
%TO.N,GND*%
X204120000Y-93768600D03*
%TO.P,J3,4,VDD1*%
%TO.N,+3.3V*%
X201620000Y-93768600D03*
%TO.P,J3,5,CLK*%
%TO.N,/ESP32-C3-02/SCLK*%
X199120000Y-93768600D03*
%TO.P,J3,6,VSS2*%
%TO.N,GND*%
X196620000Y-93768600D03*
%TO.P,J3,7,DAT0*%
%TO.N,Net-(J3-DAT0)*%
X194195000Y-93768600D03*
%TO.P,J3,8,DAT1*%
%TO.N,GND*%
X192495000Y-93768600D03*
%TO.P,J3,9,DAT2*%
X211620000Y-93768600D03*
D22*
%TO.P,J3,CD_IND,CD_IND*%
%TO.N,unconnected-(J3-PadCD_IND)*%
X191195000Y-93768600D03*
D23*
%TO.P,J3,G1,SHIELD_GND*%
%TO.N,GND*%
X188595000Y-95568600D03*
%TO.P,J3,G2,SHIELD_GND*%
X213695000Y-95568600D03*
%TO.P,J3,G3,SHIELD_GND*%
X215895000Y-117068600D03*
%TO.P,J3,G4,SHIELD_GND*%
X188595000Y-117068600D03*
D22*
%TO.P,J3,WP,WP*%
%TO.N,unconnected-(J3-PadWP)*%
X189995000Y-93768600D03*
%TD*%
D20*
%TO.P,R10,1*%
%TO.N,/PWD_LED*%
X128701800Y-79855700D03*
%TO.P,R10,2*%
%TO.N,GND*%
X130526800Y-79855700D03*
%TD*%
D24*
%TO.P,U7,1,IN+*%
%TO.N,Net-(U7-IN+)*%
X145796000Y-74131400D03*
%TO.P,U7,2,GND*%
%TO.N,GND*%
X145796000Y-74781400D03*
%TO.P,U7,3,IN-*%
%TO.N,Net-(U7-IN-)*%
X145796000Y-75431400D03*
%TO.P,U7,4,OUT*%
%TO.N,/ESP32-C3-02/MIC_OUT*%
X147716000Y-75431400D03*
%TO.P,U7,5,VCC*%
%TO.N,+3.3V*%
X147716000Y-74131400D03*
%TD*%
D25*
%TO.P,C2,1*%
%TO.N,/+5V*%
X137348000Y-92860500D03*
%TO.P,C2,2*%
%TO.N,GND*%
X135448000Y-92860500D03*
%TD*%
D26*
%TO.P,TP5,1,1*%
%TO.N,/ESP32-C3-02/CS*%
X180390800Y-80568800D03*
%TD*%
D20*
%TO.P,R15,1*%
%TO.N,/ESP32-C3-02/SCLK*%
X192434200Y-80264000D03*
%TO.P,R15,2*%
%TO.N,Net-(U3-IO6)*%
X194259200Y-80264000D03*
%TD*%
D27*
%TO.P,R26,1*%
%TO.N,Net-(C16-Pad2)*%
X151566800Y-70463400D03*
%TO.P,R26,2*%
%TO.N,+3.3V*%
X149741800Y-70463400D03*
%TD*%
D28*
%TO.P,D6,+*%
%TO.N,+3.3V*%
X156616400Y-85479200D03*
%TO.P,D6,-*%
%TO.N,Net-(D6-Pad-)*%
X156616400Y-87579200D03*
%TD*%
D10*
%TO.P,R29,1*%
%TO.N,GND*%
X159186800Y-71328900D03*
%TO.P,R29,2*%
%TO.N,Net-(U7-IN+)*%
X159186800Y-73153900D03*
%TD*%
D20*
%TO.P,R31,1*%
%TO.N,GND*%
X145698200Y-77673200D03*
%TO.P,R31,2*%
%TO.N,/ESP32-C3-02/MIC_OUT*%
X147523200Y-77673200D03*
%TD*%
D29*
%TO.P,R1,1*%
%TO.N,Net-(U1-~{TE})*%
X138176000Y-105965000D03*
%TO.P,R1,2*%
%TO.N,GND*%
X138176000Y-104140000D03*
%TD*%
D25*
%TO.P,C20,1*%
%TO.N,GND*%
X151506000Y-77622400D03*
%TO.P,C20,2*%
%TO.N,/ESP32-C3-02/MIC_OUT*%
X149606000Y-77622400D03*
%TD*%
D30*
%TO.P,U6,1,~{CS}*%
%TO.N,/ESP32-C3-02/CS*%
X173577500Y-83820000D03*
%TO.P,U6,2,DO/IO_{1}*%
%TO.N,Net-(U6-DO{slash}IO_{1})*%
X173577500Y-85090000D03*
%TO.P,U6,3,~{WP}/IO_{2}*%
%TO.N,+3.3V*%
X173577500Y-86360000D03*
%TO.P,U6,4,GND*%
%TO.N,GND*%
X173577500Y-87630000D03*
%TO.P,U6,5,DI/IO_{0}*%
%TO.N,/ESP32-C3-02/MOSI_DI*%
X180752500Y-87630000D03*
%TO.P,U6,6,CLK*%
%TO.N,/ESP32-C3-02/SCLK*%
X180752500Y-86360000D03*
%TO.P,U6,7,~{HOLD}/~{RESET}/IO_{3}*%
%TO.N,+3.3V*%
X180752500Y-85090000D03*
%TO.P,U6,8,VCC*%
X180752500Y-83820000D03*
%TD*%
D31*
%TO.P,Q1,1*%
%TO.N,GND*%
X162486600Y-83727200D03*
%TO.P,Q1,2*%
%TO.N,N/C*%
X162486600Y-84827200D03*
D32*
%TO.P,Q1,3*%
%TO.N,/ESP32-C3-02/PHOTO_C*%
X165996600Y-84277200D03*
%TD*%
D33*
%TO.P,C10,1*%
%TO.N,GND*%
X163779200Y-96316000D03*
%TO.P,C10,2*%
%TO.N,+3.3V*%
X163779200Y-98216000D03*
%TD*%
D34*
%TO.P,Q3,1,B*%
%TO.N,Net-(Q3-B)*%
X179224300Y-107846100D03*
%TO.P,Q3,2,E*%
%TO.N,/ESP32-C3-02/BOOT*%
X181124300Y-107846100D03*
%TO.P,Q3,3,C*%
%TO.N,/ESP32-C3-02/DTR*%
X180174300Y-105971100D03*
%TD*%
D27*
%TO.P,R16,1*%
%TO.N,Net-(J3-DAT0)*%
X191414400Y-91541600D03*
%TO.P,R16,2*%
%TO.N,/ESP32-C3-02/MISO_DO*%
X189589400Y-91541600D03*
%TD*%
D35*
%TO.P,U1,1,OUT*%
%TO.N,/+5V*%
X142086700Y-113987300D03*
%TO.P,U1,2,VPCC*%
%TO.N,/+5V_USB*%
X142086700Y-113487300D03*
%TO.P,U1,3,SEL*%
%TO.N,GND*%
X142086700Y-112987300D03*
%TO.P,U1,4,PROG2*%
%TO.N,/+5V_USB*%
X142086700Y-112487300D03*
%TO.P,U1,5,THERM*%
%TO.N,Net-(U1-THERM)*%
X142086700Y-111987300D03*
D36*
%TO.P,U1,6,~{PG}*%
%TO.N,/CHARGING*%
X141149200Y-111049800D03*
%TO.P,U1,7,STAT2*%
%TO.N,/CHARGING_POWER_GOOD*%
X140649200Y-111049800D03*
%TO.P,U1,8,STAT1/~{LBO}*%
%TO.N,/CHARGED*%
X140149200Y-111049800D03*
%TO.P,U1,9,~{TE}*%
%TO.N,Net-(U1-~{TE})*%
X139649200Y-111049800D03*
%TO.P,U1,10,V_{SS}*%
%TO.N,GND*%
X139149200Y-111049800D03*
D35*
%TO.P,U1,11,V_{SS}*%
X138211700Y-111987300D03*
%TO.P,U1,12,PROG3*%
%TO.N,Net-(U1-PROG3)*%
X138211700Y-112487300D03*
%TO.P,U1,13,PROG1*%
%TO.N,Net-(U1-PROG1)*%
X138211700Y-112987300D03*
%TO.P,U1,14,V_{BAT}*%
%TO.N,/VBAT*%
X138211700Y-113487300D03*
%TO.P,U1,15,V_{BAT}*%
X138211700Y-113987300D03*
D36*
%TO.P,U1,16,V_{BAT_SENSE}*%
X139149200Y-114924800D03*
%TO.P,U1,17,CE*%
%TO.N,/+5V_USB*%
X139649200Y-114924800D03*
%TO.P,U1,18,IN*%
X140149200Y-114924800D03*
%TO.P,U1,19,IN*%
X140649200Y-114924800D03*
%TO.P,U1,20,OUT*%
%TO.N,/+5V*%
X141149200Y-114924800D03*
D37*
%TO.P,U1,21,V_{SS}*%
%TO.N,GND*%
X140149200Y-112987300D03*
%TD*%
D33*
%TO.P,C14,1*%
%TO.N,+3.3V*%
X183073000Y-84063800D03*
%TO.P,C14,2*%
%TO.N,GND*%
X183073000Y-85963800D03*
%TD*%
D29*
%TO.P,R30,1*%
%TO.N,Net-(C19-Pad2)*%
X161625200Y-73253600D03*
%TO.P,R30,2*%
%TO.N,Net-(U7-IN-)*%
X161625200Y-71428600D03*
%TD*%
D38*
%TO.P,C7,1*%
%TO.N,+3.3V*%
X193217800Y-74034400D03*
%TO.P,C7,2*%
%TO.N,GND*%
X193217800Y-77114400D03*
%TD*%
D28*
%TO.P,D5,+*%
%TO.N,+3.3V*%
X153873200Y-85530000D03*
%TO.P,D5,-*%
%TO.N,Net-(D5-Pad-)*%
X153873200Y-87630000D03*
%TD*%
D10*
%TO.P,R6,1*%
%TO.N,GND*%
X135915400Y-104110800D03*
%TO.P,R6,2*%
%TO.N,Net-(U1-PROG3)*%
X135915400Y-105935800D03*
%TD*%
D11*
%TO.P,C1,1*%
%TO.N,/VBUS*%
X165658800Y-103378000D03*
%TO.P,C1,2*%
%TO.N,GND*%
X165658800Y-101478000D03*
%TD*%
D39*
%TO.P,C13,1*%
%TO.N,+3.3V*%
X202011200Y-91490800D03*
%TO.P,C13,2*%
%TO.N,GND*%
X203911200Y-91490800D03*
%TD*%
D20*
%TO.P,R27,1*%
%TO.N,Net-(U7-IN+)*%
X144912000Y-71581000D03*
%TO.P,R27,2*%
%TO.N,+3.3V*%
X146737000Y-71581000D03*
%TD*%
D10*
%TO.P,R11,1*%
%TO.N,+3.3V*%
X166725600Y-92153100D03*
%TO.P,R11,2*%
%TO.N,Net-(U8-~{RST})*%
X166725600Y-93978100D03*
%TD*%
D29*
%TO.P,R2,1*%
%TO.N,Net-(U1-THERM)*%
X140411200Y-105965000D03*
%TO.P,R2,2*%
%TO.N,GND*%
X140411200Y-104140000D03*
%TD*%
%TO.P,R19,1*%
%TO.N,/ESP32-C3-02/CD_SD*%
X209143600Y-91338400D03*
%TO.P,R19,2*%
%TO.N,+3.3V*%
X209143600Y-89513400D03*
%TD*%
D28*
%TO.P,D4,+*%
%TO.N,+3.3V*%
X124646000Y-79804900D03*
%TO.P,D4,-*%
%TO.N,/PWD_LED*%
X126746000Y-79804900D03*
%TD*%
%TO.P,D2,+*%
%TO.N,/+5V_USB*%
X125274700Y-98105900D03*
%TO.P,D2,-*%
%TO.N,Net-(D2-Pad-)*%
X125274700Y-100205900D03*
%TD*%
D20*
%TO.P,R34,1*%
%TO.N,/ESP32-C3-02/RTS*%
X179173500Y-110261400D03*
%TO.P,R34,2*%
%TO.N,Net-(Q3-B)*%
X180998500Y-110261400D03*
%TD*%
D40*
%TO.P,J2,1,1*%
%TO.N,GND*%
X129204000Y-115125700D03*
%TO.P,J2,2,2*%
%TO.N,/VBAT*%
X131204000Y-115125700D03*
D41*
%TO.P,J2,S1*%
%TO.N,N/C*%
X126804000Y-112875700D03*
%TO.P,J2,S2*%
X133604000Y-112875700D03*
%TD*%
D10*
%TO.P,R9,1*%
%TO.N,Net-(D1-Pad-)*%
X130505200Y-104286700D03*
%TO.P,R9,2*%
%TO.N,/CHARGING*%
X130505200Y-106111700D03*
%TD*%
D34*
%TO.P,Q2,1,B*%
%TO.N,Net-(Q2-B)*%
X173666700Y-107873800D03*
%TO.P,Q2,2,E*%
%TO.N,/ESP32-C3-02/RTS*%
X175566700Y-107873800D03*
%TO.P,Q2,3,C*%
%TO.N,/ESP32-C3-02/EN*%
X174616700Y-105998800D03*
%TD*%
D25*
%TO.P,C21,1*%
%TO.N,/ESP32-C3-02/BOOT*%
X180875300Y-112869200D03*
%TO.P,C21,2*%
%TO.N,GND*%
X178975300Y-112869200D03*
%TD*%
D42*
%TO.P,U8,1,RS485/GPIO.1*%
%TO.N,unconnected-(U8-RS485{slash}GPIO.1-Pad1)*%
X158566800Y-98677200D03*
D43*
%TO.P,U8,2,CLK/GPIO.0*%
%TO.N,unconnected-(U8-CLK{slash}GPIO.0-Pad2)*%
X159066800Y-98977200D03*
%TO.P,U8,3,GND*%
%TO.N,GND*%
X159566800Y-98977200D03*
%TO.P,U8,4,D+*%
%TO.N,/ESP32-C3-02/USB_D+*%
X160066800Y-98977200D03*
%TO.P,U8,5,D-*%
%TO.N,/ESP32-C3-02/USB_D-*%
X160566800Y-98977200D03*
D42*
%TO.P,U8,6,VDD*%
%TO.N,+3.3V*%
X161066800Y-98677200D03*
D44*
%TO.P,U8,7,VREGIN*%
X161366800Y-98177200D03*
%TO.P,U8,8,VBUS*%
%TO.N,Net-(U8-VBUS)*%
X161366800Y-97677200D03*
%TO.P,U8,9,~{RST}*%
%TO.N,Net-(U8-~{RST})*%
X161366800Y-97177200D03*
%TO.P,U8,10,NC*%
%TO.N,unconnected-(U8-NC-Pad10)*%
X161366800Y-96677200D03*
D42*
%TO.P,U8,11,~{SUSPEND}*%
%TO.N,unconnected-(U8-~{SUSPEND}-Pad11)*%
X161066800Y-96177200D03*
D43*
%TO.P,U8,12,GND*%
%TO.N,GND*%
X160566800Y-95877200D03*
%TO.P,U8,13,~{WAKEUP}*%
%TO.N,unconnected-(U8-~{WAKEUP}-Pad13)*%
X160066800Y-95877200D03*
%TO.P,U8,14,SUSPEND*%
%TO.N,unconnected-(U8-SUSPEND-Pad14)*%
X159566800Y-95877200D03*
%TO.P,U8,15,~{CTS}*%
%TO.N,/ESP32-C3-02/DTR*%
X159066800Y-95877200D03*
D42*
%TO.P,U8,16,~{RTS}*%
%TO.N,/ESP32-C3-02/RTS*%
X158566800Y-96177200D03*
D44*
%TO.P,U8,17,RXD*%
%TO.N,/ESP32-C3-02/RX_TX*%
X158266800Y-96677200D03*
%TO.P,U8,18,TXD*%
%TO.N,/ESP32-C3-02/TX_RX*%
X158266800Y-97177200D03*
%TO.P,U8,19,~{RXT}/GPIO.3*%
%TO.N,Net-(U8-~{RXT}{slash}GPIO.3)*%
X158266800Y-97677200D03*
%TO.P,U8,20,~{TXT}/GPIO.2*%
%TO.N,Net-(U8-~{TXT}{slash}GPIO.2)*%
X158266800Y-98177200D03*
D45*
%TO.P,U8,21,GND*%
%TO.N,GND*%
X159816800Y-97877200D03*
X159366800Y-97427200D03*
X159816800Y-97427200D03*
D46*
X159816800Y-97427200D03*
D45*
X160266800Y-97427200D03*
X159816800Y-96977200D03*
%TD*%
D39*
%TO.P,C22,1*%
%TO.N,/ESP32-C3-02/EN*%
X173539700Y-112826800D03*
%TO.P,C22,2*%
%TO.N,GND*%
X175439700Y-112826800D03*
%TD*%
D38*
%TO.P,C4,1*%
%TO.N,+3.3V*%
X129692400Y-82192500D03*
%TO.P,C4,2*%
%TO.N,GND*%
X129692400Y-85272500D03*
%TD*%
D33*
%TO.P,C8,1*%
%TO.N,+3.3V*%
X196316600Y-73995200D03*
%TO.P,C8,2*%
%TO.N,GND*%
X196316600Y-75895200D03*
%TD*%
D38*
%TO.P,C9,1*%
%TO.N,GND*%
X166979600Y-95792800D03*
%TO.P,C9,2*%
%TO.N,+3.3V*%
X166979600Y-98872800D03*
%TD*%
D10*
%TO.P,R24,1*%
%TO.N,/ESP32-C3-02/SCL*%
X178866800Y-68736200D03*
%TO.P,R24,2*%
%TO.N,+3.3V*%
X178866800Y-70561200D03*
%TD*%
D33*
%TO.P,C5,1*%
%TO.N,+3.3V*%
X126619000Y-82116300D03*
%TO.P,C5,2*%
%TO.N,GND*%
X126619000Y-84016300D03*
%TD*%
D26*
%TO.P,TP2,1,1*%
%TO.N,/ESP32-C3-02/MISO_DO*%
X180238400Y-97637600D03*
%TD*%
D10*
%TO.P,R3,1*%
%TO.N,Net-(J1-CC2)*%
X167182800Y-110288700D03*
%TO.P,R3,2*%
%TO.N,GND*%
X167182800Y-112113700D03*
%TD*%
D47*
%TO.P,F1,1*%
%TO.N,/+5V_USB*%
X147828000Y-97383600D03*
%TO.P,F1,2*%
%TO.N,/VBUS*%
X147828000Y-92383600D03*
%TD*%
D27*
%TO.P,R12,1*%
%TO.N,/VBUS*%
X171549700Y-101838000D03*
%TO.P,R12,2*%
%TO.N,Net-(U8-VBUS)*%
X169724700Y-101838000D03*
%TD*%
D20*
%TO.P,R13,1*%
%TO.N,Net-(U8-VBUS)*%
X169695500Y-99704400D03*
%TO.P,R13,2*%
%TO.N,GND*%
X171520500Y-99704400D03*
%TD*%
D26*
%TO.P,TP3,1,1*%
%TO.N,/ESP32-C3-02/SCLK*%
X187248800Y-85344000D03*
%TD*%
D39*
%TO.P,C6,1*%
%TO.N,/+5V_USB*%
X139056800Y-117346100D03*
%TO.P,C6,2*%
%TO.N,GND*%
X140956800Y-117346100D03*
%TD*%
D17*
%TO.P,S1,1*%
%TO.N,GND*%
X181129300Y-115968000D03*
%TO.P,S1,2*%
X178579300Y-115968000D03*
%TO.P,S1,3*%
%TO.N,/ESP32-C3-02/BOOT*%
X181129300Y-114808000D03*
%TO.P,S1,4*%
X178579300Y-114808000D03*
%TD*%
D48*
%TO.P,J5,1,Pin_1*%
%TO.N,+3.3V*%
X154584400Y-66598800D03*
D49*
%TO.P,J5,2,Pin_2*%
%TO.N,/ESP32-C3-02/GPIO8*%
X152044400Y-66598800D03*
%TO.P,J5,3,Pin_3*%
%TO.N,/ESP32-C3-02/GPIO18*%
X149504400Y-66598800D03*
%TO.P,J5,4,Pin_4*%
%TO.N,/ESP32-C3-02/GPIO19*%
X146964400Y-66598800D03*
%TO.P,J5,5,Pin_5*%
%TO.N,GND*%
X144424400Y-66598800D03*
%TD*%
D10*
%TO.P,R25,1*%
%TO.N,/ESP32-C3-02/SDA*%
X180898800Y-68736200D03*
%TO.P,R25,2*%
%TO.N,+3.3V*%
X180898800Y-70561200D03*
%TD*%
D29*
%TO.P,R28,1*%
%TO.N,Net-(U7-IN+)*%
X156596000Y-73101200D03*
%TO.P,R28,2*%
%TO.N,Net-(C16-Pad2)*%
X156596000Y-71276200D03*
%TD*%
D48*
%TO.P,J4,1,Pin_1*%
%TO.N,+3.3V*%
X167386000Y-66751200D03*
D49*
%TO.P,J4,2,Pin_2*%
%TO.N,/ESP32-C3-02/SDA*%
X164846000Y-66751200D03*
%TO.P,J4,3,Pin_3*%
%TO.N,/ESP32-C3-02/SCL*%
X162306000Y-66751200D03*
%TO.P,J4,4,Pin_4*%
%TO.N,GND*%
X159766000Y-66751200D03*
%TD*%
D27*
%TO.P,R33,1*%
%TO.N,/ESP32-C3-02/DTR*%
X175359700Y-110210600D03*
%TO.P,R33,2*%
%TO.N,Net-(Q2-B)*%
X173534700Y-110210600D03*
%TD*%
D33*
%TO.P,C19,1*%
%TO.N,GND*%
X163962000Y-71353600D03*
%TO.P,C19,2*%
%TO.N,Net-(C19-Pad2)*%
X163962000Y-73253600D03*
%TD*%
D20*
%TO.P,R23,1*%
%TO.N,+3.3V*%
X163042600Y-81254600D03*
%TO.P,R23,2*%
%TO.N,/ESP32-C3-02/PHOTO_C*%
X164867600Y-81254600D03*
%TD*%
D28*
%TO.P,D1,+*%
%TO.N,/+5V_USB*%
X130507100Y-98089100D03*
%TO.P,D1,-*%
%TO.N,Net-(D1-Pad-)*%
X130507100Y-100189100D03*
%TD*%
D26*
%TO.P,TP1,1,1*%
%TO.N,/ESP32-C3-02/MOSI_DI*%
X202031600Y-88087200D03*
%TD*%
D10*
%TO.P,R18,1*%
%TO.N,Net-(D6-Pad-)*%
X156514800Y-89716600D03*
%TO.P,R18,2*%
%TO.N,Net-(U8-~{RXT}{slash}GPIO.3)*%
X156514800Y-91541600D03*
%TD*%
%TO.P,R5,1*%
%TO.N,GND*%
X133680200Y-104161600D03*
%TO.P,R5,2*%
%TO.N,Net-(U1-PROG1)*%
X133680200Y-105986600D03*
%TD*%
D13*
%TO.P,C3,1*%
%TO.N,/+5V*%
X138538200Y-89990300D03*
%TO.P,C3,2*%
%TO.N,GND*%
X135458200Y-89990300D03*
%TD*%
D39*
%TO.P,C16,1*%
%TO.N,GND*%
X149768400Y-72698600D03*
%TO.P,C16,2*%
%TO.N,Net-(C16-Pad2)*%
X151668400Y-72698600D03*
%TD*%
D50*
%TO.P,U5,1,I/O1*%
%TO.N,/ESP32-C3-02/USB_D-*%
X161305150Y-101590800D03*
%TO.P,U5,2,GND*%
%TO.N,GND*%
X160355150Y-101590800D03*
%TO.P,U5,3,I/O2*%
%TO.N,/ESP32-C3-02/USB_D+*%
X159405150Y-101590800D03*
%TO.P,U5,4,I/O2*%
%TO.N,/USB_DP*%
X159405150Y-103865800D03*
%TO.P,U5,5,VBUS*%
%TO.N,/VBUS*%
X160355150Y-103865800D03*
%TO.P,U5,6,I/O1*%
%TO.N,/USB_DN*%
X161305150Y-103865800D03*
%TD*%
D26*
%TO.P,TP4,1,1*%
%TO.N,/ESP32-C3-02/CD_SD*%
X211175600Y-91287600D03*
%TD*%
D11*
%TO.P,C11,1*%
%TO.N,Net-(U8-VBUS)*%
X170027600Y-97596200D03*
%TO.P,C11,2*%
%TO.N,GND*%
X170027600Y-95696200D03*
%TD*%
D28*
%TO.P,D3,+*%
%TO.N,/+5V_USB*%
X127713100Y-98139900D03*
%TO.P,D3,-*%
%TO.N,Net-(D3-Pad-)*%
X127713100Y-100239900D03*
%TD*%
D39*
%TO.P,C18,1*%
%TO.N,+3.3V*%
X149687200Y-74832200D03*
%TO.P,C18,2*%
%TO.N,GND*%
X151587200Y-74832200D03*
%TD*%
D51*
%TO.P,J1,A1,GNDA1*%
%TO.N,GND*%
X157629600Y-107289600D03*
%TO.P,J1,A2,SSTXP1*%
%TO.N,unconnected-(J1-SSTXP1-PadA2)*%
X158129600Y-107289600D03*
%TO.P,J1,A3,SSTXN1*%
%TO.N,unconnected-(J1-SSTXN1-PadA3)*%
X158629600Y-107289600D03*
%TO.P,J1,A4,VBUSA1*%
%TO.N,/VBUS*%
X159129600Y-107289600D03*
%TO.P,J1,A5,CC1*%
%TO.N,Net-(J1-CC1)*%
X159629600Y-107289600D03*
%TO.P,J1,A6,DP1*%
%TO.N,/USB_DP*%
X160129600Y-107289600D03*
%TO.P,J1,A7,DN1*%
%TO.N,/USB_DN*%
X160629600Y-107289600D03*
%TO.P,J1,A8,SBU1*%
%TO.N,unconnected-(J1-SBU1-PadA8)*%
X161129600Y-107289600D03*
%TO.P,J1,A9,VBUSA2*%
%TO.N,/VBUS*%
X161629600Y-107289600D03*
%TO.P,J1,A10,SSRXN2*%
%TO.N,unconnected-(J1-SSRXN2-PadA10)*%
X162129600Y-107289600D03*
%TO.P,J1,A11,SSRXP2*%
%TO.N,unconnected-(J1-SSRXP2-PadA11)*%
X162629600Y-107289600D03*
%TO.P,J1,A12,GNDA2*%
%TO.N,GND*%
X163129600Y-107289600D03*
D52*
%TO.P,J1,B1,GNDB1*%
X163179600Y-108539600D03*
%TO.P,J1,B2,SSTXP2*%
%TO.N,unconnected-(J1-SSTXP2-PadB2)*%
X162779600Y-109249600D03*
%TO.P,J1,B3,SSTXN2*%
%TO.N,unconnected-(J1-SSTXN2-PadB3)*%
X161979600Y-109249600D03*
%TO.P,J1,B4,VBUSB1*%
%TO.N,/VBUS*%
X161579600Y-108539600D03*
%TO.P,J1,B5,CC2*%
%TO.N,Net-(J1-CC2)*%
X161179600Y-109249600D03*
%TO.P,J1,B6,DP2*%
%TO.N,/USB_DP*%
X160779600Y-108539600D03*
%TO.P,J1,B7,DN2*%
%TO.N,/USB_DN*%
X159979600Y-108539600D03*
%TO.P,J1,B8,SBU2*%
%TO.N,unconnected-(J1-SBU2-PadB8)*%
X159579600Y-109249600D03*
%TO.P,J1,B9,VBUSB2*%
%TO.N,/VBUS*%
X159179600Y-108539600D03*
%TO.P,J1,B10,SSRXN1*%
%TO.N,unconnected-(J1-SSRXN1-PadB10)*%
X158779600Y-109249600D03*
%TO.P,J1,B11,SSRXP1*%
%TO.N,unconnected-(J1-SSRXP1-PadB11)*%
X157979600Y-109249600D03*
%TO.P,J1,B12,GNDB2*%
%TO.N,GND*%
X157579600Y-108539600D03*
%TO.P,J1,G1,GND/SHIELD*%
X162379600Y-108539600D03*
%TO.P,J1,G2,GND/SHIELD*%
X158379600Y-108539600D03*
D53*
%TO.P,J1,G3,GND/SHIELD*%
X160379600Y-111869600D03*
%TO.P,J1,G4,GND/SHIELD*%
X160379600Y-114969600D03*
D54*
%TO.P,J1,S1,GND/SHIELD*%
X156109600Y-109689600D03*
%TO.P,J1,S2,GND/SHIELD*%
X164649600Y-109689600D03*
%TO.P,J1,S3,GND/SHIELD*%
X156109600Y-114419600D03*
%TO.P,J1,S4,GND/SHIELD*%
X164649600Y-114419600D03*
%TD*%
D10*
%TO.P,R8,1*%
%TO.N,Net-(D2-Pad-)*%
X125374400Y-104392100D03*
%TO.P,R8,2*%
%TO.N,/CHARGED*%
X125374400Y-106217100D03*
%TD*%
D55*
%TO.P,MK1,GND*%
%TO.N,GND*%
X137820400Y-73660000D03*
%TO.P,MK1,OUT*%
%TO.N,Net-(U7-IN+)*%
X137820400Y-71760000D03*
%TD*%
D56*
%TO.N,/+5V_USB*%
X131876800Y-98145600D03*
%TO.N,/VBUS*%
X149098000Y-88392000D03*
X147472400Y-88290400D03*
X145897600Y-88341200D03*
D57*
%TO.N,*%
X148590000Y-101244400D03*
X147218400Y-101244400D03*
X145643600Y-101193600D03*
D56*
%TO.N,/VBUS*%
X158572200Y-105994200D03*
D57*
%TO.N,GND*%
X191160400Y-77114400D03*
X130810000Y-86612100D03*
D56*
X167894000Y-102514400D03*
D57*
X127508000Y-116025300D03*
D58*
X129204000Y-111117300D03*
D56*
X158343600Y-100330000D03*
D57*
X151434800Y-79095600D03*
X145796000Y-78892400D03*
X177495200Y-71272400D03*
X157988000Y-71120000D03*
D56*
X164287200Y-106680000D03*
X163804600Y-94869000D03*
D57*
X192557400Y-95173800D03*
X165354000Y-71577200D03*
D56*
X174548800Y-117500400D03*
D57*
X133400800Y-93520900D03*
X213360000Y-97637600D03*
X127508000Y-116685700D03*
X184607200Y-85496400D03*
X196723000Y-95021400D03*
X138482800Y-111199300D03*
X159816800Y-64363600D03*
X190474600Y-95275400D03*
D56*
X160985200Y-83108800D03*
X172897800Y-99034600D03*
X156819600Y-106476800D03*
D57*
X133400800Y-91031700D03*
D56*
X171958000Y-97180400D03*
X177546000Y-112826800D03*
D57*
X133400800Y-88796500D03*
D56*
X161721800Y-114630200D03*
D57*
X153416000Y-74117200D03*
X133400800Y-92403300D03*
D56*
X190601600Y-116941600D03*
D57*
X132638800Y-86459700D03*
X138074400Y-101803200D03*
X175941200Y-69921600D03*
X213918800Y-116992400D03*
X142394400Y-117142900D03*
X126644400Y-86612100D03*
X127508000Y-117447700D03*
X197365800Y-85691800D03*
D56*
X180035200Y-117246400D03*
D57*
X148285200Y-72847200D03*
X144170400Y-74930000D03*
D56*
X160375600Y-100584000D03*
D57*
X129032000Y-86510500D03*
X133400800Y-89914100D03*
X132029200Y-79705200D03*
D56*
X161493200Y-112115600D03*
D57*
X127711200Y-86713700D03*
D56*
X160566800Y-94589600D03*
D57*
X173278800Y-88544400D03*
X203606400Y-95148400D03*
D56*
%TO.N,+3.3V*%
X165252400Y-92100400D03*
D57*
X176631600Y-71170800D03*
D56*
X162915600Y-100330000D03*
D57*
X206248000Y-89255600D03*
X175361600Y-71272400D03*
X200914000Y-90932000D03*
D56*
X156667200Y-83616800D03*
D58*
X190449200Y-74930000D03*
D57*
X138036300Y-78738100D03*
X175361600Y-67360800D03*
X137363200Y-78738100D03*
X181356000Y-71831200D03*
X154635200Y-64058800D03*
X135343900Y-78738100D03*
X172466000Y-70713600D03*
X136017000Y-78738100D03*
D56*
X153873200Y-83972400D03*
D57*
X148742400Y-69494400D03*
X180949600Y-82753200D03*
X147269200Y-73253600D03*
X136690100Y-78738100D03*
D56*
X160832800Y-81381600D03*
X169926000Y-106476800D03*
D57*
%TO.N,/+5V_USB*%
X143205200Y-112469300D03*
X139649200Y-115923700D03*
X140870400Y-115923700D03*
X140159200Y-115872900D03*
X143154400Y-113028100D03*
%TO.N,/ESP32-C3-02/MIC_OUT*%
X188231025Y-75302625D03*
X196545200Y-77774800D03*
D56*
%TO.N,/ESP32-C3-02/BOOT*%
X206552800Y-87579200D03*
X183540400Y-103936800D03*
%TO.N,/ESP32-C3-02/EN*%
X200152000Y-75031600D03*
X178206400Y-103530400D03*
%TO.N,/USB_DP*%
X158089600Y-104089200D03*
D57*
X160324800Y-109575600D03*
D56*
%TO.N,/USB_DN*%
X162052000Y-104800400D03*
D57*
%TO.N,/ESP32-C3-02/CD_SD*%
X217576400Y-77266800D03*
X216712800Y-91389200D03*
%TO.N,/ESP32-C3-02/MOSI_DI*%
X181102000Y-90424000D03*
X185420000Y-97485200D03*
%TO.N,/ESP32-C3-02/SCL*%
X212191600Y-77114400D03*
X188569600Y-73050400D03*
%TO.N,/ESP32-C3-02/SDA*%
X188925200Y-74117200D03*
X203454000Y-75488800D03*
%TO.N,/ESP32-C3-02/GPIO18*%
X201955400Y-80645000D03*
%TO.N,/ESP32-C3-02/GPIO8*%
X195884800Y-82804000D03*
%TO.N,/ESP32-C3-02/GPIO19*%
X202641200Y-79451200D03*
X186385200Y-74523600D03*
D56*
%TO.N,/ESP32-C3-02/RTS*%
X178816000Y-101650800D03*
X177393600Y-104241600D03*
D57*
%TO.N,/CHARGING_POWER_GOOD*%
X141429200Y-109522900D03*
X131978400Y-107694100D03*
%TO.N,/CHARGED*%
X132689600Y-108405300D03*
X140149200Y-110193300D03*
%TO.N,/CHARGING*%
X141886400Y-110488100D03*
X133654800Y-107592500D03*
%TO.N,/ESP32-C3-02/CS*%
X185572400Y-82143600D03*
X211886800Y-84886800D03*
D56*
%TO.N,/ESP32-C3-02/TX_RX*%
X214604600Y-82727800D03*
X215036400Y-100177600D03*
%TO.N,/ESP32-C3-02/RX_TX*%
X214528400Y-84480400D03*
X212750400Y-100076000D03*
D57*
%TO.N,Net-(U7-IN-)*%
X147800379Y-79631221D03*
X154203942Y-79673600D03*
%TD*%
D59*
%TO.N,/VBUS*%
X160984894Y-102952300D02*
X163353500Y-102952300D01*
X160355150Y-103582044D02*
X160984894Y-102952300D01*
X160355150Y-103865800D02*
X160355150Y-103582044D01*
X164058600Y-103657400D02*
X161950400Y-105765600D01*
X163353500Y-102952300D02*
X164058600Y-103657400D01*
X157958800Y-102514400D02*
X147828000Y-92383600D01*
X159666249Y-102514400D02*
X157958800Y-102514400D01*
X160355150Y-103203301D02*
X159666249Y-102514400D01*
X160355150Y-103865800D02*
X160355150Y-103203301D01*
D60*
%TO.N,/+5V_USB*%
X131820300Y-98089100D02*
X131876800Y-98145600D01*
X130507100Y-98089100D02*
X131820300Y-98089100D01*
D59*
X139649200Y-115923700D02*
X139649200Y-114924800D01*
X139056800Y-116516100D02*
X139649200Y-115923700D01*
X139056800Y-117346100D02*
X139056800Y-116516100D01*
X147828000Y-97383600D02*
X147828000Y-97180400D01*
D60*
%TO.N,/VBUS*%
X171549700Y-101838000D02*
X170009700Y-103378000D01*
X159129600Y-106551600D02*
X158572200Y-105994200D01*
X170009700Y-103378000D02*
X165658800Y-103378000D01*
D59*
X161629600Y-106086400D02*
X161629600Y-107289600D01*
X164338000Y-103378000D02*
X164058600Y-103657400D01*
X159179600Y-108539600D02*
X159179600Y-107339600D01*
X161950400Y-105765600D02*
X161629600Y-106086400D01*
D60*
X158572200Y-105994200D02*
X158546800Y-105968800D01*
X159129600Y-107289600D02*
X159129600Y-106551600D01*
D59*
X161629600Y-107289600D02*
X161629600Y-108489600D01*
X161629600Y-108489600D02*
X161579600Y-108539600D01*
X159179600Y-107339600D02*
X159129600Y-107289600D01*
X165658800Y-103378000D02*
X164338000Y-103378000D01*
D61*
%TO.N,GND*%
X159766000Y-66751200D02*
X159766000Y-64414400D01*
D60*
X151506000Y-79024400D02*
X151434800Y-79095600D01*
D62*
X203911200Y-91490800D02*
X203911200Y-93559800D01*
D60*
X160566800Y-94589600D02*
X160566800Y-94500000D01*
X163804600Y-94869000D02*
X163830000Y-94843600D01*
X172897800Y-99034600D02*
X172923200Y-99009200D01*
D63*
X196392800Y-90932000D02*
X196392800Y-93541400D01*
X175439700Y-112826800D02*
X176342000Y-113729100D01*
D60*
X160566800Y-95877200D02*
X160566800Y-94589600D01*
D59*
X179984400Y-116489000D02*
X179984400Y-117195600D01*
X139149200Y-111987300D02*
X138211700Y-111987300D01*
D63*
X194437000Y-75895200D02*
X193217800Y-77114400D01*
D59*
X163129600Y-107289600D02*
X163677600Y-107289600D01*
D60*
X159566800Y-98977200D02*
X159566800Y-99733200D01*
D63*
X177588400Y-112869200D02*
X177546000Y-112826800D01*
D60*
X171520500Y-99704400D02*
X172228000Y-99704400D01*
D62*
X183073000Y-85963800D02*
X184139800Y-85963800D01*
D59*
X179984400Y-117195600D02*
X180035200Y-117246400D01*
X138176000Y-104140000D02*
X138176000Y-101904800D01*
D63*
X193217800Y-77114400D02*
X191160400Y-77114400D01*
D62*
X204120000Y-93768600D02*
X204120000Y-94634800D01*
D60*
X175941200Y-70561200D02*
X175941200Y-69921600D01*
D59*
X140411200Y-104140000D02*
X138176000Y-104140000D01*
X153974800Y-109978200D02*
X155821000Y-109978200D01*
X179984400Y-116489000D02*
X180796136Y-116489000D01*
D60*
X170027600Y-95696200D02*
X171511800Y-97180400D01*
D59*
X213995000Y-117068600D02*
X213918800Y-116992400D01*
D63*
X196723000Y-95021400D02*
X196799200Y-95097600D01*
D62*
X192495000Y-93768600D02*
X192495000Y-95111400D01*
X213420000Y-95568600D02*
X211620000Y-93768600D01*
X197365800Y-85691800D02*
X197358000Y-85699600D01*
D60*
X172228000Y-99704400D02*
X172897800Y-99034600D01*
D59*
X139149200Y-111049800D02*
X139149200Y-111987300D01*
D60*
X158247700Y-71328900D02*
X158038800Y-71120000D01*
D62*
X190474600Y-95275400D02*
X190500000Y-95250000D01*
X198544600Y-85691800D02*
X197365800Y-85691800D01*
D63*
X176342000Y-113729100D02*
X176342000Y-115291200D01*
D60*
X159186800Y-71328900D02*
X158247700Y-71328900D01*
D63*
X196620000Y-93768600D02*
X196620000Y-94918400D01*
D60*
X145698200Y-77673200D02*
X145698200Y-78794600D01*
D62*
X174548800Y-116538200D02*
X175424258Y-116538200D01*
D59*
X138176000Y-104140000D02*
X135944600Y-104140000D01*
D62*
X173577500Y-88245700D02*
X173278800Y-88544400D01*
D60*
X162486600Y-83727200D02*
X161603600Y-83727200D01*
X161603600Y-83727200D02*
X160985200Y-83108800D01*
X160379600Y-114969600D02*
X161382400Y-114969600D01*
D63*
X196392800Y-93541400D02*
X196620000Y-93768600D01*
D61*
X188595000Y-117068600D02*
X190474600Y-117068600D01*
D59*
X178579300Y-115968000D02*
X178579300Y-116155836D01*
D60*
X145796000Y-74781400D02*
X144319000Y-74781400D01*
D62*
X213695000Y-97302600D02*
X213360000Y-97637600D01*
D60*
X144319000Y-74781400D02*
X144170400Y-74930000D01*
D62*
X184139800Y-85963800D02*
X184607200Y-85496400D01*
X175424258Y-116538200D02*
X175716000Y-116246458D01*
D60*
X161382400Y-114969600D02*
X161721800Y-114630200D01*
D63*
X176342000Y-115291200D02*
X175716000Y-115917200D01*
D62*
X188595000Y-95568600D02*
X190181400Y-95568600D01*
D59*
X166955500Y-112113700D02*
X164649600Y-114419600D01*
D60*
X157629600Y-107289600D02*
X157629600Y-107286800D01*
D63*
X196620000Y-94918400D02*
X196723000Y-95021400D01*
D60*
X160379600Y-111869600D02*
X161247200Y-111869600D01*
X177241200Y-71018400D02*
X177495200Y-71272400D01*
D62*
X175716000Y-116246458D02*
X175716000Y-115917200D01*
X203911200Y-93559800D02*
X204120000Y-93768600D01*
D60*
X171511800Y-97180400D02*
X171958000Y-97180400D01*
D62*
X213695000Y-95568600D02*
X213420000Y-95568600D01*
D59*
X180796136Y-116489000D02*
X181129300Y-116155836D01*
D60*
X161721800Y-114630200D02*
X161747200Y-114604800D01*
X149768400Y-72698600D02*
X148433800Y-72698600D01*
D59*
X140149200Y-112987300D02*
X142086700Y-112987300D01*
D62*
X174548800Y-116538200D02*
X174548800Y-117500400D01*
D60*
X163779200Y-96316000D02*
X163779200Y-94894400D01*
X151587200Y-74832200D02*
X152302200Y-74117200D01*
D59*
X178912464Y-116489000D02*
X179984400Y-116489000D01*
D62*
X190181400Y-95568600D02*
X190474600Y-95275400D01*
D59*
X181129300Y-116155836D02*
X181129300Y-115968000D01*
D62*
X173577500Y-87630000D02*
X173577500Y-88245700D01*
D60*
X175941200Y-69921600D02*
X175920400Y-69900800D01*
D63*
X196316600Y-75895200D02*
X194437000Y-75895200D01*
D59*
X167182800Y-112113700D02*
X166955500Y-112113700D01*
D64*
X129204000Y-115125700D02*
X129204000Y-111117300D01*
D60*
X148433800Y-72698600D02*
X148285200Y-72847200D01*
X160355150Y-100604450D02*
X160375600Y-100584000D01*
D61*
X190474600Y-117068600D02*
X190601600Y-116941600D01*
D62*
X173166000Y-115917200D02*
X173166000Y-116246458D01*
D60*
X160566800Y-94500000D02*
X160578800Y-94488000D01*
X169931000Y-95792800D02*
X170027600Y-95696200D01*
D59*
X139149200Y-111987300D02*
X140149200Y-112987300D01*
D62*
X173457742Y-116538200D02*
X174548800Y-116538200D01*
X192495000Y-95111400D02*
X192557400Y-95173800D01*
D59*
X163677600Y-107289600D02*
X164287200Y-106680000D01*
D60*
X163962000Y-71353600D02*
X165028800Y-71353600D01*
D59*
X140956800Y-117346100D02*
X142242000Y-117346100D01*
D60*
X166979600Y-95792800D02*
X169931000Y-95792800D01*
X145698200Y-78794600D02*
X145796000Y-78892400D01*
X163779200Y-94894400D02*
X163804600Y-94869000D01*
D62*
X204120000Y-94634800D02*
X203606400Y-95148400D01*
D60*
X158970000Y-100330000D02*
X158343600Y-100330000D01*
D59*
X155821000Y-109978200D02*
X156109600Y-109689600D01*
D60*
X165028800Y-71353600D02*
X165303200Y-71628000D01*
D59*
X165658800Y-101478000D02*
X166857600Y-101478000D01*
D62*
X173166000Y-116246458D02*
X173457742Y-116538200D01*
D59*
X135864600Y-104161600D02*
X135915400Y-104110800D01*
D60*
X152302200Y-74117200D02*
X153416000Y-74117200D01*
X159566800Y-99733200D02*
X158970000Y-100330000D01*
X161247200Y-111869600D02*
X161493200Y-112115600D01*
D62*
X213695000Y-95568600D02*
X213695000Y-97302600D01*
D59*
X135944600Y-104140000D02*
X135915400Y-104110800D01*
X142242000Y-117346100D02*
X142394400Y-117193700D01*
X133680200Y-104161600D02*
X135864600Y-104161600D01*
X178579300Y-116155836D02*
X178912464Y-116489000D01*
X138176000Y-101904800D02*
X138074400Y-101803200D01*
D62*
X192557400Y-95173800D02*
X192633600Y-95250000D01*
D60*
X130526800Y-79855700D02*
X131878700Y-79855700D01*
D59*
X215895000Y-117068600D02*
X213995000Y-117068600D01*
D60*
X157629600Y-107286800D02*
X156819600Y-106476800D01*
X160355150Y-101590800D02*
X160355150Y-100604450D01*
D63*
X178975300Y-112869200D02*
X177588400Y-112869200D01*
D60*
X151506000Y-77622400D02*
X151506000Y-79024400D01*
D61*
X159766000Y-64414400D02*
X159816800Y-64363600D01*
D59*
X167894000Y-102514400D02*
X167944800Y-102565200D01*
D60*
X131878700Y-79855700D02*
X132029200Y-79705200D01*
X177241200Y-70561200D02*
X177241200Y-71018400D01*
D59*
X166857600Y-101478000D02*
X167894000Y-102514400D01*
D65*
%TO.N,/+5V*%
X140715800Y-97254680D02*
X140715800Y-98829520D01*
X144156200Y-103768300D02*
X144156200Y-114058300D01*
X137348000Y-92860500D02*
X138414800Y-93927300D01*
X141935200Y-96035280D02*
X140715800Y-97254680D01*
X138414800Y-93927300D02*
X141935200Y-93927300D01*
X137348000Y-92860500D02*
X137348000Y-91180500D01*
X139002800Y-89525700D02*
X138538200Y-89990300D01*
X140682330Y-98862990D02*
X140682330Y-100294430D01*
X141935200Y-93927300D02*
X141935200Y-96035280D01*
X137348000Y-91180500D02*
X138538200Y-89990300D01*
X139002800Y-86641900D02*
X139002800Y-89525700D01*
X143276200Y-114938300D02*
X141475200Y-114938300D01*
X140715800Y-98829520D02*
X140682330Y-98862990D01*
X144156200Y-114058300D02*
X143276200Y-114938300D01*
X140682330Y-100294430D02*
X144156200Y-103768300D01*
D60*
%TO.N,+3.3V*%
X153873200Y-85530000D02*
X153873200Y-83972400D01*
X161372400Y-98177200D02*
X161391600Y-98196400D01*
D62*
X129616200Y-82116300D02*
X129692400Y-82192500D01*
X163779200Y-98216000D02*
X163767000Y-98228200D01*
D59*
X180752500Y-83820000D02*
X180752500Y-82950300D01*
D61*
X149741800Y-70463400D02*
X149711400Y-70463400D01*
D62*
X166979600Y-98872800D02*
X164436000Y-98872800D01*
X178866800Y-70561200D02*
X180898800Y-70561200D01*
X166725600Y-92153100D02*
X165305100Y-92153100D01*
X173577500Y-86360000D02*
X179138588Y-86360000D01*
D64*
X198544600Y-73691800D02*
X196620000Y-73691800D01*
D61*
X154584400Y-64109600D02*
X154635200Y-64058800D01*
X171070900Y-107621700D02*
X169926000Y-106476800D01*
X146737000Y-71581000D02*
X148624200Y-71581000D01*
X147726400Y-73710800D02*
X147269200Y-73253600D01*
D60*
X156616400Y-85479200D02*
X156616400Y-83667600D01*
D61*
X154584400Y-66598800D02*
X154584400Y-64109600D01*
D59*
X183073000Y-84063800D02*
X180996300Y-84063800D01*
D62*
X172648800Y-70530800D02*
X172466000Y-70713600D01*
X201620000Y-93768600D02*
X201620000Y-91882000D01*
X175291200Y-71202000D02*
X175361600Y-71272400D01*
D60*
X163042600Y-81254600D02*
X160959800Y-81254600D01*
D61*
X149711400Y-70463400D02*
X148742400Y-69494400D01*
D62*
X124646000Y-79804900D02*
X124646000Y-80143300D01*
X180408588Y-85090000D02*
X180752500Y-85090000D01*
X173634400Y-70530800D02*
X175260800Y-70530800D01*
X175291200Y-70561200D02*
X175291200Y-71202000D01*
D63*
X176591200Y-70561200D02*
X176591200Y-71130400D01*
D62*
X129692400Y-82192500D02*
X131889500Y-82192500D01*
X201452400Y-90932000D02*
X202011200Y-91490800D01*
D59*
X180752500Y-83820000D02*
X180752500Y-85090000D01*
D60*
X161366800Y-98177200D02*
X161366800Y-98377200D01*
D61*
X154635200Y-64058800D02*
X154686000Y-64008000D01*
D62*
X163779200Y-98216000D02*
X163779200Y-99466400D01*
D61*
X136702800Y-86641900D02*
X136702800Y-80841900D01*
D60*
X153873200Y-83972400D02*
X153873200Y-83820000D01*
X160959800Y-81254600D02*
X160832800Y-81381600D01*
D64*
X196620000Y-73691800D02*
X196316600Y-73995200D01*
D63*
X176591200Y-71130400D02*
X176631600Y-71170800D01*
D62*
X201620000Y-91882000D02*
X202011200Y-91490800D01*
D63*
X175941200Y-68034200D02*
X175361600Y-67454600D01*
D62*
X179138588Y-86360000D02*
X180408588Y-85090000D01*
X180898800Y-70561200D02*
X180898800Y-71374000D01*
D63*
X175361600Y-67454600D02*
X175361600Y-67360800D01*
D61*
X148986400Y-74131400D02*
X147716000Y-74131400D01*
D60*
X161366800Y-98377200D02*
X161066800Y-98677200D01*
D64*
X191344800Y-74034400D02*
X190449200Y-74930000D01*
D62*
X163767000Y-98228200D02*
X161366800Y-98228200D01*
D61*
X148624200Y-71581000D02*
X149741800Y-70463400D01*
D62*
X131889500Y-82192500D02*
X135343900Y-78738100D01*
X124646000Y-80143300D02*
X126619000Y-82116300D01*
X206505800Y-89513400D02*
X206248000Y-89255600D01*
D59*
X180752500Y-82950300D02*
X180949600Y-82753200D01*
D62*
X165305100Y-92153100D02*
X165252400Y-92100400D01*
D61*
X149687200Y-74832200D02*
X148986400Y-74131400D01*
D62*
X163779200Y-99466400D02*
X162915600Y-100330000D01*
D60*
X156616400Y-83667600D02*
X156667200Y-83616800D01*
D62*
X164436000Y-98872800D02*
X163779200Y-98216000D01*
D63*
X175941200Y-68511200D02*
X175941200Y-68034200D01*
D62*
X175260800Y-70530800D02*
X175291200Y-70561200D01*
D64*
X196277400Y-74034400D02*
X196316600Y-73995200D01*
D62*
X180898800Y-71374000D02*
X181356000Y-71831200D01*
D60*
X161366800Y-98177200D02*
X161372400Y-98177200D01*
D62*
X199472800Y-90932000D02*
X200914000Y-90932000D01*
D64*
X193217800Y-74034400D02*
X191344800Y-74034400D01*
D61*
X147716000Y-74131400D02*
X147726400Y-74121000D01*
D64*
X193217800Y-74034400D02*
X196277400Y-74034400D01*
D61*
X171070900Y-108051600D02*
X171070900Y-107621700D01*
D62*
X126619000Y-82116300D02*
X129616200Y-82116300D01*
X173634400Y-70530800D02*
X172648800Y-70530800D01*
X209143600Y-89513400D02*
X206505800Y-89513400D01*
D59*
X180996300Y-84063800D02*
X180752500Y-83820000D01*
D61*
X147726400Y-74121000D02*
X147726400Y-73710800D01*
D62*
X200914000Y-90932000D02*
X201452400Y-90932000D01*
D59*
%TO.N,/+5V_USB*%
X139649200Y-114924800D02*
X140649200Y-114924800D01*
X140649200Y-114924800D02*
X140649200Y-115702500D01*
D60*
X142553184Y-113487300D02*
X142827200Y-113213284D01*
X142086700Y-112487300D02*
X143187200Y-112487300D01*
D59*
X140149200Y-115862900D02*
X140159200Y-115872900D01*
D60*
X125298200Y-97053400D02*
X127635000Y-97053400D01*
X143187200Y-112487300D02*
X143205200Y-112469300D01*
D59*
X140149200Y-114924800D02*
X140149200Y-115862900D01*
D60*
X130456300Y-98139900D02*
X130507100Y-98089100D01*
X142086700Y-113487300D02*
X142695200Y-113487300D01*
D59*
X140649200Y-115702500D02*
X140870400Y-115923700D01*
D60*
X127713100Y-97131500D02*
X127660400Y-97078800D01*
X142827200Y-112761316D02*
X142553184Y-112487300D01*
X127713100Y-98139900D02*
X127713100Y-97131500D01*
X142827200Y-113213284D02*
X142827200Y-112761316D01*
X142086700Y-113487300D02*
X142553184Y-113487300D01*
X142553184Y-112487300D02*
X142086700Y-112487300D01*
X127635000Y-97053400D02*
X127660400Y-97078800D01*
X127713100Y-98139900D02*
X130456300Y-98139900D01*
X142695200Y-113487300D02*
X143154400Y-113028100D01*
X125274700Y-98105900D02*
X125274700Y-97076900D01*
%TO.N,Net-(U8-VBUS)*%
X170027600Y-97596200D02*
X170027600Y-99372300D01*
X162768658Y-97677200D02*
X163057858Y-97388000D01*
X169819400Y-97388000D02*
X170027600Y-97596200D01*
X169724700Y-99733600D02*
X169695500Y-99704400D01*
X170027600Y-99372300D02*
X169695500Y-99704400D01*
X161366800Y-97677200D02*
X162768658Y-97677200D01*
X169724700Y-101838000D02*
X169724700Y-99733600D01*
X163057858Y-97388000D02*
X169819400Y-97388000D01*
%TO.N,Net-(C15-Pad2)*%
X175291200Y-68511200D02*
X173754000Y-68511200D01*
X173754000Y-68511200D02*
X173634400Y-68630800D01*
%TO.N,Net-(C16-Pad2)*%
X152379600Y-71276200D02*
X151566800Y-70463400D01*
X151566800Y-70463400D02*
X151566800Y-72597000D01*
X156596000Y-71276200D02*
X152379600Y-71276200D01*
X151566800Y-72597000D02*
X151668400Y-72698600D01*
%TO.N,/ESP32-C3-02/MIC_OUT*%
X147716000Y-77480400D02*
X147523200Y-77673200D01*
X196545200Y-77774800D02*
X198127600Y-77774800D01*
X188010800Y-75285600D02*
X188214000Y-75285600D01*
X147574000Y-77622400D02*
X147523200Y-77673200D01*
X149606000Y-77622400D02*
X147574000Y-77622400D01*
X167474758Y-75285600D02*
X188010800Y-75285600D01*
X162508758Y-80251600D02*
X167474758Y-75285600D01*
X150101600Y-80251600D02*
X162508758Y-80251600D01*
X147716000Y-75431400D02*
X147716000Y-77480400D01*
X147523200Y-77673200D02*
X150101600Y-80251600D01*
X198127600Y-77774800D02*
X198544600Y-78191800D01*
X188214000Y-75285600D02*
X188231025Y-75302625D01*
%TO.N,/ESP32-C3-02/BOOT*%
X178901280Y-114260000D02*
X180807320Y-114260000D01*
X181124300Y-107846100D02*
X181124300Y-106352900D01*
X180875300Y-112869200D02*
X181129300Y-113123200D01*
X181839000Y-111905500D02*
X180875300Y-112869200D01*
X183540400Y-103936800D02*
X183591200Y-103886000D01*
X181129300Y-113123200D02*
X181129300Y-114808000D01*
X181124300Y-107846100D02*
X181839000Y-108560800D01*
X181124300Y-106352900D02*
X183540400Y-103936800D01*
X178579300Y-114581980D02*
X178901280Y-114260000D01*
X181129300Y-114581980D02*
X181129300Y-114808000D01*
X198544600Y-84191800D02*
X203165400Y-84191800D01*
X203165400Y-84191800D02*
X206552800Y-87579200D01*
X180807320Y-114260000D02*
X181129300Y-114581980D01*
X181839000Y-108560800D02*
X181839000Y-111905500D01*
X178579300Y-114808000D02*
X178579300Y-114581980D01*
D59*
%TO.N,/ESP32-C3-02/EN*%
X173202000Y-114236200D02*
X173278800Y-114236200D01*
X199991800Y-75191800D02*
X200152000Y-75031600D01*
X171070900Y-109876600D02*
X173065700Y-107881800D01*
X175382836Y-114236200D02*
X175716000Y-114569364D01*
X173278800Y-114236200D02*
X175382836Y-114236200D01*
X174616700Y-105998800D02*
X177085100Y-103530400D01*
X177085100Y-103530400D02*
X178206400Y-103530400D01*
X173166000Y-114272200D02*
X173202000Y-114236200D01*
X198544600Y-75191800D02*
X199991800Y-75191800D01*
X175716000Y-114569364D02*
X175716000Y-114757200D01*
X173539700Y-113975300D02*
X173278800Y-114236200D01*
X173065700Y-107881800D02*
X173065700Y-107095332D01*
X171070900Y-110358000D02*
X171070900Y-109876600D01*
X173065700Y-107095332D02*
X174162232Y-105998800D01*
X173539700Y-112826800D02*
X173539700Y-113975300D01*
X173166000Y-114757200D02*
X173166000Y-114272200D01*
X173539700Y-112826800D02*
X171070900Y-110358000D01*
X174162232Y-105998800D02*
X174616700Y-105998800D01*
D60*
%TO.N,Net-(D1-Pad-)*%
X130507100Y-104284800D02*
X130505200Y-104286700D01*
X130507100Y-100189100D02*
X130507100Y-104284800D01*
%TO.N,Net-(D2-Pad-)*%
X125274700Y-100205900D02*
X125274700Y-104292400D01*
X125274700Y-104292400D02*
X125374400Y-104392100D01*
%TO.N,Net-(D3-Pad-)*%
X127713100Y-100239900D02*
X127713100Y-104140000D01*
X127713100Y-104140000D02*
X127863600Y-104290500D01*
%TO.N,/PWD_LED*%
X128701800Y-79855700D02*
X126796800Y-79855700D01*
X126796800Y-79855700D02*
X126746000Y-79804900D01*
%TO.N,Net-(D5-Pad-)*%
X153873200Y-87630000D02*
X153873200Y-89615000D01*
X153873200Y-89615000D02*
X153822400Y-89665800D01*
%TO.N,Net-(D6-Pad-)*%
X156616400Y-89615000D02*
X156514800Y-89716600D01*
X156616400Y-87579200D02*
X156616400Y-89615000D01*
D59*
%TO.N,/USB_DP*%
X160779600Y-108539600D02*
X160779600Y-108764302D01*
X160154600Y-106814600D02*
X160154600Y-106391239D01*
X160129600Y-107289600D02*
X160129600Y-106839600D01*
X160130150Y-105584551D02*
X159405150Y-104859551D01*
X160130150Y-106366789D02*
X160130150Y-105584551D01*
X159405150Y-103865800D02*
X158313000Y-103865800D01*
X160154600Y-106391239D02*
X160130150Y-106366789D01*
X159405150Y-104859551D02*
X159405150Y-103865800D01*
X160779600Y-108764302D02*
X160324800Y-109219102D01*
X158313000Y-103865800D02*
X158089600Y-104089200D01*
X160129600Y-106839600D02*
X160154600Y-106814600D01*
X160324800Y-109219102D02*
X160324800Y-109575600D01*
D60*
%TO.N,Net-(J1-CC2)*%
X161179600Y-109709219D02*
X161179600Y-109249600D01*
X162537981Y-111067600D02*
X161179600Y-109709219D01*
X167182800Y-110288700D02*
X166403900Y-111067600D01*
X166403900Y-111067600D02*
X162537981Y-111067600D01*
D59*
%TO.N,/USB_DN*%
X161305150Y-103865800D02*
X161305150Y-104859551D01*
X161305150Y-103865800D02*
X162052000Y-104612650D01*
X160580150Y-105584551D02*
X160580150Y-106194583D01*
X160604600Y-106219033D02*
X160580150Y-106194583D01*
X161305150Y-104859551D02*
X160580150Y-105584551D01*
X162052000Y-104612650D02*
X162052000Y-104800400D01*
X160604600Y-106814600D02*
X160604600Y-106219033D01*
X160629600Y-107289600D02*
X160629600Y-106839600D01*
X160629600Y-106839600D02*
X160604600Y-106814600D01*
D60*
%TO.N,Net-(J1-CC1)*%
X154838400Y-104902000D02*
X158800800Y-104902000D01*
X153974800Y-108153200D02*
X153974800Y-105765600D01*
X159629600Y-105730800D02*
X159629600Y-107289600D01*
X153974800Y-105765600D02*
X154838400Y-104902000D01*
X158800800Y-104902000D02*
X159629600Y-105730800D01*
D65*
%TO.N,/VBAT*%
X136167200Y-113813300D02*
X138198200Y-113813300D01*
X132289600Y-110488100D02*
X134975600Y-110488100D01*
X134975600Y-110488100D02*
X135788400Y-111300900D01*
X131204000Y-115125700D02*
X131204000Y-111573700D01*
X131204000Y-111573700D02*
X132289600Y-110488100D01*
X135788400Y-111300900D02*
X135788400Y-113434500D01*
X135788400Y-113434500D02*
X136167200Y-113813300D01*
D59*
%TO.N,/ESP32-C3-02/CD_SD*%
X209448400Y-91287600D02*
X211175600Y-91287600D01*
X217792028Y-75133321D02*
X217576400Y-77266800D01*
X209143600Y-91338400D02*
X209397600Y-91338400D01*
X216044600Y-73691800D02*
X216350507Y-73691800D01*
X209143600Y-91338400D02*
X209143600Y-93745000D01*
X209397600Y-91338400D02*
X209448400Y-91287600D01*
X209143600Y-93745000D02*
X209120000Y-93768600D01*
X216350507Y-73691800D02*
X217792028Y-75133321D01*
X216611200Y-91287600D02*
X216712800Y-91389200D01*
X211175600Y-91287600D02*
X216611200Y-91287600D01*
%TO.N,/ESP32-C3-02/SCLK*%
X190501900Y-82196300D02*
X185933400Y-86764800D01*
X197363800Y-92012400D02*
X197363800Y-89058200D01*
X197363800Y-89058200D02*
X190501900Y-82196300D01*
X192434200Y-80264000D02*
X190501900Y-82196300D01*
X199120000Y-93768600D02*
X197363800Y-92012400D01*
X185933400Y-86764800D02*
X181157300Y-86764800D01*
X181157300Y-86764800D02*
X180752500Y-86360000D01*
%TO.N,/ESP32-C3-02/MOSI_DI*%
X200374360Y-86442800D02*
X196377800Y-86442800D01*
X181102000Y-87979500D02*
X180752500Y-87630000D01*
X206620000Y-93768600D02*
X206620000Y-92688440D01*
X181102000Y-90424000D02*
X181102000Y-87979500D01*
X202903400Y-97485200D02*
X185420000Y-97485200D01*
X206620000Y-92688440D02*
X200374360Y-86442800D01*
X206620000Y-93768600D02*
X202903400Y-97485200D01*
X196377800Y-86442800D02*
X192485000Y-82550000D01*
%TO.N,Net-(J3-DAT0)*%
X191968000Y-91541600D02*
X194195000Y-93768600D01*
X191414400Y-91541600D02*
X191968000Y-91541600D01*
%TO.N,/ESP32-C3-02/SCL*%
X213269000Y-78191800D02*
X216044600Y-78191800D01*
X188071060Y-72796400D02*
X188315600Y-72796400D01*
X162306000Y-66751200D02*
X164439600Y-64617600D01*
X175107600Y-64617600D02*
X177241200Y-66751200D01*
X188315600Y-72796400D02*
X188569600Y-73050400D01*
X177241200Y-66751200D02*
X177241200Y-68511200D01*
X182933900Y-67922700D02*
X183591200Y-68580000D01*
X212191600Y-77114400D02*
X213269000Y-78191800D01*
X183591200Y-68672139D02*
X183601500Y-68682440D01*
X164439600Y-64617600D02*
X175107600Y-64617600D01*
X184647700Y-72786100D02*
X188060761Y-72786100D01*
X178866800Y-68736200D02*
X179680300Y-67922700D01*
X188060761Y-72786100D02*
X188071060Y-72796400D01*
X179680300Y-67922700D02*
X182933900Y-67922700D01*
X177241200Y-68511200D02*
X178641800Y-68511200D01*
X183601500Y-68682440D02*
X183601500Y-71739900D01*
X183591200Y-68580000D02*
X183591200Y-68672139D01*
X178641800Y-68511200D02*
X178866800Y-68736200D01*
X183601500Y-71739900D02*
X184647700Y-72786100D01*
%TO.N,/ESP32-C3-02/SDA*%
X180898800Y-68736200D02*
X181311300Y-68323700D01*
X201471293Y-76691800D02*
X201471293Y-76851800D01*
X176359800Y-66436900D02*
X176359800Y-67829800D01*
X174941500Y-65018600D02*
X176359800Y-66436900D01*
X166578600Y-65018600D02*
X174941500Y-65018600D01*
X188358600Y-73601400D02*
X188874400Y-74117200D01*
X180085300Y-69549700D02*
X180898800Y-68736200D01*
X200271293Y-76531800D02*
X200271293Y-75851800D01*
X188018600Y-73278632D02*
X188341368Y-73601400D01*
X200431293Y-75691800D02*
X200511293Y-75691800D01*
X202590400Y-76691800D02*
X203165400Y-76691800D01*
X201631293Y-77691800D02*
X201711293Y-77691800D01*
X181311300Y-68323700D02*
X182725300Y-68323700D01*
X182725300Y-68323700D02*
X183235600Y-68834000D01*
X203454000Y-76403200D02*
X203454000Y-75488800D01*
X177179700Y-69549700D02*
X180085300Y-69549700D01*
X201071293Y-77531800D02*
X201071293Y-76691800D01*
X187909200Y-73152000D02*
X188018600Y-73261400D01*
X201231293Y-75691800D02*
X201311293Y-75691800D01*
X176591200Y-68511200D02*
X176591200Y-68961200D01*
X183235600Y-71983600D02*
X184404000Y-73152000D01*
X201871293Y-77531800D02*
X201871293Y-76851800D01*
X200671293Y-75851800D02*
X200671293Y-76531800D01*
X183235600Y-68834000D02*
X183235600Y-71983600D01*
X188341368Y-73601400D02*
X188358600Y-73601400D01*
X202031293Y-76691800D02*
X202111293Y-76691800D01*
X200671293Y-76691800D02*
X200671293Y-77531800D01*
X202111293Y-76691800D02*
X202590400Y-76691800D01*
X188018600Y-73261400D02*
X188018600Y-73278632D01*
X176591200Y-68961200D02*
X177179700Y-69549700D01*
X184404000Y-73152000D02*
X187909200Y-73152000D01*
X201471293Y-76851800D02*
X201471293Y-77531800D01*
X188874400Y-74117200D02*
X188925200Y-74117200D01*
X201071293Y-76691800D02*
X201071293Y-75851800D01*
X203165400Y-76691800D02*
X203454000Y-76403200D01*
X200671293Y-76531800D02*
X200671293Y-76691800D01*
X176359800Y-67829800D02*
X176591200Y-68061200D01*
X176591200Y-68061200D02*
X176591200Y-68511200D01*
X164846000Y-66751200D02*
X166578600Y-65018600D01*
X198544600Y-76691800D02*
X200111293Y-76691800D01*
X200831293Y-77691800D02*
X200911293Y-77691800D01*
X201471293Y-75851800D02*
X201471293Y-76691800D01*
X200111293Y-76691800D02*
G75*
G03*
X200271300Y-76531800I7J160000D01*
G01*
X200271293Y-75851800D02*
G75*
G02*
X200431293Y-75691793I160007J0D01*
G01*
X200511293Y-75691800D02*
G75*
G02*
X200671300Y-75851800I7J-160000D01*
G01*
X200671293Y-77531800D02*
G75*
G03*
X200831293Y-77691807I160007J0D01*
G01*
X201311293Y-75691800D02*
G75*
G02*
X201471300Y-75851800I7J-160000D01*
G01*
X201071293Y-75851800D02*
G75*
G02*
X201231293Y-75691793I160007J0D01*
G01*
X201711293Y-77691800D02*
G75*
G03*
X201871300Y-77531800I7J160000D01*
G01*
X201471293Y-77531800D02*
G75*
G03*
X201631293Y-77691807I160007J0D01*
G01*
X201871293Y-76851800D02*
G75*
G02*
X202031293Y-76691793I160007J0D01*
G01*
X200911293Y-77691800D02*
G75*
G03*
X201071300Y-77531800I7J160000D01*
G01*
D60*
%TO.N,/ESP32-C3-02/GPIO18*%
X216044600Y-81191800D02*
X214888068Y-81191800D01*
X201955400Y-80645000D02*
X201930000Y-80619600D01*
X203435200Y-82124800D02*
X201955400Y-80645000D01*
X213955067Y-82124800D02*
X203435200Y-82124800D01*
X214888068Y-81191800D02*
X213955067Y-82124800D01*
%TO.N,/ESP32-C3-02/GPIO8*%
X195997000Y-82691800D02*
X195884800Y-82804000D01*
X198544600Y-82691800D02*
X195997000Y-82691800D01*
%TO.N,/ESP32-C3-02/GPIO19*%
X149801000Y-69435400D02*
X170370384Y-69435400D01*
X215744600Y-79691800D02*
X213766600Y-81669800D01*
X204859800Y-81669800D02*
X202641200Y-79451200D01*
X170370384Y-69435400D02*
X175458584Y-74523600D01*
X146964400Y-66598800D02*
X149801000Y-69435400D01*
X175458584Y-74523600D02*
X186385200Y-74523600D01*
X213766600Y-81669800D02*
X204859800Y-81669800D01*
X216044600Y-79691800D02*
X215744600Y-79691800D01*
%TO.N,Net-(U7-IN+)*%
X145796000Y-74131400D02*
X144912000Y-73247400D01*
X148859200Y-75553542D02*
X148859200Y-74892326D01*
X144912000Y-73247400D02*
X144912000Y-71581000D01*
X144912000Y-71581000D02*
X137999400Y-71581000D01*
X146512946Y-74131400D02*
X145796000Y-74131400D01*
X153812000Y-75885200D02*
X149190858Y-75885200D01*
X147273872Y-74892326D02*
X146512946Y-74131400D01*
X148859200Y-74892326D02*
X147273872Y-74892326D01*
X156596000Y-73101200D02*
X153812000Y-75885200D01*
X149190858Y-75885200D02*
X148859200Y-75553542D01*
X159134100Y-73101200D02*
X159186800Y-73153900D01*
X156596000Y-73101200D02*
X159134100Y-73101200D01*
X137999400Y-71581000D02*
X137820400Y-71760000D01*
%TO.N,/ESP32-C3-02/PHOTO_C*%
X164867600Y-81254600D02*
X164867600Y-83148200D01*
X215688600Y-75191800D02*
X216044600Y-75191800D01*
X164867600Y-83148200D02*
X165996600Y-84277200D01*
X191435852Y-72913800D02*
X213410600Y-72913800D01*
X180035200Y-79044800D02*
X185304852Y-79044800D01*
X178888400Y-80191600D02*
X180035200Y-79044800D01*
X175537616Y-81254600D02*
X176600617Y-80191600D01*
X164867600Y-81254600D02*
X175537616Y-81254600D01*
X216044600Y-75191800D02*
X215894600Y-75341800D01*
X213410600Y-72913800D02*
X215688600Y-75191800D01*
X176600617Y-80191600D02*
X178888400Y-80191600D01*
X185304852Y-79044800D02*
X191435852Y-72913800D01*
%TO.N,/ESP32-C3-02/RTS*%
X175566700Y-107873800D02*
X177954300Y-110261400D01*
X157022800Y-95605600D02*
X157022800Y-94471068D01*
X157594400Y-96177200D02*
X157022800Y-95605600D01*
X167199734Y-90034534D02*
X178816000Y-101650800D01*
X164879866Y-90034534D02*
X167199734Y-90034534D01*
X157022800Y-94471068D02*
X161459334Y-90034534D01*
X175566700Y-107873800D02*
X175566700Y-106068500D01*
X158566800Y-96177200D02*
X157594400Y-96177200D01*
X161459334Y-90034534D02*
X164879866Y-90034534D01*
X177954300Y-110261400D02*
X179173500Y-110261400D01*
X175566700Y-106068500D02*
X177393600Y-104241600D01*
%TO.N,Net-(Q2-B)*%
X173534700Y-110210600D02*
X173534700Y-108005800D01*
X173534700Y-108005800D02*
X173666700Y-107873800D01*
%TO.N,/ESP32-C3-02/DTR*%
X175359700Y-110210600D02*
X176438500Y-111289400D01*
X178596300Y-107056450D02*
X179681650Y-105971100D01*
X157632400Y-95199200D02*
X157632400Y-94504936D01*
X179681650Y-105971100D02*
X180174300Y-105971100D01*
X159066800Y-95877200D02*
X159044800Y-95877200D01*
X179682342Y-111289400D02*
X180014000Y-110957742D01*
X159044800Y-95699200D02*
X158132400Y-95699200D01*
X159044800Y-95877200D02*
X159044800Y-95699200D01*
X158132400Y-95699200D02*
X157632400Y-95199200D01*
X161459336Y-90678000D02*
X162102800Y-90678000D01*
X166787342Y-90678000D02*
X162102800Y-90678000D01*
X176438500Y-111289400D02*
X179682342Y-111289400D01*
X180014000Y-110957742D02*
X180014000Y-109565058D01*
X180174300Y-105971100D02*
X180174300Y-104064958D01*
X180014000Y-109565058D02*
X179682342Y-109233400D01*
X179193950Y-109233400D02*
X178596300Y-108635750D01*
X178596300Y-108635750D02*
X178596300Y-107056450D01*
X157632400Y-94504936D02*
X161459336Y-90678000D01*
X179682342Y-109233400D02*
X179193950Y-109233400D01*
X180174300Y-104064958D02*
X166787342Y-90678000D01*
%TO.N,Net-(Q3-B)*%
X179224300Y-107846100D02*
X180998500Y-109620300D01*
X180998500Y-109620300D02*
X180998500Y-110261400D01*
%TO.N,Net-(U1-~{TE})*%
X139649200Y-110510716D02*
X138176000Y-109037516D01*
X138176000Y-109037516D02*
X138176000Y-105965000D01*
X138176000Y-105965000D02*
X138146800Y-105994200D01*
X139649200Y-111049800D02*
X139649200Y-110510716D01*
%TO.N,Net-(U1-THERM)*%
X142086700Y-111987300D02*
X142464400Y-111609600D01*
X142464400Y-111609600D02*
X142464400Y-108018200D01*
X142464400Y-108018200D02*
X140411200Y-105965000D01*
%TO.N,Net-(U1-PROG1)*%
X136652000Y-110843700D02*
X136652000Y-112723300D01*
X134467600Y-108659300D02*
X136652000Y-110843700D01*
X136914000Y-112985300D02*
X138541169Y-112985300D01*
X136652000Y-112723300D02*
X136914000Y-112985300D01*
X134467600Y-106774000D02*
X134467600Y-108659300D01*
X133680200Y-105986600D02*
X134467600Y-106774000D01*
%TO.N,Net-(U1-PROG3)*%
X137107000Y-112025500D02*
X137568800Y-112487300D01*
X134924800Y-106926400D02*
X134924800Y-108473032D01*
X137107000Y-110655233D02*
X137107000Y-112025500D01*
X137568800Y-112487300D02*
X138211700Y-112487300D01*
X134924800Y-108473032D02*
X137107000Y-110655233D01*
X135915400Y-105935800D02*
X134924800Y-106926400D01*
D59*
%TO.N,/CHARGING_POWER_GOOD*%
X129442200Y-107694100D02*
X131978400Y-107694100D01*
X141231400Y-109720700D02*
X141429200Y-109522900D01*
X140649200Y-110607700D02*
X141231400Y-110025500D01*
X127863600Y-106115500D02*
X129442200Y-107694100D01*
X131978400Y-107694100D02*
X132003800Y-107719500D01*
X141231400Y-110025500D02*
X141231400Y-109720700D01*
X140649200Y-111049800D02*
X140649200Y-110607700D01*
%TO.N,/CHARGED*%
X127562600Y-108405300D02*
X132689600Y-108405300D01*
X140149200Y-111049800D02*
X140149200Y-110193300D01*
X125374400Y-106217100D02*
X127562600Y-108405300D01*
%TO.N,/CHARGING*%
X141710900Y-110488100D02*
X141886400Y-110488100D01*
X132791200Y-107592500D02*
X133654800Y-107592500D01*
X130505200Y-106111700D02*
X131310400Y-106111700D01*
X131310400Y-106111700D02*
X132791200Y-107592500D01*
X141149200Y-111049800D02*
X141710900Y-110488100D01*
D60*
%TO.N,Net-(U8-~{RST})*%
X162144800Y-94530000D02*
X162144800Y-97155200D01*
X162696700Y-93978100D02*
X162144800Y-94530000D01*
X162144800Y-97155200D02*
X162122800Y-97177200D01*
X166725600Y-93978100D02*
X162696700Y-93978100D01*
X162122800Y-97177200D02*
X161366800Y-97177200D01*
%TO.N,Net-(U8-~{TXT}{slash}GPIO.2)*%
X153924000Y-93167200D02*
X153822400Y-93065600D01*
X158266800Y-98177200D02*
X156140000Y-98177200D01*
X156140000Y-98177200D02*
X153924000Y-95961200D01*
X153822400Y-93065600D02*
X153822400Y-91490800D01*
X153924000Y-95961200D02*
X153924000Y-93167200D01*
D59*
%TO.N,Net-(U3-IO6)*%
X194259200Y-80264000D02*
X197972400Y-80264000D01*
X197972400Y-80264000D02*
X198544600Y-79691800D01*
%TO.N,/ESP32-C3-02/MISO_DO*%
X183845200Y-98552000D02*
X183032400Y-97739200D01*
X189230000Y-91541600D02*
X183032400Y-97739200D01*
X215341200Y-98552000D02*
X183845200Y-98552000D01*
X217801549Y-96091651D02*
X215341200Y-98552000D01*
X216044600Y-76691800D02*
X216188600Y-76691800D01*
X217801549Y-78304749D02*
X217801549Y-96091651D01*
X180136800Y-97739200D02*
X171135000Y-88737400D01*
X183032400Y-97739200D02*
X180136800Y-97739200D01*
X171135000Y-88737400D02*
X171135000Y-86944200D01*
X216188600Y-76691800D02*
X217801549Y-78304749D01*
X189589400Y-91541600D02*
X189230000Y-91541600D01*
%TO.N,Net-(U3-IO7)*%
X194310000Y-82550000D02*
X195668200Y-81191800D01*
X195668200Y-81191800D02*
X198544600Y-81191800D01*
D60*
%TO.N,Net-(U8-~{RXT}{slash}GPIO.3)*%
X156283468Y-97677200D02*
X158266800Y-97677200D01*
X156514800Y-91541600D02*
X155905200Y-91541600D01*
X154379000Y-93067800D02*
X154379000Y-95772732D01*
X155905200Y-91541600D02*
X154379000Y-93067800D01*
X154379000Y-95772732D02*
X156283468Y-97677200D01*
D59*
%TO.N,Net-(U6-DO{slash}IO_{1})*%
X171164200Y-85090000D02*
X171135000Y-85119200D01*
X173577500Y-85090000D02*
X171164200Y-85090000D01*
%TO.N,/ESP32-C3-02/CS*%
X176777900Y-80619600D02*
X184048400Y-80619600D01*
X211886800Y-84886800D02*
X213911000Y-85691800D01*
X184048400Y-80619600D02*
X185572400Y-82143600D01*
X213911000Y-85691800D02*
X216044600Y-85691800D01*
X173577500Y-83820000D02*
X176777900Y-80619600D01*
D60*
%TO.N,/ESP32-C3-02/TX_RX*%
X213378400Y-99815873D02*
X213378400Y-99974400D01*
X156511600Y-97177200D02*
X155956000Y-96621600D01*
X155956000Y-94234000D02*
X161290000Y-88900000D01*
X178917600Y-99974400D02*
X212122400Y-99974400D01*
X212122400Y-99815873D02*
X212490273Y-99448000D01*
X161290000Y-88900000D02*
X167843200Y-88900000D01*
X212122400Y-99974400D02*
X212122400Y-99815873D01*
X167843200Y-88900000D02*
X178917600Y-99974400D01*
X214833200Y-99974400D02*
X215036400Y-100177600D01*
X213010527Y-99448000D02*
X213378400Y-99815873D01*
X212490273Y-99448000D02*
X213010527Y-99448000D01*
D59*
X214640600Y-82691800D02*
X214604600Y-82727800D01*
X216044600Y-82691800D02*
X214640600Y-82691800D01*
D60*
X158266800Y-97177200D02*
X156511600Y-97177200D01*
X213378400Y-99974400D02*
X214833200Y-99974400D01*
X155956000Y-96621600D02*
X155956000Y-94234000D01*
D59*
%TO.N,/ESP32-C3-02/RX_TX*%
X214817000Y-84191800D02*
X214528400Y-84480400D01*
D60*
X212750400Y-100076000D02*
X212344000Y-100482400D01*
X156565600Y-96587732D02*
X156655068Y-96677200D01*
X161442400Y-89408000D02*
X156565600Y-94284800D01*
X178562000Y-100482400D02*
X167487600Y-89408000D01*
D59*
X216044600Y-84191800D02*
X214817000Y-84191800D01*
D60*
X156655068Y-96677200D02*
X158266800Y-96677200D01*
X212344000Y-100482400D02*
X178562000Y-100482400D01*
X156565600Y-94284800D02*
X156565600Y-96587732D01*
X167487600Y-89408000D02*
X161442400Y-89408000D01*
D59*
%TO.N,/ESP32-C3-02/USB_D-*%
X160580150Y-99716388D02*
X160580150Y-99924950D01*
X160541800Y-99678038D02*
X160580150Y-99716388D01*
X160580150Y-99924950D02*
X161305150Y-100649950D01*
X161305150Y-100649950D02*
X161305150Y-101590800D01*
X160541800Y-99002200D02*
X160541800Y-99678038D01*
X160566800Y-98977200D02*
X160541800Y-99002200D01*
%TO.N,/ESP32-C3-02/USB_D+*%
X159405150Y-101590800D02*
X159405150Y-100640050D01*
X160115800Y-99728200D02*
X160115800Y-99026200D01*
X160130150Y-99728200D02*
X160115800Y-99728200D01*
X160130150Y-99915050D02*
X160130150Y-99728200D01*
X160115800Y-99026200D02*
X160066800Y-98977200D01*
X159405150Y-100640050D02*
X160130150Y-99915050D01*
D60*
%TO.N,Net-(C19-Pad2)*%
X161625200Y-73253600D02*
X163962000Y-73253600D01*
%TO.N,Net-(U7-IN-)*%
X160214800Y-73662742D02*
X154203942Y-79673600D01*
X147842758Y-79673600D02*
X147800379Y-79631221D01*
X147800379Y-79631221D02*
X146538700Y-78369542D01*
X146538700Y-78369542D02*
X146538700Y-76174100D01*
X160214800Y-72839000D02*
X160214800Y-73662742D01*
X161625200Y-71428600D02*
X160214800Y-72839000D01*
X146538700Y-76174100D02*
X145796000Y-75431400D01*
%TD*%
%TA.AperFunction,Conductor*%
%TO.N,+3.3V*%
G36*
X138716139Y-78025397D02*
G01*
X138782925Y-78045918D01*
X138828016Y-78099289D01*
X138838578Y-78150881D01*
X138787057Y-82427135D01*
X138766566Y-82493932D01*
X138713215Y-82539048D01*
X138664635Y-82549631D01*
X134897969Y-82597310D01*
X134830686Y-82578476D01*
X134784267Y-82526255D01*
X134772400Y-82473320D01*
X134772400Y-78101660D01*
X134792085Y-78034621D01*
X134844889Y-77988866D01*
X134897948Y-77977670D01*
X138716139Y-78025397D01*
G37*
%TD.AperFunction*%
%TD*%
%TA.AperFunction,Conductor*%
%TO.N,/+5V*%
G36*
X142816152Y-113814319D02*
G01*
X142874016Y-113853480D01*
X142901522Y-113917707D01*
X142902400Y-113932433D01*
X142902400Y-115545700D01*
X142882715Y-115612739D01*
X142829911Y-115658494D01*
X142778400Y-115669700D01*
X141304865Y-115669700D01*
X141237826Y-115650015D01*
X141217184Y-115633382D01*
X141196541Y-115612739D01*
X141147013Y-115563211D01*
X141087702Y-115528967D01*
X141044285Y-115503900D01*
X141036780Y-115500792D01*
X141038106Y-115497588D01*
X140991997Y-115469201D01*
X140961748Y-115406218D01*
X140962503Y-115362014D01*
X140974700Y-115300701D01*
X140974699Y-114561799D01*
X140994383Y-114494761D01*
X141047187Y-114449006D01*
X141098699Y-114437800D01*
X141418950Y-114437800D01*
X141418951Y-114437799D01*
X141433768Y-114434852D01*
X141477429Y-114426168D01*
X141477429Y-114426167D01*
X141477431Y-114426167D01*
X141543752Y-114381852D01*
X141588067Y-114315531D01*
X141588067Y-114315529D01*
X141588068Y-114315529D01*
X141599699Y-114257052D01*
X141599700Y-114257050D01*
X141599700Y-113936799D01*
X141619385Y-113869760D01*
X141672189Y-113824005D01*
X141723695Y-113812799D01*
X142020261Y-113812799D01*
X142036452Y-113813861D01*
X142043582Y-113814800D01*
X142043584Y-113814800D01*
X142738313Y-113814800D01*
X142738316Y-113814800D01*
X142746305Y-113812659D01*
X142816152Y-113814319D01*
G37*
%TD.AperFunction*%
%TD*%
%TA.AperFunction,Conductor*%
%TO.N,/VBAT*%
G36*
X138641739Y-113332485D02*
G01*
X138687494Y-113385289D01*
X138698700Y-113436800D01*
X138698700Y-114257052D01*
X138710331Y-114315529D01*
X138710332Y-114315530D01*
X138754647Y-114381852D01*
X138820969Y-114426167D01*
X138820970Y-114426168D01*
X138879447Y-114437799D01*
X138879450Y-114437800D01*
X138879452Y-114437800D01*
X139199700Y-114437800D01*
X139266739Y-114457485D01*
X139312494Y-114510289D01*
X139323700Y-114561800D01*
X139323700Y-115300697D01*
X139323701Y-115300700D01*
X139338960Y-115377417D01*
X139338961Y-115377419D01*
X139339259Y-115378136D01*
X139340886Y-115386318D01*
X139343677Y-115390660D01*
X139348700Y-115425595D01*
X139348700Y-115535736D01*
X139329015Y-115602775D01*
X139312381Y-115623417D01*
X139288713Y-115647084D01*
X139288711Y-115647087D01*
X139225337Y-115756853D01*
X139223098Y-115755560D01*
X139187335Y-115799949D01*
X139121043Y-115822021D01*
X139116605Y-115822100D01*
X138759200Y-115822100D01*
X138692161Y-115802415D01*
X138646406Y-115749611D01*
X138635200Y-115698100D01*
X138635200Y-115314100D01*
X137895600Y-115314100D01*
X137828561Y-115294415D01*
X137782806Y-115241611D01*
X137771600Y-115190100D01*
X137771600Y-114501300D01*
X137438400Y-114501300D01*
X137371361Y-114481615D01*
X137325606Y-114428811D01*
X137314400Y-114377300D01*
X137314400Y-113436800D01*
X137334085Y-113369761D01*
X137386889Y-113324006D01*
X137438400Y-113312800D01*
X138574700Y-113312800D01*
X138641739Y-113332485D01*
G37*
%TD.AperFunction*%
%TD*%
%TA.AperFunction,Conductor*%
%TO.N,GND*%
G36*
X128164964Y-115638585D02*
G01*
X128210719Y-115691389D01*
X128221894Y-115740145D01*
X128267110Y-117774851D01*
X128248920Y-117842311D01*
X128197146Y-117889228D01*
X128139963Y-117901565D01*
X126409622Y-117857198D01*
X126343109Y-117835802D01*
X126298722Y-117781842D01*
X126288800Y-117733239D01*
X126288800Y-115742900D01*
X126308485Y-115675861D01*
X126361289Y-115630106D01*
X126412800Y-115618900D01*
X128097925Y-115618900D01*
X128164964Y-115638585D01*
G37*
%TD.AperFunction*%
%TD*%
%TA.AperFunction,Conductor*%
%TO.N,GND*%
G36*
X138925106Y-110253785D02*
G01*
X138945748Y-110270419D01*
X139285381Y-110610052D01*
X139318866Y-110671375D01*
X139321700Y-110697733D01*
X139321700Y-111092916D01*
X139322639Y-111100050D01*
X139323700Y-111116234D01*
X139323701Y-111430900D01*
X139304017Y-111497939D01*
X139251213Y-111543694D01*
X139199701Y-111554900D01*
X138787600Y-111554900D01*
X138787600Y-112040500D01*
X138785049Y-112049185D01*
X138786338Y-112058147D01*
X138775359Y-112082187D01*
X138767915Y-112107539D01*
X138761074Y-112113466D01*
X138757313Y-112121703D01*
X138735078Y-112135992D01*
X138715111Y-112153294D01*
X138704596Y-112155581D01*
X138698535Y-112159477D01*
X138663600Y-112164500D01*
X138613387Y-112164500D01*
X138589197Y-112162117D01*
X138587601Y-112161800D01*
X138587599Y-112161800D01*
X138278137Y-112161800D01*
X138261955Y-112160740D01*
X138254818Y-112159800D01*
X138254816Y-112159800D01*
X138254813Y-112159800D01*
X137755817Y-112159800D01*
X137688778Y-112140115D01*
X137668136Y-112123481D01*
X137470819Y-111926164D01*
X137456115Y-111899236D01*
X137439523Y-111873418D01*
X137438631Y-111867217D01*
X137437334Y-111864841D01*
X137434500Y-111838483D01*
X137434500Y-111628100D01*
X137454185Y-111561061D01*
X137506989Y-111515306D01*
X137558500Y-111504100D01*
X137720800Y-111504100D01*
X137720800Y-110764500D01*
X137740485Y-110697461D01*
X137793289Y-110651706D01*
X137844800Y-110640500D01*
X138584400Y-110640500D01*
X138584400Y-110358100D01*
X138586950Y-110349414D01*
X138585662Y-110340453D01*
X138596640Y-110316412D01*
X138604085Y-110291061D01*
X138610925Y-110285133D01*
X138614687Y-110276897D01*
X138636921Y-110262607D01*
X138656889Y-110245306D01*
X138667403Y-110243018D01*
X138673465Y-110239123D01*
X138708400Y-110234100D01*
X138858067Y-110234100D01*
X138925106Y-110253785D01*
G37*
%TD.AperFunction*%
%TD*%
%TA.AperFunction,Conductor*%
%TO.N,/+5V_USB*%
G36*
X150650213Y-95635280D02*
G01*
X150672189Y-95652760D01*
X151412580Y-96393151D01*
X151446065Y-96454474D01*
X151448883Y-96478832D01*
X151534393Y-101780394D01*
X151515792Y-101847742D01*
X151463733Y-101894343D01*
X151411988Y-101906384D01*
X148671084Y-101941299D01*
X148671085Y-101941300D01*
X148548226Y-101942865D01*
X148546335Y-101942889D01*
X148546335Y-101942890D01*
X143683525Y-102004836D01*
X143616241Y-101986007D01*
X143569817Y-101933790D01*
X143557979Y-101883696D01*
X143557152Y-101847742D01*
X143540751Y-101134291D01*
X145193100Y-101134291D01*
X145193100Y-101252909D01*
X145223801Y-101367486D01*
X145283111Y-101470213D01*
X145366987Y-101554089D01*
X145469714Y-101613399D01*
X145584291Y-101644100D01*
X145584294Y-101644100D01*
X145702906Y-101644100D01*
X145702909Y-101644100D01*
X145817486Y-101613399D01*
X145920213Y-101554089D01*
X146004089Y-101470213D01*
X146063399Y-101367486D01*
X146094100Y-101252909D01*
X146094100Y-101185091D01*
X146767900Y-101185091D01*
X146767900Y-101303709D01*
X146798601Y-101418286D01*
X146857911Y-101521013D01*
X146941787Y-101604889D01*
X147044514Y-101664199D01*
X147159091Y-101694900D01*
X147159094Y-101694900D01*
X147277706Y-101694900D01*
X147277709Y-101694900D01*
X147392286Y-101664199D01*
X147495013Y-101604889D01*
X147578889Y-101521013D01*
X147638199Y-101418286D01*
X147668900Y-101303709D01*
X147668900Y-101185091D01*
X148139500Y-101185091D01*
X148139500Y-101303709D01*
X148170201Y-101418286D01*
X148229511Y-101521013D01*
X148313387Y-101604889D01*
X148416114Y-101664199D01*
X148530691Y-101694900D01*
X148530694Y-101694900D01*
X148543961Y-101694900D01*
X148649309Y-101694900D01*
X148763886Y-101664199D01*
X148866613Y-101604889D01*
X148950489Y-101521013D01*
X149009799Y-101418286D01*
X149040500Y-101303709D01*
X149040500Y-101185091D01*
X149009799Y-101070514D01*
X148950489Y-100967787D01*
X148866613Y-100883911D01*
X148763886Y-100824601D01*
X148649309Y-100793900D01*
X148530691Y-100793900D01*
X148416114Y-100824601D01*
X148416112Y-100824601D01*
X148416112Y-100824602D01*
X148313387Y-100883911D01*
X148313384Y-100883913D01*
X148229513Y-100967784D01*
X148229511Y-100967787D01*
X148170201Y-101070514D01*
X148139500Y-101185091D01*
X147668900Y-101185091D01*
X147638199Y-101070514D01*
X147578889Y-100967787D01*
X147495013Y-100883911D01*
X147392286Y-100824601D01*
X147277709Y-100793900D01*
X147159091Y-100793900D01*
X147044514Y-100824601D01*
X147044512Y-100824601D01*
X147044512Y-100824602D01*
X146941787Y-100883911D01*
X146941784Y-100883913D01*
X146857913Y-100967784D01*
X146857911Y-100967787D01*
X146798601Y-101070514D01*
X146767900Y-101185091D01*
X146094100Y-101185091D01*
X146094100Y-101134291D01*
X146063399Y-101019714D01*
X146004089Y-100916987D01*
X145920213Y-100833111D01*
X145817486Y-100773801D01*
X145702909Y-100743100D01*
X145584291Y-100743100D01*
X145469714Y-100773801D01*
X145469712Y-100773801D01*
X145469712Y-100773802D01*
X145366987Y-100833111D01*
X145366984Y-100833113D01*
X145283113Y-100916984D01*
X145283111Y-100916987D01*
X145223801Y-101019714D01*
X145193100Y-101134291D01*
X143540751Y-101134291D01*
X143459233Y-97588235D01*
X143459200Y-97585385D01*
X143459200Y-95829630D01*
X143478885Y-95762591D01*
X143531689Y-95716836D01*
X143581618Y-95705640D01*
X150582931Y-95616451D01*
X150650213Y-95635280D01*
G37*
%TD.AperFunction*%
%TD*%
%TA.AperFunction,Conductor*%
%TO.N,GND*%
G36*
X132019978Y-83329785D02*
G01*
X132065733Y-83382589D01*
X132076902Y-83437124D01*
X132029199Y-85392899D01*
X132029200Y-85392900D01*
X135459431Y-85343896D01*
X135526743Y-85362621D01*
X135573247Y-85414766D01*
X135585200Y-85467883D01*
X135585200Y-88034500D01*
X136428796Y-88078899D01*
X136494706Y-88102080D01*
X136537623Y-88157216D01*
X136546203Y-88207001D01*
X136351329Y-93858373D01*
X136329346Y-93924695D01*
X136274997Y-93968603D01*
X136227403Y-93978100D01*
X134620000Y-93978100D01*
X134157654Y-94006121D01*
X133076373Y-94071653D01*
X133008266Y-94056060D01*
X132959400Y-94006121D01*
X132944878Y-93946691D01*
X132994354Y-88801192D01*
X132994800Y-88791832D01*
X133146800Y-87018500D01*
X133146798Y-87018500D01*
X133146799Y-87018499D01*
X126278818Y-87068267D01*
X126211637Y-87049068D01*
X126165501Y-86996597D01*
X126154979Y-86928096D01*
X126390400Y-85138900D01*
X124479301Y-85091122D01*
X124412774Y-85069768D01*
X124368353Y-85015837D01*
X124358400Y-84967161D01*
X124358400Y-83434100D01*
X124378085Y-83367061D01*
X124430889Y-83321306D01*
X124482400Y-83310100D01*
X131952939Y-83310100D01*
X132019978Y-83329785D01*
G37*
%TD.AperFunction*%
%TD*%
%TA.AperFunction,Conductor*%
%TO.N,/VBUS*%
G36*
X151990491Y-87192822D02*
G01*
X152036575Y-87245339D01*
X152048049Y-87293816D01*
X152278117Y-94923344D01*
X152260462Y-94990947D01*
X152209061Y-95038272D01*
X152154856Y-95051080D01*
X143841142Y-95096894D01*
X143773995Y-95077579D01*
X143727950Y-95025028D01*
X143716500Y-94969700D01*
X143913302Y-87343644D01*
X143934709Y-87277139D01*
X143988676Y-87232761D01*
X144036482Y-87222849D01*
X151923332Y-87173556D01*
X151990491Y-87192822D01*
G37*
%TD.AperFunction*%
%TD*%
M02*
